{"glyphs":{"0":{"ha":600,"x_min":0,"x_max":0,"o":"m 150 56 b 206 111 150 86 175 111 b 231 105 215 111 223 109 b 256 111 238 109 247 111 b 281 105 265 111 273 109 b 306 111 288 109 297 111 b 331 105 315 111 323 109 b 356 111 338 109 347 111 b 411 56 386 111 411 86 b 356 0 411 25 386 0 b 331 6 347 0 338 2 b 306 0 323 2 315 0 b 281 6 297 0 288 2 b 256 0 273 2 265 0 b 231 6 247 0 238 2 b 206 0 223 2 215 0 b 150 56 175 0 150 25 m 350 194 b 406 250 350 225 375 250 b 431 244 415 250 423 248 b 456 250 438 248 447 250 b 511 194 486 250 511 225 b 456 139 511 164 486 139 b 431 145 447 139 438 141 b 406 139 423 141 415 139 b 350 194 375 139 350 164 m 50 194 b 106 250 50 225 75 250 b 131 244 115 250 123 248 b 156 250 138 248 147 250 b 211 194 186 250 211 225 b 156 139 211 164 186 139 b 131 145 147 139 138 141 b 106 139 123 141 115 139 b 50 194 75 139 50 164 m 400 333 b 456 389 400 364 425 389 b 481 383 465 389 473 387 b 506 389 488 387 497 389 b 561 333 536 389 561 364 b 506 278 561 303 536 278 b 481 284 497 278 488 280 b 456 278 473 280 465 278 b 400 333 425 278 400 303 m 0 333 b 56 389 0 364 25 389 b 81 383 65 389 73 387 b 106 389 88 387 97 389 b 161 333 136 389 161 364 b 106 278 161 303 136 278 b 81 284 97 278 88 280 b 56 278 73 280 65 278 b 0 333 25 278 0 303 m 400 472 b 456 528 400 503 425 528 b 481 522 465 528 473 526 b 506 528 488 526 497 528 b 561 472 536 528 561 503 b 506 417 561 442 536 417 b 481 423 497 417 488 419 b 456 417 473 419 465 417 b 400 472 425 417 400 442 m 0 472 b 56 528 0 503 25 528 b 81 522 65 528 73 526 b 106 528 88 526 97 528 b 161 472 136 528 161 503 b 106 417 161 442 136 417 b 81 423 97 417 88 419 b 56 417 73 419 65 417 b 0 472 25 417 0 442 m 400 611 b 456 667 400 642 425 667 b 481 661 465 667 473 665 b 506 667 488 665 497 667 b 561 611 536 667 561 642 b 506 556 561 581 536 556 b 481 562 497 556 488 558 b 456 556 473 558 465 556 b 400 611 425 556 400 581 m 0 611 b 56 667 0 642 25 667 b 81 661 65 667 73 665 b 106 667 88 665 97 667 b 161 611 136 667 161 642 b 106 556 161 581 136 556 b 81 562 97 556 88 558 b 56 556 73 558 65 556 b 0 611 25 556 0 581 m 350 750 b 406 806 350 781 375 806 b 431 800 415 806 423 803 b 456 806 438 803 447 806 b 511 750 486 806 511 781 b 456 694 511 719 486 694 b 431 700 447 694 438 697 b 406 694 423 697 415 694 b 350 750 375 694 350 719 m 50 750 b 106 806 50 781 75 806 b 131 800 115 806 123 803 b 156 806 138 803 147 806 b 211 750 186 806 211 781 b 156 694 211 719 186 694 b 131 700 147 694 138 697 b 106 694 123 697 115 694 b 50 750 75 694 50 719 m 150 889 b 206 944 150 919 175 944 b 231 938 215 944 223 942 b 256 944 238 942 247 944 b 281 938 265 944 273 942 b 306 944 288 942 297 944 b 331 938 315 944 323 942 b 356 944 338 942 347 944 b 411 889 386 944 411 919 b 356 833 411 858 386 833 b 331 839 347 833 338 835 b 306 833 323 835 315 833 b 281 839 297 833 288 835 b 256 833 273 835 265 833 b 231 839 247 833 238 835 b 206 833 223 835 215 833 b 150 889 175 833 150 858 "},"1":{"ha":600,"x_min":0,"x_max":0,"o":"m 100 56 b 156 111 100 86 125 111 b 181 105 165 111 173 109 b 206 111 188 109 197 111 b 231 105 215 111 223 109 b 256 111 238 109 247 111 b 281 105 265 111 273 109 b 306 111 288 109 297 111 b 331 105 315 111 323 109 b 356 111 338 109 347 111 b 381 105 365 111 373 109 b 406 111 388 109 397 111 b 461 56 436 111 461 86 b 406 0 461 25 436 0 b 381 6 397 0 388 2 b 356 0 373 2 365 0 b 331 6 347 0 338 2 b 306 0 323 2 315 0 b 281 6 297 0 288 2 b 256 0 273 2 265 0 b 231 6 247 0 238 2 b 206 0 223 2 215 0 b 181 6 197 0 188 2 b 156 0 173 2 165 0 b 100 56 125 0 100 25 m 200 194 b 256 250 200 225 225 250 b 281 244 265 250 273 248 b 306 250 288 248 297 250 b 361 194 336 250 361 225 b 306 139 361 164 336 139 b 281 145 297 139 288 141 b 256 139 273 141 265 139 b 200 194 225 139 200 164 m 200 333 b 256 389 200 364 225 389 b 281 383 265 389 273 387 b 306 389 288 387 297 389 b 361 333 336 389 361 364 b 306 278 361 303 336 278 b 281 284 297 278 288 280 b 256 278 273 280 265 278 b 200 333 225 278 200 303 m 200 472 b 256 528 200 503 225 528 b 281 522 265 528 273 526 b 306 528 288 526 297 528 b 361 472 336 528 361 503 b 306 417 361 442 336 417 b 281 423 297 417 288 419 b 256 417 273 419 265 417 b 200 472 225 417 200 442 m 200 611 b 256 667 200 642 225 667 b 281 661 265 667 273 665 b 306 667 288 665 297 667 b 361 611 336 667 361 642 b 306 556 361 581 336 556 b 281 562 297 556 288 558 b 256 556 273 558 265 556 b 200 611 225 556 200 581 m 100 750 b 156 806 100 781 125 806 b 181 800 165 806 173 803 b 206 806 188 803 197 806 b 231 800 215 806 223 803 b 256 806 238 803 247 806 b 281 800 265 806 273 803 b 306 806 288 803 297 806 b 361 750 336 806 361 781 b 306 694 361 719 336 694 b 281 700 297 694 288 697 b 256 694 273 697 265 694 b 231 700 247 694 238 697 b 206 694 223 697 215 694 b 181 700 197 694 188 697 b 156 694 173 697 165 694 b 100 750 125 694 100 719 m 200 889 b 256 944 200 919 225 944 b 281 938 265 944 273 942 b 306 944 288 942 297 944 b 361 889 336 944 361 919 b 306 833 361 858 336 833 b 281 839 297 833 288 835 b 256 833 273 835 265 833 b 200 889 225 833 200 858 "},"2":{"ha":600,"x_min":0,"x_max":0,"o":"m 0 56 b 56 111 0 86 25 111 b 81 105 65 111 73 109 b 106 111 88 109 97 111 b 131 105 115 111 123 109 b 156 111 138 109 147 111 b 181 105 165 111 173 109 b 206 111 188 109 197 111 b 231 105 215 111 223 109 b 256 111 238 109 247 111 b 281 105 265 111 273 109 b 306 111 288 109 297 111 b 331 105 315 111 323 109 b 356 111 338 109 347 111 b 381 105 365 111 373 109 b 406 111 388 109 397 111 b 431 105 415 111 423 109 b 456 111 438 109 447 111 b 481 105 465 111 473 109 b 506 111 488 109 497 111 b 561 56 536 111 561 86 b 506 0 561 25 536 0 b 481 6 497 0 488 2 b 456 0 473 2 465 0 b 431 6 447 0 438 2 b 406 0 423 2 415 0 b 381 6 397 0 388 2 b 356 0 373 2 365 0 b 331 6 347 0 338 2 b 306 0 323 2 315 0 b 281 6 297 0 288 2 b 256 0 273 2 265 0 b 231 6 247 0 238 2 b 206 0 223 2 215 0 b 181 6 197 0 188 2 b 156 0 173 2 165 0 b 131 6 147 0 138 2 b 106 0 123 2 115 0 b 81 6 97 0 88 2 b 56 0 73 2 65 0 b 0 56 25 0 0 25 m 100 194 b 156 250 100 225 125 250 b 181 244 165 250 173 248 b 206 250 188 248 197 250 b 261 194 236 250 261 225 b 206 139 261 164 236 139 b 181 145 197 139 188 141 b 156 139 173 141 165 139 b 100 194 125 139 100 164 m 200 333 b 256 389 200 364 225 389 b 281 383 265 389 273 387 b 306 389 288 387 297 389 b 361 333 336 389 361 364 b 306 278 361 303 336 278 b 281 284 297 278 288 280 b 256 278 273 280 265 278 b 200 333 225 278 200 303 m 300 472 b 356 528 300 503 325 528 b 381 522 365 528 373 526 b 406 528 388 526 397 528 b 461 472 436 528 461 503 b 406 417 461 442 436 417 b 381 423 397 417 388 419 b 356 417 373 419 365 417 b 300 472 325 417 300 442 m 400 611 b 456 667 400 642 425 667 b 481 661 465 667 473 665 b 506 667 488 665 497 667 b 561 611 536 667 561 642 b 506 556 561 581 536 556 b 481 562 497 556 488 558 b 456 556 473 558 465 556 b 400 611 425 556 400 581 m 400 750 b 456 806 400 781 425 806 b 481 800 465 806 473 803 b 506 806 488 803 497 806 b 561 750 536 806 561 781 b 506 694 561 719 536 694 b 481 700 497 694 488 697 b 456 694 473 697 465 694 b 400 750 425 694 400 719 m 0 750 b 56 806 0 781 25 806 b 81 800 65 806 73 803 b 106 806 88 803 97 806 b 161 750 136 806 161 781 b 106 694 161 719 136 694 b 81 700 97 694 88 697 b 56 694 73 697 65 694 b 0 750 25 694 0 719 m 50 889 b 106 944 50 919 75 944 b 131 938 115 944 123 942 b 156 944 138 942 147 944 b 181 938 165 944 173 942 b 206 944 188 942 197 944 b 231 938 215 944 223 942 b 256 944 238 942 247 944 b 281 938 265 944 273 942 b 306 944 288 942 297 944 b 331 938 315 944 323 942 b 356 944 338 942 347 944 b 381 938 365 944 373 942 b 406 944 388 942 397 944 b 431 938 415 944 423 942 b 456 944 438 942 447 944 b 511 889 486 944 511 919 b 456 833 511 858 486 833 b 431 839 447 833 438 835 b 406 833 423 835 415 833 b 381 839 397 833 388 835 b 356 833 373 835 365 833 b 331 839 347 833 338 835 b 306 833 323 835 315 833 b 281 839 297 833 288 835 b 256 833 273 835 265 833 b 231 839 247 833 238 835 b 206 833 223 835 215 833 b 181 839 197 833 188 835 b 156 833 173 835 165 833 b 131 839 147 833 138 835 b 106 833 123 835 115 833 b 50 889 75 833 50 858 "},"3":{"ha":600,"x_min":0,"x_max":0,"o":"m 100 56 b 156 111 100 86 125 111 b 181 105 165 111 173 109 b 206 111 188 109 197 111 b 231 105 215 111 223 109 b 256 111 238 109 247 111 b 281 105 265 111 273 109 b 306 111 288 109 297 111 b 331 105 315 111 323 109 b 356 111 338 109 347 111 b 381 105 365 111 373 109 b 406 111 388 109 397 111 b 461 56 436 111 461 86 b 406 0 461 25 436 0 b 381 6 397 0 388 2 b 356 0 373 2 365 0 b 331 6 347 0 338 2 b 306 0 323 2 315 0 b 281 6 297 0 288 2 b 256 0 273 2 265 0 b 231 6 247 0 238 2 b 206 0 223 2 215 0 b 181 6 197 0 188 2 b 156 0 173 2 165 0 b 100 56 125 0 100 25 m 400 194 b 456 250 400 225 425 250 b 481 244 465 250 473 248 b 506 250 488 248 497 250 b 561 194 536 250 561 225 b 506 139 561 164 536 139 b 481 145 497 139 488 141 b 456 139 473 141 465 139 b 400 194 425 139 400 164 m 0 194 b 56 250 0 225 25 250 b 81 244 65 250 73 248 b 106 250 88 248 97 250 b 161 194 136 250 161 225 b 106 139 161 164 136 139 b 81 145 97 139 88 141 b 56 139 73 141 65 139 b 0 194 25 139 0 164 m 400 333 b 456 389 400 364 425 389 b 481 383 465 389 473 387 b 506 389 488 387 497 389 b 561 333 536 389 561 364 b 506 278 561 303 536 278 b 481 284 497 278 488 280 b 456 278 473 280 465 278 b 400 333 425 278 400 303 m 300 472 b 356 528 300 503 325 528 b 381 522 365 528 373 526 b 406 528 388 526 397 528 b 461 472 436 528 461 503 b 406 417 461 442 436 417 b 381 423 397 417 388 419 b 356 417 373 419 365 417 b 300 472 325 417 300 442 m 200 611 b 256 667 200 642 225 667 b 281 661 265 667 273 665 b 306 667 288 665 297 667 b 361 611 336 667 361 642 b 306 556 361 581 336 556 b 281 562 297 556 288 558 b 256 556 273 558 265 556 b 200 611 225 556 200 581 m 300 750 b 356 806 300 781 325 806 b 381 800 365 806 373 803 b 406 806 388 803 397 806 b 461 750 436 806 461 781 b 406 694 461 719 436 694 b 381 700 397 694 388 697 b 356 694 373 697 365 694 b 300 750 325 694 300 719 m 0 889 b 56 944 0 919 25 944 b 81 938 65 944 73 942 b 106 944 88 942 97 944 b 131 938 115 944 123 942 b 156 944 138 942 147 944 b 181 938 165 944 173 942 b 206 944 188 942 197 944 b 231 938 215 944 223 942 b 256 944 238 942 247 944 b 281 938 265 944 273 942 b 306 944 288 942 297 944 b 331 938 315 944 323 942 b 356 944 338 942 347 944 b 381 938 365 944 373 942 b 406 944 388 942 397 944 b 431 938 415 944 423 942 b 456 944 438 942 447 944 b 481 938 465 944 473 942 b 506 944 488 942 497 944 b 561 889 536 944 561 919 b 506 833 561 858 536 833 b 481 839 497 833 488 835 b 456 833 473 835 465 833 b 431 839 447 833 438 835 b 406 833 423 835 415 833 b 381 839 397 833 388 835 b 356 833 373 835 365 833 b 331 839 347 833 338 835 b 306 833 323 835 315 833 b 281 839 297 833 288 835 b 256 833 273 835 265 833 b 231 839 247 833 238 835 b 206 833 223 835 215 833 b 181 839 197 833 188 835 b 156 833 173 835 165 833 b 131 839 147 833 138 835 b 106 833 123 835 115 833 b 81 839 97 833 88 835 b 56 833 73 835 65 833 b 0 889 25 833 0 858 "},"4":{"ha":600,"x_min":0,"x_max":0,"o":"m 300 56 b 356 111 300 86 325 111 b 381 105 365 111 373 109 b 406 111 388 109 397 111 b 461 56 436 111 461 86 b 406 0 461 25 436 0 b 381 6 397 0 388 2 b 356 0 373 2 365 0 b 300 56 325 0 300 25 m 300 194 b 356 250 300 225 325 250 b 381 244 365 250 373 248 b 406 250 388 248 397 250 b 461 194 436 250 461 225 b 406 139 461 164 436 139 b 381 145 397 139 388 141 b 356 139 373 141 365 139 b 300 194 325 139 300 164 m 0 333 b 56 389 0 364 25 389 b 81 383 65 389 73 387 b 106 389 88 387 97 389 b 131 383 115 389 123 387 b 156 389 138 387 147 389 b 181 383 165 389 173 387 b 206 389 188 387 197 389 b 231 383 215 389 223 387 b 256 389 238 387 247 389 b 281 383 265 389 273 387 b 306 389 288 387 297 389 b 331 383 315 389 323 387 b 356 389 338 387 347 389 b 381 383 365 389 373 387 b 406 389 388 387 397 389 b 431 383 415 389 423 387 b 456 389 438 387 447 389 b 481 383 465 389 473 387 b 506 389 488 387 497 389 b 561 333 536 389 561 364 b 506 278 561 303 536 278 b 481 284 497 278 488 280 b 456 278 473 280 465 278 b 431 284 447 278 438 280 b 406 278 423 280 415 278 b 381 284 397 278 388 280 b 356 278 373 280 365 278 b 331 284 347 278 338 280 b 306 278 323 280 315 278 b 281 284 297 278 288 280 b 256 278 273 280 265 278 b 231 284 247 278 238 280 b 206 278 223 280 215 278 b 181 284 197 278 188 280 b 156 278 173 280 165 278 b 131 284 147 278 138 280 b 106 278 123 280 115 278 b 81 284 97 278 88 280 b 56 278 73 280 65 278 b 0 333 25 278 0 303 m 300 472 b 356 528 300 503 325 528 b 381 522 365 528 373 526 b 406 528 388 526 397 528 b 461 472 436 528 461 503 b 406 417 461 442 436 417 b 381 423 397 417 388 419 b 356 417 373 419 365 417 b 300 472 325 417 300 442 m 50 472 b 106 528 50 503 75 528 b 131 522 115 528 123 526 b 156 528 138 526 147 528 b 211 472 186 528 211 503 b 156 417 211 442 186 417 b 131 423 147 417 138 419 b 106 417 123 419 115 417 b 50 472 75 417 50 442 m 300 611 b 356 667 300 642 325 667 b 381 661 365 667 373 665 b 406 667 388 665 397 667 b 461 611 436 667 461 642 b 406 556 461 581 436 556 b 381 562 397 556 388 558 b 356 556 373 558 365 556 b 300 611 325 556 300 581 m 100 611 b 156 667 100 642 125 667 b 181 661 165 667 173 665 b 206 667 188 665 197 667 b 261 611 236 667 261 642 b 206 556 261 581 236 556 b 181 562 197 556 188 558 b 156 556 173 558 165 556 b 100 611 125 556 100 581 m 150 750 b 206 806 150 781 175 806 b 231 800 215 806 223 803 b 256 806 238 803 247 806 b 306 774 277 806 297 793 b 356 806 315 793 334 806 b 381 800 365 806 373 803 b 406 806 388 803 397 806 b 461 750 436 806 461 781 b 406 694 461 719 436 694 b 381 700 397 694 388 697 b 356 694 373 697 365 694 b 306 726 334 694 315 707 b 256 694 297 707 277 694 b 231 700 247 694 238 697 b 206 694 223 697 215 694 b 150 750 175 694 150 719 m 200 889 b 256 944 200 919 225 944 b 281 938 265 944 273 942 b 306 944 288 942 297 944 b 331 938 315 944 323 942 b 356 944 338 942 347 944 b 381 938 365 944 373 942 b 406 944 388 942 397 944 b 461 889 436 944 461 919 b 406 833 461 858 436 833 b 381 839 397 833 388 835 b 356 833 373 835 365 833 b 331 839 347 833 338 835 b 306 833 323 835 315 833 b 281 839 297 833 288 835 b 256 833 273 835 265 833 b 200 889 225 833 200 858 "},"5":{"ha":600,"x_min":0,"x_max":0,"o":"m 50 56 b 106 111 50 86 75 111 b 131 105 115 111 123 109 b 156 111 138 109 147 111 b 181 105 165 111 173 109 b 206 111 188 109 197 111 b 231 105 215 111 223 109 b 256 111 238 109 247 111 b 281 105 265 111 273 109 b 306 111 288 109 297 111 b 331 105 315 111 323 109 b 356 111 338 109 347 111 b 381 105 365 111 373 109 b 406 111 388 109 397 111 b 431 105 415 111 423 109 b 456 111 438 109 447 111 b 511 56 486 111 511 86 b 456 0 511 25 486 0 b 431 6 447 0 438 2 b 406 0 423 2 415 0 b 381 6 397 0 388 2 b 356 0 373 2 365 0 b 331 6 347 0 338 2 b 306 0 323 2 315 0 b 281 6 297 0 288 2 b 256 0 273 2 265 0 b 231 6 247 0 238 2 b 206 0 223 2 215 0 b 181 6 197 0 188 2 b 156 0 173 2 165 0 b 131 6 147 0 138 2 b 106 0 123 2 115 0 b 50 56 75 0 50 25 m 400 194 b 456 250 400 225 425 250 b 481 244 465 250 473 248 b 506 250 488 248 497 250 b 561 194 536 250 561 225 b 506 139 561 164 536 139 b 481 145 497 139 488 141 b 456 139 473 141 465 139 b 400 194 425 139 400 164 m 0 194 b 56 250 0 225 25 250 b 81 244 65 250 73 248 b 106 250 88 248 97 250 b 161 194 136 250 161 225 b 106 139 161 164 136 139 b 81 145 97 139 88 141 b 56 139 73 141 65 139 b 0 194 25 139 0 164 m 400 333 b 456 389 400 364 425 389 b 481 383 465 389 473 387 b 506 389 488 387 497 389 b 561 333 536 389 561 364 b 506 278 561 303 536 278 b 481 284 497 278 488 280 b 456 278 473 280 465 278 b 400 333 425 278 400 303 m 400 472 b 456 528 400 503 425 528 b 481 522 465 528 473 526 b 506 528 488 526 497 528 b 561 472 536 528 561 503 b 506 417 561 442 536 417 b 481 423 497 417 488 419 b 456 417 473 419 465 417 b 400 472 425 417 400 442 m 0 611 b 56 667 0 642 25 667 b 81 661 65 667 73 665 b 106 667 88 665 97 667 b 131 661 115 667 123 665 b 156 667 138 665 147 667 b 181 661 165 667 173 665 b 206 667 188 665 197 667 b 231 661 215 667 223 665 b 256 667 238 665 247 667 b 281 661 265 667 273 665 b 306 667 288 665 297 667 b 331 661 315 667 323 665 b 356 667 338 665 347 667 b 381 661 365 667 373 665 b 406 667 388 665 397 667 b 461 611 436 667 461 642 b 406 556 461 581 436 556 b 381 562 397 556 388 558 b 356 556 373 558 365 556 b 331 562 347 556 338 558 b 306 556 323 558 315 556 b 281 562 297 556 288 558 b 256 556 273 558 265 556 b 231 562 247 556 238 558 b 206 556 223 558 215 556 b 181 562 197 556 188 558 b 156 556 173 558 165 556 b 131 562 147 556 138 558 b 106 556 123 558 115 556 b 81 562 97 556 88 558 b 56 556 73 558 65 556 b 0 611 25 556 0 581 m 0 750 b 56 806 0 781 25 806 b 81 800 65 806 73 803 b 106 806 88 803 97 806 b 161 750 136 806 161 781 b 106 694 161 719 136 694 b 81 700 97 694 88 697 b 56 694 73 697 65 694 b 0 750 25 694 0 719 m 0 889 b 56 944 0 919 25 944 b 81 938 65 944 73 942 b 106 944 88 942 97 944 b 131 938 115 944 123 942 b 156 944 138 942 147 944 b 181 938 165 944 173 942 b 206 944 188 942 197 944 b 231 938 215 944 223 942 b 256 944 238 942 247 944 b 281 938 265 944 273 942 b 306 944 288 942 297 944 b 331 938 315 944 323 942 b 356 944 338 942 347 944 b 381 938 365 944 373 942 b 406 944 388 942 397 944 b 431 938 415 944 423 942 b 456 944 438 942 447 944 b 481 938 465 944 473 942 b 506 944 488 942 497 944 b 561 889 536 944 561 919 b 506 833 561 858 536 833 b 481 839 497 833 488 835 b 456 833 473 835 465 833 b 431 839 447 833 438 835 b 406 833 423 835 415 833 b 381 839 397 833 388 835 b 356 833 373 835 365 833 b 331 839 347 833 338 835 b 306 833 323 835 315 833 b 281 839 297 833 288 835 b 256 833 273 835 265 833 b 231 839 247 833 238 835 b 206 833 223 835 215 833 b 181 839 197 833 188 835 b 156 833 173 835 165 833 b 131 839 147 833 138 835 b 106 833 123 835 115 833 b 81 839 97 833 88 835 b 56 833 73 835 65 833 b 0 889 25 833 0 858 "},"6":{"ha":600,"x_min":0,"x_max":0,"o":"m 50 56 b 106 111 50 86 75 111 b 131 105 115 111 123 109 b 156 111 138 109 147 111 b 181 105 165 111 173 109 b 206 111 188 109 197 111 b 231 105 215 111 223 109 b 256 111 238 109 247 111 b 281 105 265 111 273 109 b 306 111 288 109 297 111 b 331 105 315 111 323 109 b 356 111 338 109 347 111 b 381 105 365 111 373 109 b 406 111 388 109 397 111 b 431 105 415 111 423 109 b 456 111 438 109 447 111 b 511 56 486 111 511 86 b 456 0 511 25 486 0 b 431 6 447 0 438 2 b 406 0 423 2 415 0 b 381 6 397 0 388 2 b 356 0 373 2 365 0 b 331 6 347 0 338 2 b 306 0 323 2 315 0 b 281 6 297 0 288 2 b 256 0 273 2 265 0 b 231 6 247 0 238 2 b 206 0 223 2 215 0 b 181 6 197 0 188 2 b 156 0 173 2 165 0 b 131 6 147 0 138 2 b 106 0 123 2 115 0 b 50 56 75 0 50 25 m 400 194 b 456 250 400 225 425 250 b 481 244 465 250 473 248 b 506 250 488 248 497 250 b 561 194 536 250 561 225 b 506 139 561 164 536 139 b 481 145 497 139 488 141 b 456 139 473 141 465 139 b 400 194 425 139 400 164 m 0 194 b 56 250 0 225 25 250 b 81 244 65 250 73 248 b 106 250 88 248 97 250 b 161 194 136 250 161 225 b 106 139 161 164 136 139 b 81 145 97 139 88 141 b 56 139 73 141 65 139 b 0 194 25 139 0 164 m 400 333 b 456 389 400 364 425 389 b 481 383 465 389 473 387 b 506 389 488 387 497 389 b 561 333 536 389 561 364 b 506 278 561 303 536 278 b 481 284 497 278 488 280 b 456 278 473 280 465 278 b 400 333 425 278 400 303 m 0 333 b 56 389 0 364 25 389 b 81 383 65 389 73 387 b 106 389 88 387 97 389 b 161 333 136 389 161 364 b 106 278 161 303 136 278 b 81 284 97 278 88 280 b 56 278 73 280 65 278 b 0 333 25 278 0 303 m 50 472 b 106 528 50 503 75 528 b 131 522 115 528 123 526 b 156 528 138 526 147 528 b 181 522 165 528 173 526 b 206 528 188 526 197 528 b 231 522 215 528 223 526 b 256 528 238 526 247 528 b 281 522 265 528 273 526 b 306 528 288 526 297 528 b 331 522 315 528 323 526 b 356 528 338 526 347 528 b 381 522 365 528 373 526 b 406 528 388 526 397 528 b 431 522 415 528 423 526 b 456 528 438 526 447 528 b 511 472 486 528 511 503 b 456 417 511 442 486 417 b 431 423 447 417 438 419 b 406 417 423 419 415 417 b 381 423 397 417 388 419 b 356 417 373 419 365 417 b 331 423 347 417 338 419 b 306 417 323 419 315 417 b 281 423 297 417 288 419 b 256 417 273 419 265 417 b 231 423 247 417 238 419 b 206 417 223 419 215 417 b 181 423 197 417 188 419 b 156 417 173 419 165 417 b 131 423 147 417 138 419 b 106 417 123 419 115 417 b 50 472 75 417 50 442 m 100 611 b 156 667 100 642 125 667 b 181 661 165 667 173 665 b 206 667 188 665 197 667 b 261 611 236 667 261 642 b 206 556 261 581 236 556 b 181 562 197 556 188 558 b 156 556 173 558 165 556 b 100 611 125 556 100 581 m 150 750 b 206 806 150 781 175 806 b 231 800 215 806 223 803 b 256 806 238 803 247 806 b 311 750 286 806 311 781 b 256 694 311 719 286 694 b 231 700 247 694 238 697 b 206 694 223 697 215 694 b 150 750 175 694 150 719 m 200 889 b 256 944 200 919 225 944 b 281 938 265 944 273 942 b 306 944 288 942 297 944 b 361 889 336 944 361 919 b 306 833 361 858 336 833 b 281 839 297 833 288 835 b 256 833 273 835 265 833 b 200 889 225 833 200 858 "},"7":{"ha":600,"x_min":0,"x_max":0,"o":"m 100 56 b 156 111 100 86 125 111 b 181 105 165 111 173 109 b 206 111 188 109 197 111 b 261 56 236 111 261 86 b 206 0 261 25 236 0 b 181 6 197 0 188 2 b 156 0 173 2 165 0 b 100 56 125 0 100 25 m 150 194 b 206 250 150 225 175 250 b 231 244 215 250 223 248 b 256 250 238 248 247 250 b 311 194 286 250 311 225 b 256 139 311 164 286 139 b 231 145 247 139 238 141 b 206 139 223 141 215 139 b 150 194 175 139 150 164 m 200 333 b 256 389 200 364 225 389 b 281 383 265 389 273 387 b 306 389 288 387 297 389 b 361 333 336 389 361 364 b 306 278 361 303 336 278 b 281 284 297 278 288 280 b 256 278 273 280 265 278 b 200 333 225 278 200 303 m 250 472 b 306 528 250 503 275 528 b 331 522 315 528 323 526 b 356 528 338 526 347 528 b 411 472 386 528 411 503 b 356 417 411 442 386 417 b 331 423 347 417 338 419 b 306 417 323 419 315 417 b 250 472 275 417 250 442 m 300 611 b 356 667 300 642 325 667 b 381 661 365 667 373 665 b 406 667 388 665 397 667 b 461 611 436 667 461 642 b 406 556 461 581 436 556 b 381 562 397 556 388 558 b 356 556 373 558 365 556 b 300 611 325 556 300 581 m 350 750 b 406 806 350 781 375 806 b 431 800 415 806 423 803 b 456 806 438 803 447 806 b 511 750 486 806 511 781 b 456 694 511 719 486 694 b 431 700 447 694 438 697 b 406 694 423 697 415 694 b 350 750 375 694 350 719 m 0 889 b 56 944 0 919 25 944 b 81 938 65 944 73 942 b 106 944 88 942 97 944 b 131 938 115 944 123 942 b 156 944 138 942 147 944 b 181 938 165 944 173 942 b 206 944 188 942 197 944 b 231 938 215 944 223 942 b 256 944 238 942 247 944 b 281 938 265 944 273 942 b 306 944 288 942 297 944 b 331 938 315 944 323 942 b 356 944 338 942 347 944 b 381 938 365 944 373 942 b 406 944 388 942 397 944 b 431 938 415 944 423 942 b 456 944 438 942 447 944 b 481 938 465 944 473 942 b 506 944 488 942 497 944 b 561 889 536 944 561 919 b 506 833 561 858 536 833 b 481 839 497 833 488 835 b 456 833 473 835 465 833 b 431 839 447 833 438 835 b 406 833 423 835 415 833 b 381 839 397 833 388 835 b 356 833 373 835 365 833 b 331 839 347 833 338 835 b 306 833 323 835 315 833 b 281 839 297 833 288 835 b 256 833 273 835 265 833 b 231 839 247 833 238 835 b 206 833 223 835 215 833 b 181 839 197 833 188 835 b 156 833 173 835 165 833 b 131 839 147 833 138 835 b 106 833 123 835 115 833 b 81 839 97 833 88 835 b 56 833 73 835 65 833 b 0 889 25 833 0 858 "},"8":{"ha":600,"x_min":0,"x_max":0,"o":"m 50 56 b 106 111 50 86 75 111 b 131 105 115 111 123 109 b 156 111 138 109 147 111 b 181 105 165 111 173 109 b 206 111 188 109 197 111 b 231 105 215 111 223 109 b 256 111 238 109 247 111 b 281 105 265 111 273 109 b 306 111 288 109 297 111 b 331 105 315 111 323 109 b 356 111 338 109 347 111 b 381 105 365 111 373 109 b 406 111 388 109 397 111 b 431 105 415 111 423 109 b 456 111 438 109 447 111 b 511 56 486 111 511 86 b 456 0 511 25 486 0 b 431 6 447 0 438 2 b 406 0 423 2 415 0 b 381 6 397 0 388 2 b 356 0 373 2 365 0 b 331 6 347 0 338 2 b 306 0 323 2 315 0 b 281 6 297 0 288 2 b 256 0 273 2 265 0 b 231 6 247 0 238 2 b 206 0 223 2 215 0 b 181 6 197 0 188 2 b 156 0 173 2 165 0 b 131 6 147 0 138 2 b 106 0 123 2 115 0 b 50 56 75 0 50 25 m 400 194 b 456 250 400 225 425 250 b 481 244 465 250 473 248 b 506 250 488 248 497 250 b 561 194 536 250 561 225 b 506 139 561 164 536 139 b 481 145 497 139 488 141 b 456 139 473 141 465 139 b 400 194 425 139 400 164 m 0 194 b 56 250 0 225 25 250 b 81 244 65 250 73 248 b 106 250 88 248 97 250 b 161 194 136 250 161 225 b 106 139 161 164 136 139 b 81 145 97 139 88 141 b 56 139 73 141 65 139 b 0 194 25 139 0 164 m 400 333 b 456 389 400 364 425 389 b 481 383 465 389 473 387 b 506 389 488 387 497 389 b 561 333 536 389 561 364 b 506 278 561 303 536 278 b 481 284 497 278 488 280 b 456 278 473 280 465 278 b 400 333 425 278 400 303 m 0 333 b 56 389 0 364 25 389 b 81 383 65 389 73 387 b 106 389 88 387 97 389 b 161 333 136 389 161 364 b 106 278 161 303 136 278 b 81 284 97 278 88 280 b 56 278 73 280 65 278 b 0 333 25 278 0 303 m 50 472 b 106 528 50 503 75 528 b 131 522 115 528 123 526 b 156 528 138 526 147 528 b 181 522 165 528 173 526 b 206 528 188 526 197 528 b 231 522 215 528 223 526 b 256 528 238 526 247 528 b 281 522 265 528 273 526 b 306 528 288 526 297 528 b 331 522 315 528 323 526 b 356 528 338 526 347 528 b 381 522 365 528 373 526 b 406 528 388 526 397 528 b 431 522 415 528 423 526 b 456 528 438 526 447 528 b 511 472 486 528 511 503 b 456 417 511 442 486 417 b 431 423 447 417 438 419 b 406 417 423 419 415 417 b 381 423 397 417 388 419 b 356 417 373 419 365 417 b 331 423 347 417 338 419 b 306 417 323 419 315 417 b 281 423 297 417 288 419 b 256 417 273 419 265 417 b 231 423 247 417 238 419 b 206 417 223 419 215 417 b 181 423 197 417 188 419 b 156 417 173 419 165 417 b 131 423 147 417 138 419 b 106 417 123 419 115 417 b 50 472 75 417 50 442 m 400 611 b 456 667 400 642 425 667 b 481 661 465 667 473 665 b 506 667 488 665 497 667 b 561 611 536 667 561 642 b 506 556 561 581 536 556 b 481 562 497 556 488 558 b 456 556 473 558 465 556 b 400 611 425 556 400 581 m 0 611 b 56 667 0 642 25 667 b 81 661 65 667 73 665 b 106 667 88 665 97 667 b 161 611 136 667 161 642 b 106 556 161 581 136 556 b 81 562 97 556 88 558 b 56 556 73 558 65 556 b 0 611 25 556 0 581 m 400 750 b 456 806 400 781 425 806 b 481 800 465 806 473 803 b 506 806 488 803 497 806 b 561 750 536 806 561 781 b 506 694 561 719 536 694 b 481 700 497 694 488 697 b 456 694 473 697 465 694 b 400 750 425 694 400 719 m 0 750 b 56 806 0 781 25 806 b 81 800 65 806 73 803 b 106 806 88 803 97 806 b 161 750 136 806 161 781 b 106 694 161 719 136 694 b 81 700 97 694 88 697 b 56 694 73 697 65 694 b 0 750 25 694 0 719 m 50 889 b 106 944 50 919 75 944 b 131 938 115 944 123 942 b 156 944 138 942 147 944 b 181 938 165 944 173 942 b 206 944 188 942 197 944 b 231 938 215 944 223 942 b 256 944 238 942 247 944 b 281 938 265 944 273 942 b 306 944 288 942 297 944 b 331 938 315 944 323 942 b 356 944 338 942 347 944 b 381 938 365 944 373 942 b 406 944 388 942 397 944 b 431 938 415 944 423 942 b 456 944 438 942 447 944 b 511 889 486 944 511 919 b 456 833 511 858 486 833 b 431 839 447 833 438 835 b 406 833 423 835 415 833 b 381 839 397 833 388 835 b 356 833 373 835 365 833 b 331 839 347 833 338 835 b 306 833 323 835 315 833 b 281 839 297 833 288 835 b 256 833 273 835 265 833 b 231 839 247 833 238 835 b 206 833 223 835 215 833 b 181 839 197 833 188 835 b 156 833 173 835 165 833 b 131 839 147 833 138 835 b 106 833 123 835 115 833 b 50 889 75 833 50 858 "},"9":{"ha":600,"x_min":0,"x_max":0,"o":"m 200 56 b 256 111 200 86 225 111 b 281 105 265 111 273 109 b 306 111 288 109 297 111 b 361 56 336 111 361 86 b 306 0 361 25 336 0 b 281 6 297 0 288 2 b 256 0 273 2 265 0 b 200 56 225 0 200 25 m 250 194 b 306 250 250 225 275 250 b 331 244 315 250 323 248 b 356 250 338 248 347 250 b 411 194 386 250 411 225 b 356 139 411 164 386 139 b 331 145 347 139 338 141 b 306 139 323 141 315 139 b 250 194 275 139 250 164 m 300 333 b 356 389 300 364 325 389 b 381 383 365 389 373 387 b 406 389 388 387 397 389 b 461 333 436 389 461 364 b 406 278 461 303 436 278 b 381 284 397 278 388 280 b 356 278 373 280 365 278 b 300 333 325 278 300 303 m 50 472 b 106 528 50 503 75 528 b 131 522 115 528 123 526 b 156 528 138 526 147 528 b 181 522 165 528 173 526 b 206 528 188 526 197 528 b 231 522 215 528 223 526 b 256 528 238 526 247 528 b 281 522 265 528 273 526 b 306 528 288 526 297 528 b 331 522 315 528 323 526 b 356 528 338 526 347 528 b 381 522 365 528 373 526 b 406 528 388 526 397 528 b 431 522 415 528 423 526 b 456 528 438 526 447 528 b 511 472 486 528 511 503 b 456 417 511 442 486 417 b 431 423 447 417 438 419 b 406 417 423 419 415 417 b 381 423 397 417 388 419 b 356 417 373 419 365 417 b 331 423 347 417 338 419 b 306 417 323 419 315 417 b 281 423 297 417 288 419 b 256 417 273 419 265 417 b 231 423 247 417 238 419 b 206 417 223 419 215 417 b 181 423 197 417 188 419 b 156 417 173 419 165 417 b 131 423 147 417 138 419 b 106 417 123 419 115 417 b 50 472 75 417 50 442 m 400 611 b 456 667 400 642 425 667 b 481 661 465 667 473 665 b 506 667 488 665 497 667 b 561 611 536 667 561 642 b 506 556 561 581 536 556 b 481 562 497 556 488 558 b 456 556 473 558 465 556 b 400 611 425 556 400 581 m 0 611 b 56 667 0 642 25 667 b 81 661 65 667 73 665 b 106 667 88 665 97 667 b 161 611 136 667 161 642 b 106 556 161 581 136 556 b 81 562 97 556 88 558 b 56 556 73 558 65 556 b 0 611 25 556 0 581 m 400 750 b 456 806 400 781 425 806 b 481 800 465 806 473 803 b 506 806 488 803 497 806 b 561 750 536 806 561 781 b 506 694 561 719 536 694 b 481 700 497 694 488 697 b 456 694 473 697 465 694 b 400 750 425 694 400 719 m 0 750 b 56 806 0 781 25 806 b 81 800 65 806 73 803 b 106 806 88 803 97 806 b 161 750 136 806 161 781 b 106 694 161 719 136 694 b 81 700 97 694 88 697 b 56 694 73 697 65 694 b 0 750 25 694 0 719 m 50 889 b 106 944 50 919 75 944 b 131 938 115 944 123 942 b 156 944 138 942 147 944 b 181 938 165 944 173 942 b 206 944 188 942 197 944 b 231 938 215 944 223 942 b 256 944 238 942 247 944 b 281 938 265 944 273 942 b 306 944 288 942 297 944 b 331 938 315 944 323 942 b 356 944 338 942 347 944 b 381 938 365 944 373 942 b 406 944 388 942 397 944 b 431 938 415 944 423 942 b 456 944 438 942 447 944 b 511 889 486 944 511 919 b 456 833 511 858 486 833 b 431 839 447 833 438 835 b 406 833 423 835 415 833 b 381 839 397 833 388 835 b 356 833 373 835 365 833 b 331 839 347 833 338 835 b 306 833 323 835 315 833 b 281 839 297 833 288 835 b 256 833 273 835 265 833 b 231 839 247 833 238 835 b 206 833 223 835 215 833 b 181 839 197 833 188 835 b 156 833 173 835 165 833 b 131 839 147 833 138 835 b 106 833 123 835 115 833 b 50 889 75 833 50 858 "}," ":{"ha":600,"x_min":0,"x_max":0,"o":""},"!":{"ha":600,"x_min":0,"x_max":0,"o":"m 200 56 b 256 111 200 86 225 111 b 281 105 265 111 273 109 b 306 111 288 109 297 111 b 361 56 336 111 361 86 b 306 0 361 25 336 0 b 281 6 297 0 288 2 b 256 0 273 2 265 0 b 200 56 225 0 200 25 m 200 472 b 256 528 200 503 225 528 b 281 522 265 528 273 526 b 306 528 288 526 297 528 b 361 472 336 528 361 503 b 306 417 361 442 336 417 b 281 423 297 417 288 419 b 256 417 273 419 265 417 b 200 472 225 417 200 442 m 200 611 b 256 667 200 642 225 667 b 281 661 265 667 273 665 b 306 667 288 665 297 667 b 361 611 336 667 361 642 b 306 556 361 581 336 556 b 281 562 297 556 288 558 b 256 556 273 558 265 556 b 200 611 225 556 200 581 m 200 750 b 256 806 200 781 225 806 b 281 800 265 806 273 803 b 306 806 288 803 297 806 b 361 750 336 806 361 781 b 306 694 361 719 336 694 b 281 700 297 694 288 697 b 256 694 273 697 265 694 b 200 750 225 694 200 719 m 200 889 b 256 944 200 919 225 944 b 281 938 265 944 273 942 b 306 944 288 942 297 944 b 361 889 336 944 361 919 b 306 833 361 858 336 833 b 281 839 297 833 288 835 b 256 833 273 835 265 833 b 200 889 225 833 200 858 "},"\"":{"ha":600,"x_min":0,"x_max":0,"o":"m 300 611 b 356 667 300 642 325 667 b 381 661 365 667 373 665 b 406 667 388 665 397 667 b 461 611 436 667 461 642 b 406 556 461 581 436 556 b 381 562 397 556 388 558 b 356 556 373 558 365 556 b 300 611 325 556 300 581 m 100 611 b 156 667 100 642 125 667 b 181 661 165 667 173 665 b 206 667 188 665 197 667 b 261 611 236 667 261 642 b 206 556 261 581 236 556 b 181 562 197 556 188 558 b 156 556 173 558 165 556 b 100 611 125 556 100 581 m 300 750 b 356 806 300 781 325 806 b 381 800 365 806 373 803 b 406 806 388 803 397 806 b 461 750 436 806 461 781 b 406 694 461 719 436 694 b 381 700 397 694 388 697 b 356 694 373 697 365 694 b 300 750 325 694 300 719 m 100 750 b 156 806 100 781 125 806 b 181 800 165 806 173 803 b 206 806 188 803 197 806 b 261 750 236 806 261 781 b 206 694 261 719 236 694 b 181 700 197 694 188 697 b 156 694 173 697 165 694 b 100 750 125 694 100 719 m 300 889 b 356 944 300 919 325 944 b 381 938 365 944 373 942 b 406 944 388 942 397 944 b 461 889 436 944 461 919 b 406 833 461 858 436 833 b 381 839 397 833 388 835 b 356 833 373 835 365 833 b 300 889 325 833 300 858 m 100 889 b 156 944 100 919 125 944 b 181 938 165 944 173 942 b 206 944 188 942 197 944 b 261 889 236 944 261 919 b 206 833 261 858 236 833 b 181 839 197 833 188 835 b 156 833 173 835 165 833 b 100 889 125 833 100 858 "},"#":{"ha":600,"x_min":0,"x_max":0,"o":"m 300 56 b 356 111 300 86 325 111 b 381 105 365 111 373 109 b 406 111 388 109 397 111 b 461 56 436 111 461 86 b 406 0 461 25 436 0 b 381 6 397 0 388 2 b 356 0 373 2 365 0 b 300 56 325 0 300 25 m 100 56 b 156 111 100 86 125 111 b 181 105 165 111 173 109 b 206 111 188 109 197 111 b 261 56 236 111 261 86 b 206 0 261 25 236 0 b 181 6 197 0 188 2 b 156 0 173 2 165 0 b 100 56 125 0 100 25 m 300 194 b 356 250 300 225 325 250 b 381 244 365 250 373 248 b 406 250 388 248 397 250 b 461 194 436 250 461 225 b 406 139 461 164 436 139 b 381 145 397 139 388 141 b 356 139 373 141 365 139 b 300 194 325 139 300 164 m 100 194 b 156 250 100 225 125 250 b 181 244 165 250 173 248 b 206 250 188 248 197 250 b 261 194 236 250 261 225 b 206 139 261 164 236 139 b 181 145 197 139 188 141 b 156 139 173 141 165 139 b 100 194 125 139 100 164 m 0 333 b 56 389 0 364 25 389 b 81 383 65 389 73 387 b 106 389 88 387 97 389 b 131 383 115 389 123 387 b 156 389 138 387 147 389 b 181 383 165 389 173 387 b 206 389 188 387 197 389 b 231 383 215 389 223 387 b 256 389 238 387 247 389 b 281 383 265 389 273 387 b 306 389 288 387 297 389 b 331 383 315 389 323 387 b 356 389 338 387 347 389 b 381 383 365 389 373 387 b 406 389 388 387 397 389 b 431 383 415 389 423 387 b 456 389 438 387 447 389 b 481 383 465 389 473 387 b 506 389 488 387 497 389 b 561 333 536 389 561 364 b 506 278 561 303 536 278 b 481 284 497 278 488 280 b 456 278 473 280 465 278 b 431 284 447 278 438 280 b 406 278 423 280 415 278 b 381 284 397 278 388 280 b 356 278 373 280 365 278 b 331 284 347 278 338 280 b 306 278 323 280 315 278 b 281 284 297 278 288 280 b 256 278 273 280 265 278 b 231 284 247 278 238 280 b 206 278 223 280 215 278 b 181 284 197 278 188 280 b 156 278 173 280 165 278 b 131 284 147 278 138 280 b 106 278 123 280 115 278 b 81 284 97 278 88 280 b 56 278 73 280 65 278 b 0 333 25 278 0 303 m 300 472 b 356 528 300 503 325 528 b 381 522 365 528 373 526 b 406 528 388 526 397 528 b 461 472 436 528 461 503 b 406 417 461 442 436 417 b 381 423 397 417 388 419 b 356 417 373 419 365 417 b 300 472 325 417 300 442 m 100 472 b 156 528 100 503 125 528 b 181 522 165 528 173 526 b 206 528 188 526 197 528 b 261 472 236 528 261 503 b 206 417 261 442 236 417 b 181 423 197 417 188 419 b 156 417 173 419 165 417 b 100 472 125 417 100 442 m 0 611 b 56 667 0 642 25 667 b 81 661 65 667 73 665 b 106 667 88 665 97 667 b 131 661 115 667 123 665 b 156 667 138 665 147 667 b 181 661 165 667 173 665 b 206 667 188 665 197 667 b 231 661 215 667 223 665 b 256 667 238 665 247 667 b 281 661 265 667 273 665 b 306 667 288 665 297 667 b 331 661 315 667 323 665 b 356 667 338 665 347 667 b 381 661 365 667 373 665 b 406 667 388 665 397 667 b 431 661 415 667 423 665 b 456 667 438 665 447 667 b 481 661 465 667 473 665 b 506 667 488 665 497 667 b 561 611 536 667 561 642 b 506 556 561 581 536 556 b 481 562 497 556 488 558 b 456 556 473 558 465 556 b 431 562 447 556 438 558 b 406 556 423 558 415 556 b 381 562 397 556 388 558 b 356 556 373 558 365 556 b 331 562 347 556 338 558 b 306 556 323 558 315 556 b 281 562 297 556 288 558 b 256 556 273 558 265 556 b 231 562 247 556 238 558 b 206 556 223 558 215 556 b 181 562 197 556 188 558 b 156 556 173 558 165 556 b 131 562 147 556 138 558 b 106 556 123 558 115 556 b 81 562 97 556 88 558 b 56 556 73 558 65 556 b 0 611 25 556 0 581 m 300 750 b 356 806 300 781 325 806 b 381 800 365 806 373 803 b 406 806 388 803 397 806 b 461 750 436 806 461 781 b 406 694 461 719 436 694 b 381 700 397 694 388 697 b 356 694 373 697 365 694 b 300 750 325 694 300 719 m 100 750 b 156 806 100 781 125 806 b 181 800 165 806 173 803 b 206 806 188 803 197 806 b 261 750 236 806 261 781 b 206 694 261 719 236 694 b 181 700 197 694 188 697 b 156 694 173 697 165 694 b 100 750 125 694 100 719 m 300 889 b 356 944 300 919 325 944 b 381 938 365 944 373 942 b 406 944 388 942 397 944 b 461 889 436 944 461 919 b 406 833 461 858 436 833 b 381 839 397 833 388 835 b 356 833 373 835 365 833 b 300 889 325 833 300 858 m 100 889 b 156 944 100 919 125 944 b 181 938 165 944 173 942 b 206 944 188 942 197 944 b 261 889 236 944 261 919 b 206 833 261 858 236 833 b 181 839 197 833 188 835 b 156 833 173 835 165 833 b 100 889 125 833 100 858 "},"$":{"ha":600,"x_min":0,"x_max":0,"o":"m 200 56 b 256 111 200 86 225 111 b 281 105 265 111 273 109 b 306 111 288 109 297 111 b 361 56 336 111 361 86 b 306 0 361 25 336 0 b 281 6 297 0 288 2 b 256 0 273 2 265 0 b 200 56 225 0 200 25 m 0 194 b 56 250 0 225 25 250 b 81 244 65 250 73 248 b 106 250 88 248 97 250 b 131 244 115 250 123 248 b 156 250 138 248 147 250 b 181 244 165 250 173 248 b 206 250 188 248 197 250 b 231 244 215 250 223 248 b 256 250 238 248 247 250 b 281 244 265 250 273 248 b 306 250 288 248 297 250 b 331 244 315 250 323 248 b 356 250 338 248 347 250 b 381 244 365 250 373 248 b 406 250 388 248 397 250 b 461 194 436 250 461 225 b 406 139 461 164 436 139 b 381 145 397 139 388 141 b 356 139 373 141 365 139 b 331 145 347 139 338 141 b 306 139 323 141 315 139 b 281 145 297 139 288 141 b 256 139 273 141 265 139 b 231 145 247 139 238 141 b 206 139 223 141 215 139 b 181 145 197 139 188 141 b 156 139 173 141 165 139 b 131 145 147 139 138 141 b 106 139 123 141 115 139 b 81 145 97 139 88 141 b 56 139 73 141 65 139 b 0 194 25 139 0 164 m 400 333 b 456 389 400 364 425 389 b 481 383 465 389 473 387 b 506 389 488 387 497 389 b 561 333 536 389 561 364 b 506 278 561 303 536 278 b 481 284 497 278 488 280 b 456 278 473 280 465 278 b 400 333 425 278 400 303 m 200 333 b 256 389 200 364 225 389 b 281 383 265 389 273 387 b 306 389 288 387 297 389 b 361 333 336 389 361 364 b 306 278 361 303 336 278 b 281 284 297 278 288 280 b 256 278 273 280 265 278 b 200 333 225 278 200 303 m 100 472 b 156 528 100 503 125 528 b 181 522 165 528 173 526 b 206 528 188 526 197 528 b 231 522 215 528 223 526 b 256 528 238 526 247 528 b 281 522 265 528 273 526 b 306 528 288 526 297 528 b 331 522 315 528 323 526 b 356 528 338 526 347 528 b 381 522 365 528 373 526 b 406 528 388 526 397 528 b 461 472 436 528 461 503 b 406 417 461 442 436 417 b 381 423 397 417 388 419 b 356 417 373 419 365 417 b 331 423 347 417 338 419 b 306 417 323 419 315 417 b 281 423 297 417 288 419 b 256 417 273 419 265 417 b 231 423 247 417 238 419 b 206 417 223 419 215 417 b 181 423 197 417 188 419 b 156 417 173 419 165 417 b 100 472 125 417 100 442 m 200 611 b 256 667 200 642 225 667 b 281 661 265 667 273 665 b 306 667 288 665 297 667 b 361 611 336 667 361 642 b 306 556 361 581 336 556 b 281 562 297 556 288 558 b 256 556 273 558 265 556 b 200 611 225 556 200 581 m 0 611 b 56 667 0 642 25 667 b 81 661 65 667 73 665 b 106 667 88 665 97 667 b 161 611 136 667 161 642 b 106 556 161 581 136 556 b 81 562 97 556 88 558 b 56 556 73 558 65 556 b 0 611 25 556 0 581 m 100 750 b 156 806 100 781 125 806 b 181 800 165 806 173 803 b 206 806 188 803 197 806 b 231 800 215 806 223 803 b 256 806 238 803 247 806 b 281 800 265 806 273 803 b 306 806 288 803 297 806 b 331 800 315 806 323 803 b 356 806 338 803 347 806 b 381 800 365 806 373 803 b 406 806 388 803 397 806 b 431 800 415 806 423 803 b 456 806 438 803 447 806 b 481 800 465 806 473 803 b 506 806 488 803 497 806 b 561 750 536 806 561 781 b 506 694 561 719 536 694 b 481 700 497 694 488 697 b 456 694 473 697 465 694 b 431 700 447 694 438 697 b 406 694 423 697 415 694 b 381 700 397 694 388 697 b 356 694 373 697 365 694 b 331 700 347 694 338 697 b 306 694 323 697 315 694 b 281 700 297 694 288 697 b 256 694 273 697 265 694 b 231 700 247 694 238 697 b 206 694 223 697 215 694 b 181 700 197 694 188 697 b 156 694 173 697 165 694 b 100 750 125 694 100 719 m 200 889 b 256 944 200 919 225 944 b 281 938 265 944 273 942 b 306 944 288 942 297 944 b 361 889 336 944 361 919 b 306 833 361 858 336 833 b 281 839 297 833 288 835 b 256 833 273 835 265 833 b 200 889 225 833 200 858 "},"%":{"ha":600,"x_min":0,"x_max":0,"o":"m 300 56 b 356 111 300 86 325 111 b 381 105 365 111 373 109 b 406 111 388 109 397 111 b 431 105 415 111 423 109 b 456 111 438 109 447 111 b 481 105 465 111 473 109 b 506 111 488 109 497 111 b 561 56 536 111 561 86 b 506 0 561 25 536 0 b 481 6 497 0 488 2 b 456 0 473 2 465 0 b 431 6 447 0 438 2 b 406 0 423 2 415 0 b 381 6 397 0 388 2 b 356 0 373 2 365 0 b 300 56 325 0 300 25 m 50 56 b 106 111 50 86 75 111 b 131 105 115 111 123 109 b 156 111 138 109 147 111 b 211 56 186 111 211 86 b 156 0 211 25 186 0 b 131 6 147 0 138 2 b 106 0 123 2 115 0 b 50 56 75 0 50 25 m 300 194 b 356 250 300 225 325 250 b 381 244 365 250 373 248 b 406 250 388 248 397 250 b 431 244 415 250 423 248 b 456 250 438 248 447 250 b 481 244 465 250 473 248 b 506 250 488 248 497 250 b 561 194 536 250 561 225 b 506 139 561 164 536 139 b 481 145 497 139 488 141 b 456 139 473 141 465 139 b 431 145 447 139 438 141 b 406 139 423 141 415 139 b 381 145 397 139 388 141 b 356 139 373 141 365 139 b 300 194 325 139 300 164 m 100 194 b 156 250 100 225 125 250 b 181 244 165 250 173 248 b 206 250 188 248 197 250 b 261 194 236 250 261 225 b 206 139 261 164 236 139 b 181 145 197 139 188 141 b 156 139 173 141 165 139 b 100 194 125 139 100 164 m 150 333 b 206 389 150 364 175 389 b 231 383 215 389 223 387 b 256 389 238 387 247 389 b 311 333 286 389 311 364 b 256 278 311 303 286 278 b 231 284 247 278 238 280 b 206 278 223 280 215 278 b 150 333 175 278 150 303 m 200 472 b 256 528 200 503 225 528 b 281 522 265 528 273 526 b 306 528 288 526 297 528 b 361 472 336 528 361 503 b 306 417 361 442 336 417 b 281 423 297 417 288 419 b 256 417 273 419 265 417 b 200 472 225 417 200 442 m 250 611 b 306 667 250 642 275 667 b 331 661 315 667 323 665 b 356 667 338 665 347 667 b 411 611 386 667 411 642 b 356 556 411 581 386 556 b 331 562 347 556 338 558 b 306 556 323 558 315 556 b 250 611 275 556 250 581 m 300 750 b 356 806 300 781 325 806 b 381 800 365 806 373 803 b 406 806 388 803 397 806 b 461 750 436 806 461 781 b 406 694 461 719 436 694 b 381 700 397 694 388 697 b 356 694 373 697 365 694 b 300 750 325 694 300 719 m 0 750 b 56 806 0 781 25 806 b 81 800 65 806 73 803 b 106 806 88 803 97 806 b 131 800 115 806 123 803 b 156 806 138 803 147 806 b 181 800 165 806 173 803 b 206 806 188 803 197 806 b 261 750 236 806 261 781 b 206 694 261 719 236 694 b 181 700 197 694 188 697 b 156 694 173 697 165 694 b 131 700 147 694 138 697 b 106 694 123 697 115 694 b 81 700 97 694 88 697 b 56 694 73 697 65 694 b 0 750 25 694 0 719 m 350 889 b 406 944 350 919 375 944 b 431 938 415 944 423 942 b 456 944 438 942 447 944 b 511 889 486 944 511 919 b 456 833 511 858 486 833 b 431 839 447 833 438 835 b 406 833 423 835 415 833 b 350 889 375 833 350 858 m 0 889 b 56 944 0 919 25 944 b 81 938 65 944 73 942 b 106 944 88 942 97 944 b 131 938 115 944 123 942 b 156 944 138 942 147 944 b 181 938 165 944 173 942 b 206 944 188 942 197 944 b 261 889 236 944 261 919 b 206 833 261 858 236 833 b 181 839 197 833 188 835 b 156 833 173 835 165 833 b 131 839 147 833 138 835 b 106 833 123 835 115 833 b 81 839 97 833 88 835 b 56 833 73 835 65 833 b 0 889 25 833 0 858 "},"&":{"ha":600,"x_min":0,"x_max":0,"o":"m 400 56 b 456 111 400 86 425 111 b 481 105 465 111 473 109 b 506 111 488 109 497 111 b 561 56 536 111 561 86 b 506 0 561 25 536 0 b 481 6 497 0 488 2 b 456 0 473 2 465 0 b 400 56 425 0 400 25 m 100 56 b 156 111 100 86 125 111 b 181 105 165 111 173 109 b 206 111 188 109 197 111 b 231 105 215 111 223 109 b 256 111 238 109 247 111 b 281 105 265 111 273 109 b 306 111 288 109 297 111 b 361 56 336 111 361 86 b 306 0 361 25 336 0 b 281 6 297 0 288 2 b 256 0 273 2 265 0 b 231 6 247 0 238 2 b 206 0 223 2 215 0 b 181 6 197 0 188 2 b 156 0 173 2 165 0 b 100 56 125 0 100 25 m 300 194 b 356 250 300 225 325 250 b 381 244 365 250 373 248 b 406 250 388 248 397 250 b 461 194 436 250 461 225 b 406 139 461 164 436 139 b 381 145 397 139 388 141 b 356 139 373 141 365 139 b 300 194 325 139 300 164 m 0 194 b 56 250 0 225 25 250 b 81 244 65 250 73 248 b 106 250 88 248 97 250 b 161 194 136 250 161 225 b 106 139 161 164 136 139 b 81 145 97 139 88 141 b 56 139 73 141 65 139 b 0 194 25 139 0 164 m 200 333 b 256 389 200 364 225 389 b 281 383 265 389 273 387 b 306 389 288 387 297 389 b 356 357 327 389 347 376 b 406 389 365 376 384 389 b 431 383 415 389 423 387 b 456 389 438 387 447 389 b 511 333 486 389 511 364 b 456 278 511 303 486 278 b 431 284 447 278 438 280 b 406 278 423 280 415 278 b 356 309 384 278 365 291 b 306 278 347 291 327 278 b 281 284 297 278 288 280 b 256 278 273 280 265 278 b 200 333 225 278 200 303 m 0 333 b 56 389 0 364 25 389 b 81 383 65 389 73 387 b 106 389 88 387 97 389 b 161 333 136 389 161 364 b 106 278 161 303 136 278 b 81 284 97 278 88 280 b 56 278 73 280 65 278 b 0 333 25 278 0 303 m 400 472 b 456 528 400 503 425 528 b 481 522 465 528 473 526 b 506 528 488 526 497 528 b 561 472 536 528 561 503 b 506 417 561 442 536 417 b 481 423 497 417 488 419 b 456 417 473 419 465 417 b 400 472 425 417 400 442 m 100 472 b 156 528 100 503 125 528 b 181 522 165 528 173 526 b 206 528 188 526 197 528 b 261 472 236 528 261 503 b 206 417 261 442 236 417 b 181 423 197 417 188 419 b 156 417 173 419 165 417 b 100 472 125 417 100 442 m 50 611 b 106 667 50 642 75 667 b 131 661 115 667 123 665 b 156 667 138 665 147 667 b 181 661 165 667 173 665 b 206 667 188 665 197 667 b 231 661 215 667 223 665 b 256 667 238 665 247 667 b 311 611 286 667 311 642 b 256 556 311 581 286 556 b 231 562 247 556 238 558 b 206 556 223 558 215 556 b 181 562 197 556 188 558 b 156 556 173 558 165 556 b 131 562 147 556 138 558 b 106 556 123 558 115 556 b 50 611 75 556 50 581 m 200 750 b 256 806 200 781 225 806 b 281 800 265 806 273 803 b 306 806 288 803 297 806 b 361 750 336 806 361 781 b 306 694 361 719 336 694 b 281 700 297 694 288 697 b 256 694 273 697 265 694 b 200 750 225 694 200 719 m 0 750 b 56 806 0 781 25 806 b 81 800 65 806 73 803 b 106 806 88 803 97 806 b 161 750 136 806 161 781 b 106 694 161 719 136 694 b 81 700 97 694 88 697 b 56 694 73 697 65 694 b 0 750 25 694 0 719 m 50 889 b 106 944 50 919 75 944 b 131 938 115 944 123 942 b 156 944 138 942 147 944 b 181 938 165 944 173 942 b 206 944 188 942 197 944 b 231 938 215 944 223 942 b 256 944 238 942 247 944 b 311 889 286 944 311 919 b 256 833 311 858 286 833 b 231 839 247 833 238 835 b 206 833 223 835 215 833 b 181 839 197 833 188 835 b 156 833 173 835 165 833 b 131 839 147 833 138 835 b 106 833 123 835 115 833 b 50 889 75 833 50 858 "},"'":{"ha":600,"x_min":0,"x_max":0,"o":"m 200 750 b 256 806 200 781 225 806 b 281 800 265 806 273 803 b 306 806 288 803 297 806 b 361 750 336 806 361 781 b 306 694 361 719 336 694 b 281 700 297 694 288 697 b 256 694 273 697 265 694 b 200 750 225 694 200 719 m 250 889 b 306 944 250 919 275 944 b 331 938 315 944 323 942 b 356 944 338 942 347 944 b 411 889 386 944 411 919 b 356 833 411 858 386 833 b 331 839 347 833 338 835 b 306 833 323 835 315 833 b 250 889 275 833 250 858 "},"(":{"ha":600,"x_min":0,"x_max":0,"o":"m 300 56 b 356 111 300 86 325 111 b 381 105 365 111 373 109 b 406 111 388 109 397 111 b 461 56 436 111 461 86 b 406 0 461 25 436 0 b 381 6 397 0 388 2 b 356 0 373 2 365 0 b 300 56 325 0 300 25 m 250 194 b 306 250 250 225 275 250 b 331 244 315 250 323 248 b 356 250 338 248 347 250 b 411 194 386 250 411 225 b 356 139 411 164 386 139 b 331 145 347 139 338 141 b 306 139 323 141 315 139 b 250 194 275 139 250 164 m 200 333 b 256 389 200 364 225 389 b 281 383 265 389 273 387 b 306 389 288 387 297 389 b 361 333 336 389 361 364 b 306 278 361 303 336 278 b 281 284 297 278 288 280 b 256 278 273 280 265 278 b 200 333 225 278 200 303 m 200 472 b 256 528 200 503 225 528 b 281 522 265 528 273 526 b 306 528 288 526 297 528 b 361 472 336 528 361 503 b 306 417 361 442 336 417 b 281 423 297 417 288 419 b 256 417 273 419 265 417 b 200 472 225 417 200 442 m 200 611 b 256 667 200 642 225 667 b 281 661 265 667 273 665 b 306 667 288 665 297 667 b 361 611 336 667 361 642 b 306 556 361 581 336 556 b 281 562 297 556 288 558 b 256 556 273 558 265 556 b 200 611 225 556 200 581 m 250 750 b 306 806 250 781 275 806 b 331 800 315 806 323 803 b 356 806 338 803 347 806 b 411 750 386 806 411 781 b 356 694 411 719 386 694 b 331 700 347 694 338 697 b 306 694 323 697 315 694 b 250 750 275 694 250 719 m 300 889 b 356 944 300 919 325 944 b 381 938 365 944 373 942 b 406 944 388 942 397 944 b 461 889 436 944 461 919 b 406 833 461 858 436 833 b 381 839 397 833 388 835 b 356 833 373 835 365 833 b 300 889 325 833 300 858 "},")":{"ha":600,"x_min":0,"x_max":0,"o":"m 100 56 b 156 111 100 86 125 111 b 181 105 165 111 173 109 b 206 111 188 109 197 111 b 261 56 236 111 261 86 b 206 0 261 25 236 0 b 181 6 197 0 188 2 b 156 0 173 2 165 0 b 100 56 125 0 100 25 m 150 194 b 206 250 150 225 175 250 b 231 244 215 250 223 248 b 256 250 238 248 247 250 b 311 194 286 250 311 225 b 256 139 311 164 286 139 b 231 145 247 139 238 141 b 206 139 223 141 215 139 b 150 194 175 139 150 164 m 200 333 b 256 389 200 364 225 389 b 281 383 265 389 273 387 b 306 389 288 387 297 389 b 361 333 336 389 361 364 b 306 278 361 303 336 278 b 281 284 297 278 288 280 b 256 278 273 280 265 278 b 200 333 225 278 200 303 m 200 472 b 256 528 200 503 225 528 b 281 522 265 528 273 526 b 306 528 288 526 297 528 b 361 472 336 528 361 503 b 306 417 361 442 336 417 b 281 423 297 417 288 419 b 256 417 273 419 265 417 b 200 472 225 417 200 442 m 200 611 b 256 667 200 642 225 667 b 281 661 265 667 273 665 b 306 667 288 665 297 667 b 361 611 336 667 361 642 b 306 556 361 581 336 556 b 281 562 297 556 288 558 b 256 556 273 558 265 556 b 200 611 225 556 200 581 m 150 750 b 206 806 150 781 175 806 b 231 800 215 806 223 803 b 256 806 238 803 247 806 b 311 750 286 806 311 781 b 256 694 311 719 286 694 b 231 700 247 694 238 697 b 206 694 223 697 215 694 b 150 750 175 694 150 719 m 100 889 b 156 944 100 919 125 944 b 181 938 165 944 173 942 b 206 944 188 942 197 944 b 261 889 236 944 261 919 b 206 833 261 858 236 833 b 181 839 197 833 188 835 b 156 833 173 835 165 833 b 100 889 125 833 100 858 "},"*":{"ha":600,"x_min":0,"x_max":0,"o":"m 300 194 b 356 250 300 225 325 250 b 381 244 365 250 373 248 b 406 250 388 248 397 250 b 461 194 436 250 461 225 b 406 139 461 164 436 139 b 381 145 397 139 388 141 b 356 139 373 141 365 139 b 300 194 325 139 300 164 m 100 194 b 156 250 100 225 125 250 b 181 244 165 250 173 248 b 206 250 188 248 197 250 b 261 194 236 250 261 225 b 206 139 261 164 236 139 b 181 145 197 139 188 141 b 156 139 173 141 165 139 b 100 194 125 139 100 164 m 150 333 b 206 389 150 364 175 389 b 231 383 215 389 223 387 b 256 389 238 387 247 389 b 281 383 265 389 273 387 b 306 389 288 387 297 389 b 331 383 315 389 323 387 b 356 389 338 387 347 389 b 411 333 386 389 411 364 b 356 278 411 303 386 278 b 331 284 347 278 338 280 b 306 278 323 280 315 278 b 281 284 297 278 288 280 b 256 278 273 280 265 278 b 231 284 247 278 238 280 b 206 278 223 280 215 278 b 150 333 175 278 150 303 m 0 472 b 56 528 0 503 25 528 b 81 522 65 528 73 526 b 106 528 88 526 97 528 b 131 522 115 528 123 526 b 156 528 138 526 147 528 b 181 522 165 528 173 526 b 206 528 188 526 197 528 b 231 522 215 528 223 526 b 256 528 238 526 247 528 b 281 522 265 528 273 526 b 306 528 288 526 297 528 b 331 522 315 528 323 526 b 356 528 338 526 347 528 b 381 522 365 528 373 526 b 406 528 388 526 397 528 b 431 522 415 528 423 526 b 456 528 438 526 447 528 b 481 522 465 528 473 526 b 506 528 488 526 497 528 b 561 472 536 528 561 503 b 506 417 561 442 536 417 b 481 423 497 417 488 419 b 456 417 473 419 465 417 b 431 423 447 417 438 419 b 406 417 423 419 415 417 b 381 423 397 417 388 419 b 356 417 373 419 365 417 b 331 423 347 417 338 419 b 306 417 323 419 315 417 b 281 423 297 417 288 419 b 256 417 273 419 265 417 b 231 423 247 417 238 419 b 206 417 223 419 215 417 b 181 423 197 417 188 419 b 156 417 173 419 165 417 b 131 423 147 417 138 419 b 106 417 123 419 115 417 b 81 423 97 417 88 419 b 56 417 73 419 65 417 b 0 472 25 417 0 442 m 150 611 b 206 667 150 642 175 667 b 231 661 215 667 223 665 b 256 667 238 665 247 667 b 281 661 265 667 273 665 b 306 667 288 665 297 667 b 331 661 315 667 323 665 b 356 667 338 665 347 667 b 411 611 386 667 411 642 b 356 556 411 581 386 556 b 331 562 347 556 338 558 b 306 556 323 558 315 556 b 281 562 297 556 288 558 b 256 556 273 558 265 556 b 231 562 247 556 238 558 b 206 556 223 558 215 556 b 150 611 175 556 150 581 m 300 750 b 356 806 300 781 325 806 b 381 800 365 806 373 803 b 406 806 388 803 397 806 b 461 750 436 806 461 781 b 406 694 461 719 436 694 b 381 700 397 694 388 697 b 356 694 373 697 365 694 b 300 750 325 694 300 719 m 100 750 b 156 806 100 781 125 806 b 181 800 165 806 173 803 b 206 806 188 803 197 806 b 261 750 236 806 261 781 b 206 694 261 719 236 694 b 181 700 197 694 188 697 b 156 694 173 697 165 694 b 100 750 125 694 100 719 "},"+":{"ha":600,"x_min":0,"x_max":0,"o":"m 200 194 b 256 250 200 225 225 250 b 281 244 265 250 273 248 b 306 250 288 248 297 250 b 361 194 336 250 361 225 b 306 139 361 164 336 139 b 281 145 297 139 288 141 b 256 139 273 141 265 139 b 200 194 225 139 200 164 m 200 333 b 256 389 200 364 225 389 b 281 383 265 389 273 387 b 306 389 288 387 297 389 b 361 333 336 389 361 364 b 306 278 361 303 336 278 b 281 284 297 278 288 280 b 256 278 273 280 265 278 b 200 333 225 278 200 303 m 0 472 b 56 528 0 503 25 528 b 81 522 65 528 73 526 b 106 528 88 526 97 528 b 131 522 115 528 123 526 b 156 528 138 526 147 528 b 181 522 165 528 173 526 b 206 528 188 526 197 528 b 231 522 215 528 223 526 b 256 528 238 526 247 528 b 281 522 265 528 273 526 b 306 528 288 526 297 528 b 331 522 315 528 323 526 b 356 528 338 526 347 528 b 381 522 365 528 373 526 b 406 528 388 526 397 528 b 431 522 415 528 423 526 b 456 528 438 526 447 528 b 481 522 465 528 473 526 b 506 528 488 526 497 528 b 561 472 536 528 561 503 b 506 417 561 442 536 417 b 481 423 497 417 488 419 b 456 417 473 419 465 417 b 431 423 447 417 438 419 b 406 417 423 419 415 417 b 381 423 397 417 388 419 b 356 417 373 419 365 417 b 331 423 347 417 338 419 b 306 417 323 419 315 417 b 281 423 297 417 288 419 b 256 417 273 419 265 417 b 231 423 247 417 238 419 b 206 417 223 419 215 417 b 181 423 197 417 188 419 b 156 417 173 419 165 417 b 131 423 147 417 138 419 b 106 417 123 419 115 417 b 81 423 97 417 88 419 b 56 417 73 419 65 417 b 0 472 25 417 0 442 m 200 611 b 256 667 200 642 225 667 b 281 661 265 667 273 665 b 306 667 288 665 297 667 b 361 611 336 667 361 642 b 306 556 361 581 336 556 b 281 562 297 556 288 558 b 256 556 273 558 265 556 b 200 611 225 556 200 581 m 200 750 b 256 806 200 781 225 806 b 281 800 265 806 273 803 b 306 806 288 803 297 806 b 361 750 336 806 361 781 b 306 694 361 719 336 694 b 281 700 297 694 288 697 b 256 694 273 697 265 694 b 200 750 225 694 200 719 "},",":{"ha":600,"x_min":0,"x_max":0,"o":"m 200 -222 b 256 -167 200 -192 225 -167 b 281 -173 265 -167 273 -169 b 306 -167 288 -169 297 -167 b 361 -222 336 -167 361 -192 b 306 -278 361 -253 336 -278 b 281 -272 297 -278 288 -276 b 256 -278 273 -276 265 -278 b 200 -222 225 -278 200 -253 m 250 -83 b 306 -28 250 -53 275 -28 b 331 -34 315 -28 323 -30 b 356 -28 338 -30 347 -28 b 411 -83 386 -28 411 -53 b 356 -139 411 -114 386 -139 b 331 -133 347 -139 338 -137 b 306 -139 323 -137 315 -139 b 250 -83 275 -139 250 -114 m 150 56 b 206 111 150 86 175 111 b 231 105 215 111 223 109 b 256 111 238 109 247 111 b 281 105 265 111 273 109 b 306 111 288 109 297 111 b 331 105 315 111 323 109 b 356 111 338 109 347 111 b 411 56 386 111 411 86 b 356 0 411 25 386 0 b 331 6 347 0 338 2 b 306 0 323 2 315 0 b 281 6 297 0 288 2 b 256 0 273 2 265 0 b 231 6 247 0 238 2 b 206 0 223 2 215 0 b 150 56 175 0 150 25 m 150 194 b 206 250 150 225 175 250 b 231 244 215 250 223 248 b 256 250 238 248 247 250 b 281 244 265 250 273 248 b 306 250 288 248 297 250 b 331 244 315 250 323 248 b 356 250 338 248 347 250 b 411 194 386 250 411 225 b 356 139 411 164 386 139 b 331 145 347 139 338 141 b 306 139 323 141 315 139 b 281 145 297 139 288 141 b 256 139 273 141 265 139 b 231 145 247 139 238 141 b 206 139 223 141 215 139 b 150 194 175 139 150 164 "},"-":{"ha":600,"x_min":0,"x_max":0,"o":"m 0 472 b 56 528 0 503 25 528 b 81 522 65 528 73 526 b 106 528 88 526 97 528 b 131 522 115 528 123 526 b 156 528 138 526 147 528 b 181 522 165 528 173 526 b 206 528 188 526 197 528 b 231 522 215 528 223 526 b 256 528 238 526 247 528 b 281 522 265 528 273 526 b 306 528 288 526 297 528 b 331 522 315 528 323 526 b 356 528 338 526 347 528 b 381 522 365 528 373 526 b 406 528 388 526 397 528 b 431 522 415 528 423 526 b 456 528 438 526 447 528 b 481 522 465 528 473 526 b 506 528 488 526 497 528 b 561 472 536 528 561 503 b 506 417 561 442 536 417 b 481 423 497 417 488 419 b 456 417 473 419 465 417 b 431 423 447 417 438 419 b 406 417 423 419 415 417 b 381 423 397 417 388 419 b 356 417 373 419 365 417 b 331 423 347 417 338 419 b 306 417 323 419 315 417 b 281 423 297 417 288 419 b 256 417 273 419 265 417 b 231 423 247 417 238 419 b 206 417 223 419 215 417 b 181 423 197 417 188 419 b 156 417 173 419 165 417 b 131 423 147 417 138 419 b 106 417 123 419 115 417 b 81 423 97 417 88 419 b 56 417 73 419 65 417 b 0 472 25 417 0 442 "},".":{"ha":600,"x_min":0,"x_max":0,"o":"m 100 56 b 156 111 100 86 125 111 b 181 105 165 111 173 109 b 206 111 188 109 197 111 b 231 105 215 111 223 109 b 256 111 238 109 247 111 b 281 105 265 111 273 109 b 306 111 288 109 297 111 b 361 56 336 111 361 86 b 306 0 361 25 336 0 b 281 6 297 0 288 2 b 256 0 273 2 265 0 b 231 6 247 0 238 2 b 206 0 223 2 215 0 b 181 6 197 0 188 2 b 156 0 173 2 165 0 b 100 56 125 0 100 25 m 100 194 b 156 250 100 225 125 250 b 181 244 165 250 173 248 b 206 250 188 248 197 250 b 231 244 215 250 223 248 b 256 250 238 248 247 250 b 281 244 265 250 273 248 b 306 250 288 248 297 250 b 361 194 336 250 361 225 b 306 139 361 164 336 139 b 281 145 297 139 288 141 b 256 139 273 141 265 139 b 231 145 247 139 238 141 b 206 139 223 141 215 139 b 181 145 197 139 188 141 b 156 139 173 141 165 139 b 100 194 125 139 100 164 "},"/":{"ha":600,"x_min":0,"x_max":0,"o":"m 50 56 b 106 111 50 86 75 111 b 131 105 115 111 123 109 b 156 111 138 109 147 111 b 211 56 186 111 211 86 b 156 0 211 25 186 0 b 131 6 147 0 138 2 b 106 0 123 2 115 0 b 50 56 75 0 50 25 m 100 194 b 156 250 100 225 125 250 b 181 244 165 250 173 248 b 206 250 188 248 197 250 b 261 194 236 250 261 225 b 206 139 261 164 236 139 b 181 145 197 139 188 141 b 156 139 173 141 165 139 b 100 194 125 139 100 164 m 150 333 b 206 389 150 364 175 389 b 231 383 215 389 223 387 b 256 389 238 387 247 389 b 311 333 286 389 311 364 b 256 278 311 303 286 278 b 231 284 247 278 238 280 b 206 278 223 280 215 278 b 150 333 175 278 150 303 m 200 472 b 256 528 200 503 225 528 b 281 522 265 528 273 526 b 306 528 288 526 297 528 b 361 472 336 528 361 503 b 306 417 361 442 336 417 b 281 423 297 417 288 419 b 256 417 273 419 265 417 b 200 472 225 417 200 442 m 250 611 b 306 667 250 642 275 667 b 331 661 315 667 323 665 b 356 667 338 665 347 667 b 411 611 386 667 411 642 b 356 556 411 581 386 556 b 331 562 347 556 338 558 b 306 556 323 558 315 556 b 250 611 275 556 250 581 m 300 750 b 356 806 300 781 325 806 b 381 800 365 806 373 803 b 406 806 388 803 397 806 b 461 750 436 806 461 781 b 406 694 461 719 436 694 b 381 700 397 694 388 697 b 356 694 373 697 365 694 b 300 750 325 694 300 719 m 350 889 b 406 944 350 919 375 944 b 431 938 415 944 423 942 b 456 944 438 942 447 944 b 511 889 486 944 511 919 b 456 833 511 858 486 833 b 431 839 447 833 438 835 b 406 833 423 835 415 833 b 350 889 375 833 350 858 "},":":{"ha":600,"x_min":0,"x_max":0,"o":"m 100 56 b 156 111 100 86 125 111 b 181 105 165 111 173 109 b 206 111 188 109 197 111 b 231 105 215 111 223 109 b 256 111 238 109 247 111 b 281 105 265 111 273 109 b 306 111 288 109 297 111 b 361 56 336 111 361 86 b 306 0 361 25 336 0 b 281 6 297 0 288 2 b 256 0 273 2 265 0 b 231 6 247 0 238 2 b 206 0 223 2 215 0 b 181 6 197 0 188 2 b 156 0 173 2 165 0 b 100 56 125 0 100 25 m 100 194 b 156 250 100 225 125 250 b 181 244 165 250 173 248 b 206 250 188 248 197 250 b 231 244 215 250 223 248 b 256 250 238 248 247 250 b 281 244 265 250 273 248 b 306 250 288 248 297 250 b 361 194 336 250 361 225 b 306 139 361 164 336 139 b 281 145 297 139 288 141 b 256 139 273 141 265 139 b 231 145 247 139 238 141 b 206 139 223 141 215 139 b 181 145 197 139 188 141 b 156 139 173 141 165 139 b 100 194 125 139 100 164 m 100 472 b 156 528 100 503 125 528 b 181 522 165 528 173 526 b 206 528 188 526 197 528 b 231 522 215 528 223 526 b 256 528 238 526 247 528 b 281 522 265 528 273 526 b 306 528 288 526 297 528 b 361 472 336 528 361 503 b 306 417 361 442 336 417 b 281 423 297 417 288 419 b 256 417 273 419 265 417 b 231 423 247 417 238 419 b 206 417 223 419 215 417 b 181 423 197 417 188 419 b 156 417 173 419 165 417 b 100 472 125 417 100 442 m 100 611 b 156 667 100 642 125 667 b 181 661 165 667 173 665 b 206 667 188 665 197 667 b 231 661 215 667 223 665 b 256 667 238 665 247 667 b 281 661 265 667 273 665 b 306 667 288 665 297 667 b 361 611 336 667 361 642 b 306 556 361 581 336 556 b 281 562 297 556 288 558 b 256 556 273 558 265 556 b 231 562 247 556 238 558 b 206 556 223 558 215 556 b 181 562 197 556 188 558 b 156 556 173 558 165 556 b 100 611 125 556 100 581 "},";":{"ha":600,"x_min":0,"x_max":0,"o":"m 100 -222 b 156 -167 100 -192 125 -167 b 181 -173 165 -167 173 -169 b 206 -167 188 -169 197 -167 b 261 -222 236 -167 261 -192 b 206 -278 261 -253 236 -278 b 181 -272 197 -278 188 -276 b 156 -278 173 -276 165 -278 b 100 -222 125 -278 100 -253 m 200 -83 b 256 -28 200 -53 225 -28 b 281 -34 265 -28 273 -30 b 306 -28 288 -30 297 -28 b 361 -83 336 -28 361 -53 b 306 -139 361 -114 336 -139 b 281 -133 297 -139 288 -137 b 256 -139 273 -137 265 -139 b 200 -83 225 -139 200 -114 m 100 56 b 156 111 100 86 125 111 b 181 105 165 111 173 109 b 206 111 188 109 197 111 b 231 105 215 111 223 109 b 256 111 238 109 247 111 b 281 105 265 111 273 109 b 306 111 288 109 297 111 b 361 56 336 111 361 86 b 306 0 361 25 336 0 b 281 6 297 0 288 2 b 256 0 273 2 265 0 b 231 6 247 0 238 2 b 206 0 223 2 215 0 b 181 6 197 0 188 2 b 156 0 173 2 165 0 b 100 56 125 0 100 25 m 100 194 b 156 250 100 225 125 250 b 181 244 165 250 173 248 b 206 250 188 248 197 250 b 231 244 215 250 223 248 b 256 250 238 248 247 250 b 281 244 265 250 273 248 b 306 250 288 248 297 250 b 361 194 336 250 361 225 b 306 139 361 164 336 139 b 281 145 297 139 288 141 b 256 139 273 141 265 139 b 231 145 247 139 238 141 b 206 139 223 141 215 139 b 181 145 197 139 188 141 b 156 139 173 141 165 139 b 100 194 125 139 100 164 m 100 472 b 156 528 100 503 125 528 b 181 522 165 528 173 526 b 206 528 188 526 197 528 b 231 522 215 528 223 526 b 256 528 238 526 247 528 b 281 522 265 528 273 526 b 306 528 288 526 297 528 b 361 472 336 528 361 503 b 306 417 361 442 336 417 b 281 423 297 417 288 419 b 256 417 273 419 265 417 b 231 423 247 417 238 419 b 206 417 223 419 215 417 b 181 423 197 417 188 419 b 156 417 173 419 165 417 b 100 472 125 417 100 442 m 100 611 b 156 667 100 642 125 667 b 181 661 165 667 173 665 b 206 667 188 665 197 667 b 231 661 215 667 223 665 b 256 667 238 665 247 667 b 281 661 265 667 273 665 b 306 667 288 665 297 667 b 361 611 336 667 361 642 b 306 556 361 581 336 556 b 281 562 297 556 288 558 b 256 556 273 558 265 556 b 231 562 247 556 238 558 b 206 556 223 558 215 556 b 181 562 197 556 188 558 b 156 556 173 558 165 556 b 100 611 125 556 100 581 "},"<":{"ha":600,"x_min":0,"x_max":0,"o":"m 300 56 b 356 111 300 86 325 111 b 381 105 365 111 373 109 b 406 111 388 109 397 111 b 461 56 436 111 461 86 b 406 0 461 25 436 0 b 381 6 397 0 388 2 b 356 0 373 2 365 0 b 300 56 325 0 300 25 m 200 194 b 256 250 200 225 225 250 b 281 244 265 250 273 248 b 306 250 288 248 297 250 b 361 194 336 250 361 225 b 306 139 361 164 336 139 b 281 145 297 139 288 141 b 256 139 273 141 265 139 b 200 194 225 139 200 164 m 100 333 b 156 389 100 364 125 389 b 181 383 165 389 173 387 b 206 389 188 387 197 389 b 261 333 236 389 261 364 b 206 278 261 303 236 278 b 181 284 197 278 188 280 b 156 278 173 280 165 278 b 100 333 125 278 100 303 m 0 472 b 56 528 0 503 25 528 b 81 522 65 528 73 526 b 106 528 88 526 97 528 b 161 472 136 528 161 503 b 106 417 161 442 136 417 b 81 423 97 417 88 419 b 56 417 73 419 65 417 b 0 472 25 417 0 442 m 100 611 b 156 667 100 642 125 667 b 181 661 165 667 173 665 b 206 667 188 665 197 667 b 261 611 236 667 261 642 b 206 556 261 581 236 556 b 181 562 197 556 188 558 b 156 556 173 558 165 556 b 100 611 125 556 100 581 m 200 750 b 256 806 200 781 225 806 b 281 800 265 806 273 803 b 306 806 288 803 297 806 b 361 750 336 806 361 781 b 306 694 361 719 336 694 b 281 700 297 694 288 697 b 256 694 273 697 265 694 b 200 750 225 694 200 719 m 300 889 b 356 944 300 919 325 944 b 381 938 365 944 373 942 b 406 944 388 942 397 944 b 461 889 436 944 461 919 b 406 833 461 858 436 833 b 381 839 397 833 388 835 b 356 833 373 835 365 833 b 300 889 325 833 300 858 "},"=":{"ha":600,"x_min":0,"x_max":0,"o":"m 0 333 b 56 389 0 364 25 389 b 81 383 65 389 73 387 b 106 389 88 387 97 389 b 131 383 115 389 123 387 b 156 389 138 387 147 389 b 181 383 165 389 173 387 b 206 389 188 387 197 389 b 231 383 215 389 223 387 b 256 389 238 387 247 389 b 281 383 265 389 273 387 b 306 389 288 387 297 389 b 331 383 315 389 323 387 b 356 389 338 387 347 389 b 381 383 365 389 373 387 b 406 389 388 387 397 389 b 431 383 415 389 423 387 b 456 389 438 387 447 389 b 481 383 465 389 473 387 b 506 389 488 387 497 389 b 561 333 536 389 561 364 b 506 278 561 303 536 278 b 481 284 497 278 488 280 b 456 278 473 280 465 278 b 431 284 447 278 438 280 b 406 278 423 280 415 278 b 381 284 397 278 388 280 b 356 278 373 280 365 278 b 331 284 347 278 338 280 b 306 278 323 280 315 278 b 281 284 297 278 288 280 b 256 278 273 280 265 278 b 231 284 247 278 238 280 b 206 278 223 280 215 278 b 181 284 197 278 188 280 b 156 278 173 280 165 278 b 131 284 147 278 138 280 b 106 278 123 280 115 278 b 81 284 97 278 88 280 b 56 278 73 280 65 278 b 0 333 25 278 0 303 m 0 611 b 56 667 0 642 25 667 b 81 661 65 667 73 665 b 106 667 88 665 97 667 b 131 661 115 667 123 665 b 156 667 138 665 147 667 b 181 661 165 667 173 665 b 206 667 188 665 197 667 b 231 661 215 667 223 665 b 256 667 238 665 247 667 b 281 661 265 667 273 665 b 306 667 288 665 297 667 b 331 661 315 667 323 665 b 356 667 338 665 347 667 b 381 661 365 667 373 665 b 406 667 388 665 397 667 b 431 661 415 667 423 665 b 456 667 438 665 447 667 b 481 661 465 667 473 665 b 506 667 488 665 497 667 b 561 611 536 667 561 642 b 506 556 561 581 536 556 b 481 562 497 556 488 558 b 456 556 473 558 465 556 b 431 562 447 556 438 558 b 406 556 423 558 415 556 b 381 562 397 556 388 558 b 356 556 373 558 365 556 b 331 562 347 556 338 558 b 306 556 323 558 315 556 b 281 562 297 556 288 558 b 256 556 273 558 265 556 b 231 562 247 556 238 558 b 206 556 223 558 215 556 b 181 562 197 556 188 558 b 156 556 173 558 165 556 b 131 562 147 556 138 558 b 106 556 123 558 115 556 b 81 562 97 556 88 558 b 56 556 73 558 65 556 b 0 611 25 556 0 581 "},">":{"ha":600,"x_min":0,"x_max":0,"o":"m 100 56 b 156 111 100 86 125 111 b 181 105 165 111 173 109 b 206 111 188 109 197 111 b 261 56 236 111 261 86 b 206 0 261 25 236 0 b 181 6 197 0 188 2 b 156 0 173 2 165 0 b 100 56 125 0 100 25 m 200 194 b 256 250 200 225 225 250 b 281 244 265 250 273 248 b 306 250 288 248 297 250 b 361 194 336 250 361 225 b 306 139 361 164 336 139 b 281 145 297 139 288 141 b 256 139 273 141 265 139 b 200 194 225 139 200 164 m 300 333 b 356 389 300 364 325 389 b 381 383 365 389 373 387 b 406 389 388 387 397 389 b 461 333 436 389 461 364 b 406 278 461 303 436 278 b 381 284 397 278 388 280 b 356 278 373 280 365 278 b 300 333 325 278 300 303 m 400 472 b 456 528 400 503 425 528 b 481 522 465 528 473 526 b 506 528 488 526 497 528 b 561 472 536 528 561 503 b 506 417 561 442 536 417 b 481 423 497 417 488 419 b 456 417 473 419 465 417 b 400 472 425 417 400 442 m 300 611 b 356 667 300 642 325 667 b 381 661 365 667 373 665 b 406 667 388 665 397 667 b 461 611 436 667 461 642 b 406 556 461 581 436 556 b 381 562 397 556 388 558 b 356 556 373 558 365 556 b 300 611 325 556 300 581 m 200 750 b 256 806 200 781 225 806 b 281 800 265 806 273 803 b 306 806 288 803 297 806 b 361 750 336 806 361 781 b 306 694 361 719 336 694 b 281 700 297 694 288 697 b 256 694 273 697 265 694 b 200 750 225 694 200 719 m 100 889 b 156 944 100 919 125 944 b 181 938 165 944 173 942 b 206 944 188 942 197 944 b 261 889 236 944 261 919 b 206 833 261 858 236 833 b 181 839 197 833 188 835 b 156 833 173 835 165 833 b 100 889 125 833 100 858 "},"?":{"ha":600,"x_min":0,"x_max":0,"o":"m 200 56 b 256 111 200 86 225 111 b 281 105 265 111 273 109 b 306 111 288 109 297 111 b 361 56 336 111 361 86 b 306 0 361 25 336 0 b 281 6 297 0 288 2 b 256 0 273 2 265 0 b 200 56 225 0 200 25 m 200 333 b 256 389 200 364 225 389 b 281 383 265 389 273 387 b 306 389 288 387 297 389 b 361 333 336 389 361 364 b 306 278 361 303 336 278 b 281 284 297 278 288 280 b 256 278 273 280 265 278 b 200 333 225 278 200 303 m 300 472 b 356 528 300 503 325 528 b 381 522 365 528 373 526 b 406 528 388 526 397 528 b 461 472 436 528 461 503 b 406 417 461 442 436 417 b 381 423 397 417 388 419 b 356 417 373 419 365 417 b 300 472 325 417 300 442 m 400 611 b 456 667 400 642 425 667 b 481 661 465 667 473 665 b 506 667 488 665 497 667 b 561 611 536 667 561 642 b 506 556 561 581 536 556 b 481 562 497 556 488 558 b 456 556 473 558 465 556 b 400 611 425 556 400 581 m 400 750 b 456 806 400 781 425 806 b 481 800 465 806 473 803 b 506 806 488 803 497 806 b 561 750 536 806 561 781 b 506 694 561 719 536 694 b 481 700 497 694 488 697 b 456 694 473 697 465 694 b 400 750 425 694 400 719 m 0 750 b 56 806 0 781 25 806 b 81 800 65 806 73 803 b 106 806 88 803 97 806 b 161 750 136 806 161 781 b 106 694 161 719 136 694 b 81 700 97 694 88 697 b 56 694 73 697 65 694 b 0 750 25 694 0 719 m 50 889 b 106 944 50 919 75 944 b 131 938 115 944 123 942 b 156 944 138 942 147 944 b 181 938 165 944 173 942 b 206 944 188 942 197 944 b 231 938 215 944 223 942 b 256 944 238 942 247 944 b 281 938 265 944 273 942 b 306 944 288 942 297 944 b 331 938 315 944 323 942 b 356 944 338 942 347 944 b 381 938 365 944 373 942 b 406 944 388 942 397 944 b 431 938 415 944 423 942 b 456 944 438 942 447 944 b 511 889 486 944 511 919 b 456 833 511 858 486 833 b 431 839 447 833 438 835 b 406 833 423 835 415 833 b 381 839 397 833 388 835 b 356 833 373 835 365 833 b 331 839 347 833 338 835 b 306 833 323 835 315 833 b 281 839 297 833 288 835 b 256 833 273 835 265 833 b 231 839 247 833 238 835 b 206 833 223 835 215 833 b 181 839 197 833 188 835 b 156 833 173 835 165 833 b 131 839 147 833 138 835 b 106 833 123 835 115 833 b 50 889 75 833 50 858 "},"@":{"ha":600,"x_min":0,"x_max":0,"o":"m 100 56 b 156 111 100 86 125 111 b 181 105 165 111 173 109 b 206 111 188 109 197 111 b 231 105 215 111 223 109 b 256 111 238 109 247 111 b 281 105 265 111 273 109 b 306 111 288 109 297 111 b 331 105 315 111 323 109 b 356 111 338 109 347 111 b 381 105 365 111 373 109 b 406 111 388 109 397 111 b 431 105 415 111 423 109 b 456 111 438 109 447 111 b 481 105 465 111 473 109 b 506 111 488 109 497 111 b 561 56 536 111 561 86 b 506 0 561 25 536 0 b 481 6 497 0 488 2 b 456 0 473 2 465 0 b 431 6 447 0 438 2 b 406 0 423 2 415 0 b 381 6 397 0 388 2 b 356 0 373 2 365 0 b 331 6 347 0 338 2 b 306 0 323 2 315 0 b 281 6 297 0 288 2 b 256 0 273 2 265 0 b 231 6 247 0 238 2 b 206 0 223 2 215 0 b 181 6 197 0 188 2 b 156 0 173 2 165 0 b 100 56 125 0 100 25 m 0 194 b 56 250 0 225 25 250 b 81 244 65 250 73 248 b 106 250 88 248 97 250 b 161 194 136 250 161 225 b 106 139 161 164 136 139 b 81 145 97 139 88 141 b 56 139 73 141 65 139 b 0 194 25 139 0 164 m 200 333 b 256 389 200 364 225 389 b 281 383 265 389 273 387 b 306 389 288 387 297 389 b 331 383 315 389 323 387 b 356 389 338 387 347 389 b 381 383 365 389 373 387 b 406 389 388 387 397 389 b 431 383 415 389 423 387 b 456 389 438 387 447 389 b 481 383 465 389 473 387 b 506 389 488 387 497 389 b 561 333 536 389 561 364 b 506 278 561 303 536 278 b 481 284 497 278 488 280 b 456 278 473 280 465 278 b 431 284 447 278 438 280 b 406 278 423 280 415 278 b 381 284 397 278 388 280 b 356 278 373 280 365 278 b 331 284 347 278 338 280 b 306 278 323 280 315 278 b 281 284 297 278 288 280 b 256 278 273 280 265 278 b 200 333 225 278 200 303 m 0 333 b 56 389 0 364 25 389 b 81 383 65 389 73 387 b 106 389 88 387 97 389 b 161 333 136 389 161 364 b 106 278 161 303 136 278 b 81 284 97 278 88 280 b 56 278 73 280 65 278 b 0 333 25 278 0 303 m 400 472 b 456 528 400 503 425 528 b 481 522 465 528 473 526 b 506 528 488 526 497 528 b 561 472 536 528 561 503 b 506 417 561 442 536 417 b 481 423 497 417 488 419 b 456 417 473 419 465 417 b 400 472 425 417 400 442 m 0 472 b 56 528 0 503 25 528 b 81 522 65 528 73 526 b 106 528 88 526 97 528 b 156 496 127 528 147 515 b 206 528 165 515 184 528 b 231 522 215 528 223 526 b 256 528 238 526 247 528 b 311 472 286 528 311 503 b 256 417 311 442 286 417 b 231 423 247 417 238 419 b 206 417 223 419 215 417 b 156 448 184 417 165 430 b 106 417 147 430 127 417 b 81 423 97 417 88 419 b 56 417 73 419 65 417 b 0 472 25 417 0 442 m 200 611 b 256 667 200 642 225 667 b 281 661 265 667 273 665 b 306 667 288 665 297 667 b 331 661 315 667 323 665 b 356 667 338 665 347 667 b 381 661 365 667 373 665 b 406 667 388 665 397 667 b 431 661 415 667 423 665 b 456 667 438 665 447 667 b 481 661 465 667 473 665 b 506 667 488 665 497 667 b 561 611 536 667 561 642 b 506 556 561 581 536 556 b 481 562 497 556 488 558 b 456 556 473 558 465 556 b 431 562 447 556 438 558 b 406 556 423 558 415 556 b 381 562 397 556 388 558 b 356 556 373 558 365 556 b 331 562 347 556 338 558 b 306 556 323 558 315 556 b 281 562 297 556 288 558 b 256 556 273 558 265 556 b 200 611 225 556 200 581 m 0 611 b 56 667 0 642 25 667 b 81 661 65 667 73 665 b 106 667 88 665 97 667 b 161 611 136 667 161 642 b 106 556 161 581 136 556 b 81 562 97 556 88 558 b 56 556 73 558 65 556 b 0 611 25 556 0 581 m 400 750 b 456 806 400 781 425 806 b 481 800 465 806 473 803 b 506 806 488 803 497 806 b 561 750 536 806 561 781 b 506 694 561 719 536 694 b 481 700 497 694 488 697 b 456 694 473 697 465 694 b 400 750 425 694 400 719 m 0 750 b 56 806 0 781 25 806 b 81 800 65 806 73 803 b 106 806 88 803 97 806 b 161 750 136 806 161 781 b 106 694 161 719 136 694 b 81 700 97 694 88 697 b 56 694 73 697 65 694 b 0 750 25 694 0 719 m 100 889 b 156 944 100 919 125 944 b 181 938 165 944 173 942 b 206 944 188 942 197 944 b 231 938 215 944 223 942 b 256 944 238 942 247 944 b 281 938 265 944 273 942 b 306 944 288 942 297 944 b 331 938 315 944 323 942 b 356 944 338 942 347 944 b 381 938 365 944 373 942 b 406 944 388 942 397 944 b 461 889 436 944 461 919 b 406 833 461 858 436 833 b 381 839 397 833 388 835 b 356 833 373 835 365 833 b 331 839 347 833 338 835 b 306 833 323 835 315 833 b 281 839 297 833 288 835 b 256 833 273 835 265 833 b 231 839 247 833 238 835 b 206 833 223 835 215 833 b 181 839 197 833 188 835 b 156 833 173 835 165 833 b 100 889 125 833 100 858 "},"A":{"ha":600,"x_min":0,"x_max":0,"o":"m 400 56 b 456 111 400 86 425 111 b 481 105 465 111 473 109 b 506 111 488 109 497 111 b 561 56 536 111 561 86 b 506 0 561 25 536 0 b 481 6 497 0 488 2 b 456 0 473 2 465 0 b 400 56 425 0 400 25 m 0 56 b 56 111 0 86 25 111 b 81 105 65 111 73 109 b 106 111 88 109 97 111 b 161 56 136 111 161 86 b 106 0 161 25 136 0 b 81 6 97 0 88 2 b 56 0 73 2 65 0 b 0 56 25 0 0 25 m 400 194 b 456 250 400 225 425 250 b 481 244 465 250 473 248 b 506 250 488 248 497 250 b 561 194 536 250 561 225 b 506 139 561 164 536 139 b 481 145 497 139 488 141 b 456 139 473 141 465 139 b 400 194 425 139 400 164 m 0 194 b 56 250 0 225 25 250 b 81 244 65 250 73 248 b 106 250 88 248 97 250 b 161 194 136 250 161 225 b 106 139 161 164 136 139 b 81 145 97 139 88 141 b 56 139 73 141 65 139 b 0 194 25 139 0 164 m 0 333 b 56 389 0 364 25 389 b 81 383 65 389 73 387 b 106 389 88 387 97 389 b 131 383 115 389 123 387 b 156 389 138 387 147 389 b 181 383 165 389 173 387 b 206 389 188 387 197 389 b 231 383 215 389 223 387 b 256 389 238 387 247 389 b 281 383 265 389 273 387 b 306 389 288 387 297 389 b 331 383 315 389 323 387 b 356 389 338 387 347 389 b 381 383 365 389 373 387 b 406 389 388 387 397 389 b 431 383 415 389 423 387 b 456 389 438 387 447 389 b 481 383 465 389 473 387 b 506 389 488 387 497 389 b 561 333 536 389 561 364 b 506 278 561 303 536 278 b 481 284 497 278 488 280 b 456 278 473 280 465 278 b 431 284 447 278 438 280 b 406 278 423 280 415 278 b 381 284 397 278 388 280 b 356 278 373 280 365 278 b 331 284 347 278 338 280 b 306 278 323 280 315 278 b 281 284 297 278 288 280 b 256 278 273 280 265 278 b 231 284 247 278 238 280 b 206 278 223 280 215 278 b 181 284 197 278 188 280 b 156 278 173 280 165 278 b 131 284 147 278 138 280 b 106 278 123 280 115 278 b 81 284 97 278 88 280 b 56 278 73 280 65 278 b 0 333 25 278 0 303 m 400 472 b 456 528 400 503 425 528 b 481 522 465 528 473 526 b 506 528 488 526 497 528 b 561 472 536 528 561 503 b 506 417 561 442 536 417 b 481 423 497 417 488 419 b 456 417 473 419 465 417 b 400 472 425 417 400 442 m 0 472 b 56 528 0 503 25 528 b 81 522 65 528 73 526 b 106 528 88 526 97 528 b 161 472 136 528 161 503 b 106 417 161 442 136 417 b 81 423 97 417 88 419 b 56 417 73 419 65 417 b 0 472 25 417 0 442 m 350 611 b 406 667 350 642 375 667 b 431 661 415 667 423 665 b 456 667 438 665 447 667 b 511 611 486 667 511 642 b 456 556 511 581 486 556 b 431 562 447 556 438 558 b 406 556 423 558 415 556 b 350 611 375 556 350 581 m 50 611 b 106 667 50 642 75 667 b 131 661 115 667 123 665 b 156 667 138 665 147 667 b 211 611 186 667 211 642 b 156 556 211 581 186 556 b 131 562 147 556 138 558 b 106 556 123 558 115 556 b 50 611 75 556 50 581 m 300 750 b 356 806 300 781 325 806 b 381 800 365 806 373 803 b 406 806 388 803 397 806 b 461 750 436 806 461 781 b 406 694 461 719 436 694 b 381 700 397 694 388 697 b 356 694 373 697 365 694 b 300 750 325 694 300 719 m 100 750 b 156 806 100 781 125 806 b 181 800 165 806 173 803 b 206 806 188 803 197 806 b 261 750 236 806 261 781 b 206 694 261 719 236 694 b 181 700 197 694 188 697 b 156 694 173 697 165 694 b 100 750 125 694 100 719 m 150 889 b 206 944 150 919 175 944 b 231 938 215 944 223 942 b 256 944 238 942 247 944 b 281 938 265 944 273 942 b 306 944 288 942 297 944 b 331 938 315 944 323 942 b 356 944 338 942 347 944 b 411 889 386 944 411 919 b 356 833 411 858 386 833 b 331 839 347 833 338 835 b 306 833 323 835 315 833 b 281 839 297 833 288 835 b 256 833 273 835 265 833 b 231 839 247 833 238 835 b 206 833 223 835 215 833 b 150 889 175 833 150 858 "},"B":{"ha":600,"x_min":0,"x_max":0,"o":"m 0 56 b 56 111 0 86 25 111 b 81 105 65 111 73 109 b 106 111 88 109 97 111 b 131 105 115 111 123 109 b 156 111 138 109 147 111 b 181 105 165 111 173 109 b 206 111 188 109 197 111 b 231 105 215 111 223 109 b 256 111 238 109 247 111 b 281 105 265 111 273 109 b 306 111 288 109 297 111 b 331 105 315 111 323 109 b 356 111 338 109 347 111 b 381 105 365 111 373 109 b 406 111 388 109 397 111 b 461 56 436 111 461 86 b 406 0 461 25 436 0 b 381 6 397 0 388 2 b 356 0 373 2 365 0 b 331 6 347 0 338 2 b 306 0 323 2 315 0 b 281 6 297 0 288 2 b 256 0 273 2 265 0 b 231 6 247 0 238 2 b 206 0 223 2 215 0 b 181 6 197 0 188 2 b 156 0 173 2 165 0 b 131 6 147 0 138 2 b 106 0 123 2 115 0 b 81 6 97 0 88 2 b 56 0 73 2 65 0 b 0 56 25 0 0 25 m 400 194 b 456 250 400 225 425 250 b 481 244 465 250 473 248 b 506 250 488 248 497 250 b 561 194 536 250 561 225 b 506 139 561 164 536 139 b 481 145 497 139 488 141 b 456 139 473 141 465 139 b 400 194 425 139 400 164 m 50 194 b 106 250 50 225 75 250 b 131 244 115 250 123 248 b 156 250 138 248 147 250 b 211 194 186 250 211 225 b 156 139 211 164 186 139 b 131 145 147 139 138 141 b 106 139 123 141 115 139 b 50 194 75 139 50 164 m 400 333 b 456 389 400 364 425 389 b 481 383 465 389 473 387 b 506 389 488 387 497 389 b 561 333 536 389 561 364 b 506 278 561 303 536 278 b 481 284 497 278 488 280 b 456 278 473 280 465 278 b 400 333 425 278 400 303 m 50 333 b 106 389 50 364 75 389 b 131 383 115 389 123 387 b 156 389 138 387 147 389 b 211 333 186 389 211 364 b 156 278 211 303 186 278 b 131 284 147 278 138 280 b 106 278 123 280 115 278 b 50 333 75 278 50 303 m 50 472 b 106 528 50 503 75 528 b 131 522 115 528 123 526 b 156 528 138 526 147 528 b 181 522 165 528 173 526 b 206 528 188 526 197 528 b 231 522 215 528 223 526 b 256 528 238 526 247 528 b 281 522 265 528 273 526 b 306 528 288 526 297 528 b 331 522 315 528 323 526 b 356 528 338 526 347 528 b 381 522 365 528 373 526 b 406 528 388 526 397 528 b 431 522 415 528 423 526 b 456 528 438 526 447 528 b 511 472 486 528 511 503 b 456 417 511 442 486 417 b 431 423 447 417 438 419 b 406 417 423 419 415 417 b 381 423 397 417 388 419 b 356 417 373 419 365 417 b 331 423 347 417 338 419 b 306 417 323 419 315 417 b 281 423 297 417 288 419 b 256 417 273 419 265 417 b 231 423 247 417 238 419 b 206 417 223 419 215 417 b 181 423 197 417 188 419 b 156 417 173 419 165 417 b 131 423 147 417 138 419 b 106 417 123 419 115 417 b 50 472 75 417 50 442 m 400 611 b 456 667 400 642 425 667 b 481 661 465 667 473 665 b 506 667 488 665 497 667 b 561 611 536 667 561 642 b 506 556 561 581 536 556 b 481 562 497 556 488 558 b 456 556 473 558 465 556 b 400 611 425 556 400 581 m 50 611 b 106 667 50 642 75 667 b 131 661 115 667 123 665 b 156 667 138 665 147 667 b 211 611 186 667 211 642 b 156 556 211 581 186 556 b 131 562 147 556 138 558 b 106 556 123 558 115 556 b 50 611 75 556 50 581 m 400 750 b 456 806 400 781 425 806 b 481 800 465 806 473 803 b 506 806 488 803 497 806 b 561 750 536 806 561 781 b 506 694 561 719 536 694 b 481 700 497 694 488 697 b 456 694 473 697 465 694 b 400 750 425 694 400 719 m 50 750 b 106 806 50 781 75 806 b 131 800 115 806 123 803 b 156 806 138 803 147 806 b 211 750 186 806 211 781 b 156 694 211 719 186 694 b 131 700 147 694 138 697 b 106 694 123 697 115 694 b 50 750 75 694 50 719 m 0 889 b 56 944 0 919 25 944 b 81 938 65 944 73 942 b 106 944 88 942 97 944 b 131 938 115 944 123 942 b 156 944 138 942 147 944 b 181 938 165 944 173 942 b 206 944 188 942 197 944 b 231 938 215 944 223 942 b 256 944 238 942 247 944 b 281 938 265 944 273 942 b 306 944 288 942 297 944 b 331 938 315 944 323 942 b 356 944 338 942 347 944 b 381 938 365 944 373 942 b 406 944 388 942 397 944 b 461 889 436 944 461 919 b 406 833 461 858 436 833 b 381 839 397 833 388 835 b 356 833 373 835 365 833 b 331 839 347 833 338 835 b 306 833 323 835 315 833 b 281 839 297 833 288 835 b 256 833 273 835 265 833 b 231 839 247 833 238 835 b 206 833 223 835 215 833 b 181 839 197 833 188 835 b 156 833 173 835 165 833 b 131 839 147 833 138 835 b 106 833 123 835 115 833 b 81 839 97 833 88 835 b 56 833 73 835 65 833 b 0 889 25 833 0 858 "},"C":{"ha":600,"x_min":0,"x_max":0,"o":"m 50 56 b 106 111 50 86 75 111 b 131 105 115 111 123 109 b 156 111 138 109 147 111 b 181 105 165 111 173 109 b 206 111 188 109 197 111 b 231 105 215 111 223 109 b 256 111 238 109 247 111 b 281 105 265 111 273 109 b 306 111 288 109 297 111 b 331 105 315 111 323 109 b 356 111 338 109 347 111 b 381 105 365 111 373 109 b 406 111 388 109 397 111 b 431 105 415 111 423 109 b 456 111 438 109 447 111 b 511 56 486 111 511 86 b 456 0 511 25 486 0 b 431 6 447 0 438 2 b 406 0 423 2 415 0 b 381 6 397 0 388 2 b 356 0 373 2 365 0 b 331 6 347 0 338 2 b 306 0 323 2 315 0 b 281 6 297 0 288 2 b 256 0 273 2 265 0 b 231 6 247 0 238 2 b 206 0 223 2 215 0 b 181 6 197 0 188 2 b 156 0 173 2 165 0 b 131 6 147 0 138 2 b 106 0 123 2 115 0 b 50 56 75 0 50 25 m 400 194 b 456 250 400 225 425 250 b 481 244 465 250 473 248 b 506 250 488 248 497 250 b 561 194 536 250 561 225 b 506 139 561 164 536 139 b 481 145 497 139 488 141 b 456 139 473 141 465 139 b 400 194 425 139 400 164 m 0 194 b 56 250 0 225 25 250 b 81 244 65 250 73 248 b 106 250 88 248 97 250 b 161 194 136 250 161 225 b 106 139 161 164 136 139 b 81 145 97 139 88 141 b 56 139 73 141 65 139 b 0 194 25 139 0 164 m 0 333 b 56 389 0 364 25 389 b 81 383 65 389 73 387 b 106 389 88 387 97 389 b 161 333 136 389 161 364 b 106 278 161 303 136 278 b 81 284 97 278 88 280 b 56 278 73 280 65 278 b 0 333 25 278 0 303 m 0 472 b 56 528 0 503 25 528 b 81 522 65 528 73 526 b 106 528 88 526 97 528 b 161 472 136 528 161 503 b 106 417 161 442 136 417 b 81 423 97 417 88 419 b 56 417 73 419 65 417 b 0 472 25 417 0 442 m 0 611 b 56 667 0 642 25 667 b 81 661 65 667 73 665 b 106 667 88 665 97 667 b 161 611 136 667 161 642 b 106 556 161 581 136 556 b 81 562 97 556 88 558 b 56 556 73 558 65 556 b 0 611 25 556 0 581 m 400 750 b 456 806 400 781 425 806 b 481 800 465 806 473 803 b 506 806 488 803 497 806 b 561 750 536 806 561 781 b 506 694 561 719 536 694 b 481 700 497 694 488 697 b 456 694 473 697 465 694 b 400 750 425 694 400 719 m 0 750 b 56 806 0 781 25 806 b 81 800 65 806 73 803 b 106 806 88 803 97 806 b 161 750 136 806 161 781 b 106 694 161 719 136 694 b 81 700 97 694 88 697 b 56 694 73 697 65 694 b 0 750 25 694 0 719 m 50 889 b 106 944 50 919 75 944 b 131 938 115 944 123 942 b 156 944 138 942 147 944 b 181 938 165 944 173 942 b 206 944 188 942 197 944 b 231 938 215 944 223 942 b 256 944 238 942 247 944 b 281 938 265 944 273 942 b 306 944 288 942 297 944 b 331 938 315 944 323 942 b 356 944 338 942 347 944 b 381 938 365 944 373 942 b 406 944 388 942 397 944 b 431 938 415 944 423 942 b 456 944 438 942 447 944 b 511 889 486 944 511 919 b 456 833 511 858 486 833 b 431 839 447 833 438 835 b 406 833 423 835 415 833 b 381 839 397 833 388 835 b 356 833 373 835 365 833 b 331 839 347 833 338 835 b 306 833 323 835 315 833 b 281 839 297 833 288 835 b 256 833 273 835 265 833 b 231 839 247 833 238 835 b 206 833 223 835 215 833 b 181 839 197 833 188 835 b 156 833 173 835 165 833 b 131 839 147 833 138 835 b 106 833 123 835 115 833 b 50 889 75 833 50 858 "},"D":{"ha":600,"x_min":0,"x_max":0,"o":"m 0 56 b 56 111 0 86 25 111 b 81 105 65 111 73 109 b 106 111 88 109 97 111 b 131 105 115 111 123 109 b 156 111 138 109 147 111 b 181 105 165 111 173 109 b 206 111 188 109 197 111 b 231 105 215 111 223 109 b 256 111 238 109 247 111 b 281 105 265 111 273 109 b 306 111 288 109 297 111 b 331 105 315 111 323 109 b 356 111 338 109 347 111 b 381 105 365 111 373 109 b 406 111 388 109 397 111 b 461 56 436 111 461 86 b 406 0 461 25 436 0 b 381 6 397 0 388 2 b 356 0 373 2 365 0 b 331 6 347 0 338 2 b 306 0 323 2 315 0 b 281 6 297 0 288 2 b 256 0 273 2 265 0 b 231 6 247 0 238 2 b 206 0 223 2 215 0 b 181 6 197 0 188 2 b 156 0 173 2 165 0 b 131 6 147 0 138 2 b 106 0 123 2 115 0 b 81 6 97 0 88 2 b 56 0 73 2 65 0 b 0 56 25 0 0 25 m 350 194 b 406 250 350 225 375 250 b 431 244 415 250 423 248 b 456 250 438 248 447 250 b 511 194 486 250 511 225 b 456 139 511 164 486 139 b 431 145 447 139 438 141 b 406 139 423 141 415 139 b 350 194 375 139 350 164 m 50 194 b 106 250 50 225 75 250 b 131 244 115 250 123 248 b 156 250 138 248 147 250 b 211 194 186 250 211 225 b 156 139 211 164 186 139 b 131 145 147 139 138 141 b 106 139 123 141 115 139 b 50 194 75 139 50 164 m 400 333 b 456 389 400 364 425 389 b 481 383 465 389 473 387 b 506 389 488 387 497 389 b 561 333 536 389 561 364 b 506 278 561 303 536 278 b 481 284 497 278 488 280 b 456 278 473 280 465 278 b 400 333 425 278 400 303 m 50 333 b 106 389 50 364 75 389 b 131 383 115 389 123 387 b 156 389 138 387 147 389 b 211 333 186 389 211 364 b 156 278 211 303 186 278 b 131 284 147 278 138 280 b 106 278 123 280 115 278 b 50 333 75 278 50 303 m 400 472 b 456 528 400 503 425 528 b 481 522 465 528 473 526 b 506 528 488 526 497 528 b 561 472 536 528 561 503 b 506 417 561 442 536 417 b 481 423 497 417 488 419 b 456 417 473 419 465 417 b 400 472 425 417 400 442 m 50 472 b 106 528 50 503 75 528 b 131 522 115 528 123 526 b 156 528 138 526 147 528 b 211 472 186 528 211 503 b 156 417 211 442 186 417 b 131 423 147 417 138 419 b 106 417 123 419 115 417 b 50 472 75 417 50 442 m 400 611 b 456 667 400 642 425 667 b 481 661 465 667 473 665 b 506 667 488 665 497 667 b 561 611 536 667 561 642 b 506 556 561 581 536 556 b 481 562 497 556 488 558 b 456 556 473 558 465 556 b 400 611 425 556 400 581 m 50 611 b 106 667 50 642 75 667 b 131 661 115 667 123 665 b 156 667 138 665 147 667 b 211 611 186 667 211 642 b 156 556 211 581 186 556 b 131 562 147 556 138 558 b 106 556 123 558 115 556 b 50 611 75 556 50 581 m 350 750 b 406 806 350 781 375 806 b 431 800 415 806 423 803 b 456 806 438 803 447 806 b 511 750 486 806 511 781 b 456 694 511 719 486 694 b 431 700 447 694 438 697 b 406 694 423 697 415 694 b 350 750 375 694 350 719 m 50 750 b 106 806 50 781 75 806 b 131 800 115 806 123 803 b 156 806 138 803 147 806 b 211 750 186 806 211 781 b 156 694 211 719 186 694 b 131 700 147 694 138 697 b 106 694 123 697 115 694 b 50 750 75 694 50 719 m 0 889 b 56 944 0 919 25 944 b 81 938 65 944 73 942 b 106 944 88 942 97 944 b 131 938 115 944 123 942 b 156 944 138 942 147 944 b 181 938 165 944 173 942 b 206 944 188 942 197 944 b 231 938 215 944 223 942 b 256 944 238 942 247 944 b 281 938 265 944 273 942 b 306 944 288 942 297 944 b 331 938 315 944 323 942 b 356 944 338 942 347 944 b 381 938 365 944 373 942 b 406 944 388 942 397 944 b 461 889 436 944 461 919 b 406 833 461 858 436 833 b 381 839 397 833 388 835 b 356 833 373 835 365 833 b 331 839 347 833 338 835 b 306 833 323 835 315 833 b 281 839 297 833 288 835 b 256 833 273 835 265 833 b 231 839 247 833 238 835 b 206 833 223 835 215 833 b 181 839 197 833 188 835 b 156 833 173 835 165 833 b 131 839 147 833 138 835 b 106 833 123 835 115 833 b 81 839 97 833 88 835 b 56 833 73 835 65 833 b 0 889 25 833 0 858 "},"E":{"ha":600,"x_min":0,"x_max":0,"o":"m 0 56 b 56 111 0 86 25 111 b 81 105 65 111 73 109 b 106 111 88 109 97 111 b 131 105 115 111 123 109 b 156 111 138 109 147 111 b 181 105 165 111 173 109 b 206 111 188 109 197 111 b 231 105 215 111 223 109 b 256 111 238 109 247 111 b 281 105 265 111 273 109 b 306 111 288 109 297 111 b 331 105 315 111 323 109 b 356 111 338 109 347 111 b 381 105 365 111 373 109 b 406 111 388 109 397 111 b 431 105 415 111 423 109 b 456 111 438 109 447 111 b 481 105 465 111 473 109 b 506 111 488 109 497 111 b 561 56 536 111 561 86 b 506 0 561 25 536 0 b 481 6 497 0 488 2 b 456 0 473 2 465 0 b 431 6 447 0 438 2 b 406 0 423 2 415 0 b 381 6 397 0 388 2 b 356 0 373 2 365 0 b 331 6 347 0 338 2 b 306 0 323 2 315 0 b 281 6 297 0 288 2 b 256 0 273 2 265 0 b 231 6 247 0 238 2 b 206 0 223 2 215 0 b 181 6 197 0 188 2 b 156 0 173 2 165 0 b 131 6 147 0 138 2 b 106 0 123 2 115 0 b 81 6 97 0 88 2 b 56 0 73 2 65 0 b 0 56 25 0 0 25 m 0 194 b 56 250 0 225 25 250 b 81 244 65 250 73 248 b 106 250 88 248 97 250 b 161 194 136 250 161 225 b 106 139 161 164 136 139 b 81 145 97 139 88 141 b 56 139 73 141 65 139 b 0 194 25 139 0 164 m 0 333 b 56 389 0 364 25 389 b 81 383 65 389 73 387 b 106 389 88 387 97 389 b 161 333 136 389 161 364 b 106 278 161 303 136 278 b 81 284 97 278 88 280 b 56 278 73 280 65 278 b 0 333 25 278 0 303 m 0 472 b 56 528 0 503 25 528 b 81 522 65 528 73 526 b 106 528 88 526 97 528 b 131 522 115 528 123 526 b 156 528 138 526 147 528 b 181 522 165 528 173 526 b 206 528 188 526 197 528 b 231 522 215 528 223 526 b 256 528 238 526 247 528 b 281 522 265 528 273 526 b 306 528 288 526 297 528 b 331 522 315 528 323 526 b 356 528 338 526 347 528 b 381 522 365 528 373 526 b 406 528 388 526 397 528 b 461 472 436 528 461 503 b 406 417 461 442 436 417 b 381 423 397 417 388 419 b 356 417 373 419 365 417 b 331 423 347 417 338 419 b 306 417 323 419 315 417 b 281 423 297 417 288 419 b 256 417 273 419 265 417 b 231 423 247 417 238 419 b 206 417 223 419 215 417 b 181 423 197 417 188 419 b 156 417 173 419 165 417 b 131 423 147 417 138 419 b 106 417 123 419 115 417 b 81 423 97 417 88 419 b 56 417 73 419 65 417 b 0 472 25 417 0 442 m 0 611 b 56 667 0 642 25 667 b 81 661 65 667 73 665 b 106 667 88 665 97 667 b 161 611 136 667 161 642 b 106 556 161 581 136 556 b 81 562 97 556 88 558 b 56 556 73 558 65 556 b 0 611 25 556 0 581 m 0 750 b 56 806 0 781 25 806 b 81 800 65 806 73 803 b 106 806 88 803 97 806 b 161 750 136 806 161 781 b 106 694 161 719 136 694 b 81 700 97 694 88 697 b 56 694 73 697 65 694 b 0 750 25 694 0 719 m 0 889 b 56 944 0 919 25 944 b 81 938 65 944 73 942 b 106 944 88 942 97 944 b 131 938 115 944 123 942 b 156 944 138 942 147 944 b 181 938 165 944 173 942 b 206 944 188 942 197 944 b 231 938 215 944 223 942 b 256 944 238 942 247 944 b 281 938 265 944 273 942 b 306 944 288 942 297 944 b 331 938 315 944 323 942 b 356 944 338 942 347 944 b 381 938 365 944 373 942 b 406 944 388 942 397 944 b 431 938 415 944 423 942 b 456 944 438 942 447 944 b 481 938 465 944 473 942 b 506 944 488 942 497 944 b 561 889 536 944 561 919 b 506 833 561 858 536 833 b 481 839 497 833 488 835 b 456 833 473 835 465 833 b 431 839 447 833 438 835 b 406 833 423 835 415 833 b 381 839 397 833 388 835 b 356 833 373 835 365 833 b 331 839 347 833 338 835 b 306 833 323 835 315 833 b 281 839 297 833 288 835 b 256 833 273 835 265 833 b 231 839 247 833 238 835 b 206 833 223 835 215 833 b 181 839 197 833 188 835 b 156 833 173 835 165 833 b 131 839 147 833 138 835 b 106 833 123 835 115 833 b 81 839 97 833 88 835 b 56 833 73 835 65 833 b 0 889 25 833 0 858 "},"F":{"ha":600,"x_min":0,"x_max":0,"o":"m 0 56 b 56 111 0 86 25 111 b 81 105 65 111 73 109 b 106 111 88 109 97 111 b 161 56 136 111 161 86 b 106 0 161 25 136 0 b 81 6 97 0 88 2 b 56 0 73 2 65 0 b 0 56 25 0 0 25 m 0 194 b 56 250 0 225 25 250 b 81 244 65 250 73 248 b 106 250 88 248 97 250 b 161 194 136 250 161 225 b 106 139 161 164 136 139 b 81 145 97 139 88 141 b 56 139 73 141 65 139 b 0 194 25 139 0 164 m 0 333 b 56 389 0 364 25 389 b 81 383 65 389 73 387 b 106 389 88 387 97 389 b 161 333 136 389 161 364 b 106 278 161 303 136 278 b 81 284 97 278 88 280 b 56 278 73 280 65 278 b 0 333 25 278 0 303 m 0 472 b 56 528 0 503 25 528 b 81 522 65 528 73 526 b 106 528 88 526 97 528 b 131 522 115 528 123 526 b 156 528 138 526 147 528 b 181 522 165 528 173 526 b 206 528 188 526 197 528 b 231 522 215 528 223 526 b 256 528 238 526 247 528 b 281 522 265 528 273 526 b 306 528 288 526 297 528 b 331 522 315 528 323 526 b 356 528 338 526 347 528 b 381 522 365 528 373 526 b 406 528 388 526 397 528 b 461 472 436 528 461 503 b 406 417 461 442 436 417 b 381 423 397 417 388 419 b 356 417 373 419 365 417 b 331 423 347 417 338 419 b 306 417 323 419 315 417 b 281 423 297 417 288 419 b 256 417 273 419 265 417 b 231 423 247 417 238 419 b 206 417 223 419 215 417 b 181 423 197 417 188 419 b 156 417 173 419 165 417 b 131 423 147 417 138 419 b 106 417 123 419 115 417 b 81 423 97 417 88 419 b 56 417 73 419 65 417 b 0 472 25 417 0 442 m 0 611 b 56 667 0 642 25 667 b 81 661 65 667 73 665 b 106 667 88 665 97 667 b 161 611 136 667 161 642 b 106 556 161 581 136 556 b 81 562 97 556 88 558 b 56 556 73 558 65 556 b 0 611 25 556 0 581 m 0 750 b 56 806 0 781 25 806 b 81 800 65 806 73 803 b 106 806 88 803 97 806 b 161 750 136 806 161 781 b 106 694 161 719 136 694 b 81 700 97 694 88 697 b 56 694 73 697 65 694 b 0 750 25 694 0 719 m 0 889 b 56 944 0 919 25 944 b 81 938 65 944 73 942 b 106 944 88 942 97 944 b 131 938 115 944 123 942 b 156 944 138 942 147 944 b 181 938 165 944 173 942 b 206 944 188 942 197 944 b 231 938 215 944 223 942 b 256 944 238 942 247 944 b 281 938 265 944 273 942 b 306 944 288 942 297 944 b 331 938 315 944 323 942 b 356 944 338 942 347 944 b 381 938 365 944 373 942 b 406 944 388 942 397 944 b 431 938 415 944 423 942 b 456 944 438 942 447 944 b 481 938 465 944 473 942 b 506 944 488 942 497 944 b 561 889 536 944 561 919 b 506 833 561 858 536 833 b 481 839 497 833 488 835 b 456 833 473 835 465 833 b 431 839 447 833 438 835 b 406 833 423 835 415 833 b 381 839 397 833 388 835 b 356 833 373 835 365 833 b 331 839 347 833 338 835 b 306 833 323 835 315 833 b 281 839 297 833 288 835 b 256 833 273 835 265 833 b 231 839 247 833 238 835 b 206 833 223 835 215 833 b 181 839 197 833 188 835 b 156 833 173 835 165 833 b 131 839 147 833 138 835 b 106 833 123 835 115 833 b 81 839 97 833 88 835 b 56 833 73 835 65 833 b 0 889 25 833 0 858 "},"G":{"ha":600,"x_min":0,"x_max":0,"o":"m 50 56 b 106 111 50 86 75 111 b 131 105 115 111 123 109 b 156 111 138 109 147 111 b 181 105 165 111 173 109 b 206 111 188 109 197 111 b 231 105 215 111 223 109 b 256 111 238 109 247 111 b 281 105 265 111 273 109 b 306 111 288 109 297 111 b 331 105 315 111 323 109 b 356 111 338 109 347 111 b 381 105 365 111 373 109 b 406 111 388 109 397 111 b 431 105 415 111 423 109 b 456 111 438 109 447 111 b 511 56 486 111 511 86 b 456 0 511 25 486 0 b 431 6 447 0 438 2 b 406 0 423 2 415 0 b 381 6 397 0 388 2 b 356 0 373 2 365 0 b 331 6 347 0 338 2 b 306 0 323 2 315 0 b 281 6 297 0 288 2 b 256 0 273 2 265 0 b 231 6 247 0 238 2 b 206 0 223 2 215 0 b 181 6 197 0 188 2 b 156 0 173 2 165 0 b 131 6 147 0 138 2 b 106 0 123 2 115 0 b 50 56 75 0 50 25 m 400 194 b 456 250 400 225 425 250 b 481 244 465 250 473 248 b 506 250 488 248 497 250 b 561 194 536 250 561 225 b 506 139 561 164 536 139 b 481 145 497 139 488 141 b 456 139 473 141 465 139 b 400 194 425 139 400 164 m 0 194 b 56 250 0 225 25 250 b 81 244 65 250 73 248 b 106 250 88 248 97 250 b 161 194 136 250 161 225 b 106 139 161 164 136 139 b 81 145 97 139 88 141 b 56 139 73 141 65 139 b 0 194 25 139 0 164 m 400 333 b 456 389 400 364 425 389 b 481 383 465 389 473 387 b 506 389 488 387 497 389 b 561 333 536 389 561 364 b 506 278 561 303 536 278 b 481 284 497 278 488 280 b 456 278 473 280 465 278 b 400 333 425 278 400 303 m 0 333 b 56 389 0 364 25 389 b 81 383 65 389 73 387 b 106 389 88 387 97 389 b 161 333 136 389 161 364 b 106 278 161 303 136 278 b 81 284 97 278 88 280 b 56 278 73 280 65 278 b 0 333 25 278 0 303 m 200 472 b 256 528 200 503 225 528 b 281 522 265 528 273 526 b 306 528 288 526 297 528 b 331 522 315 528 323 526 b 356 528 338 526 347 528 b 381 522 365 528 373 526 b 406 528 388 526 397 528 b 431 522 415 528 423 526 b 456 528 438 526 447 528 b 481 522 465 528 473 526 b 506 528 488 526 497 528 b 561 472 536 528 561 503 b 506 417 561 442 536 417 b 481 423 497 417 488 419 b 456 417 473 419 465 417 b 431 423 447 417 438 419 b 406 417 423 419 415 417 b 381 423 397 417 388 419 b 356 417 373 419 365 417 b 331 423 347 417 338 419 b 306 417 323 419 315 417 b 281 423 297 417 288 419 b 256 417 273 419 265 417 b 200 472 225 417 200 442 m 0 472 b 56 528 0 503 25 528 b 81 522 65 528 73 526 b 106 528 88 526 97 528 b 161 472 136 528 161 503 b 106 417 161 442 136 417 b 81 423 97 417 88 419 b 56 417 73 419 65 417 b 0 472 25 417 0 442 m 0 611 b 56 667 0 642 25 667 b 81 661 65 667 73 665 b 106 667 88 665 97 667 b 161 611 136 667 161 642 b 106 556 161 581 136 556 b 81 562 97 556 88 558 b 56 556 73 558 65 556 b 0 611 25 556 0 581 m 400 750 b 456 806 400 781 425 806 b 481 800 465 806 473 803 b 506 806 488 803 497 806 b 561 750 536 806 561 781 b 506 694 561 719 536 694 b 481 700 497 694 488 697 b 456 694 473 697 465 694 b 400 750 425 694 400 719 m 0 750 b 56 806 0 781 25 806 b 81 800 65 806 73 803 b 106 806 88 803 97 806 b 161 750 136 806 161 781 b 106 694 161 719 136 694 b 81 700 97 694 88 697 b 56 694 73 697 65 694 b 0 750 25 694 0 719 m 50 889 b 106 944 50 919 75 944 b 131 938 115 944 123 942 b 156 944 138 942 147 944 b 181 938 165 944 173 942 b 206 944 188 942 197 944 b 231 938 215 944 223 942 b 256 944 238 942 247 944 b 281 938 265 944 273 942 b 306 944 288 942 297 944 b 331 938 315 944 323 942 b 356 944 338 942 347 944 b 381 938 365 944 373 942 b 406 944 388 942 397 944 b 431 938 415 944 423 942 b 456 944 438 942 447 944 b 511 889 486 944 511 919 b 456 833 511 858 486 833 b 431 839 447 833 438 835 b 406 833 423 835 415 833 b 381 839 397 833 388 835 b 356 833 373 835 365 833 b 331 839 347 833 338 835 b 306 833 323 835 315 833 b 281 839 297 833 288 835 b 256 833 273 835 265 833 b 231 839 247 833 238 835 b 206 833 223 835 215 833 b 181 839 197 833 188 835 b 156 833 173 835 165 833 b 131 839 147 833 138 835 b 106 833 123 835 115 833 b 50 889 75 833 50 858 "},"H":{"ha":600,"x_min":0,"x_max":0,"o":"m 400 56 b 456 111 400 86 425 111 b 481 105 465 111 473 109 b 506 111 488 109 497 111 b 561 56 536 111 561 86 b 506 0 561 25 536 0 b 481 6 497 0 488 2 b 456 0 473 2 465 0 b 400 56 425 0 400 25 m 0 56 b 56 111 0 86 25 111 b 81 105 65 111 73 109 b 106 111 88 109 97 111 b 161 56 136 111 161 86 b 106 0 161 25 136 0 b 81 6 97 0 88 2 b 56 0 73 2 65 0 b 0 56 25 0 0 25 m 400 194 b 456 250 400 225 425 250 b 481 244 465 250 473 248 b 506 250 488 248 497 250 b 561 194 536 250 561 225 b 506 139 561 164 536 139 b 481 145 497 139 488 141 b 456 139 473 141 465 139 b 400 194 425 139 400 164 m 0 194 b 56 250 0 225 25 250 b 81 244 65 250 73 248 b 106 250 88 248 97 250 b 161 194 136 250 161 225 b 106 139 161 164 136 139 b 81 145 97 139 88 141 b 56 139 73 141 65 139 b 0 194 25 139 0 164 m 400 333 b 456 389 400 364 425 389 b 481 383 465 389 473 387 b 506 389 488 387 497 389 b 561 333 536 389 561 364 b 506 278 561 303 536 278 b 481 284 497 278 488 280 b 456 278 473 280 465 278 b 400 333 425 278 400 303 m 0 333 b 56 389 0 364 25 389 b 81 383 65 389 73 387 b 106 389 88 387 97 389 b 161 333 136 389 161 364 b 106 278 161 303 136 278 b 81 284 97 278 88 280 b 56 278 73 280 65 278 b 0 333 25 278 0 303 m 0 472 b 56 528 0 503 25 528 b 81 522 65 528 73 526 b 106 528 88 526 97 528 b 131 522 115 528 123 526 b 156 528 138 526 147 528 b 181 522 165 528 173 526 b 206 528 188 526 197 528 b 231 522 215 528 223 526 b 256 528 238 526 247 528 b 281 522 265 528 273 526 b 306 528 288 526 297 528 b 331 522 315 528 323 526 b 356 528 338 526 347 528 b 381 522 365 528 373 526 b 406 528 388 526 397 528 b 431 522 415 528 423 526 b 456 528 438 526 447 528 b 481 522 465 528 473 526 b 506 528 488 526 497 528 b 561 472 536 528 561 503 b 506 417 561 442 536 417 b 481 423 497 417 488 419 b 456 417 473 419 465 417 b 431 423 447 417 438 419 b 406 417 423 419 415 417 b 381 423 397 417 388 419 b 356 417 373 419 365 417 b 331 423 347 417 338 419 b 306 417 323 419 315 417 b 281 423 297 417 288 419 b 256 417 273 419 265 417 b 231 423 247 417 238 419 b 206 417 223 419 215 417 b 181 423 197 417 188 419 b 156 417 173 419 165 417 b 131 423 147 417 138 419 b 106 417 123 419 115 417 b 81 423 97 417 88 419 b 56 417 73 419 65 417 b 0 472 25 417 0 442 m 400 611 b 456 667 400 642 425 667 b 481 661 465 667 473 665 b 506 667 488 665 497 667 b 561 611 536 667 561 642 b 506 556 561 581 536 556 b 481 562 497 556 488 558 b 456 556 473 558 465 556 b 400 611 425 556 400 581 m 0 611 b 56 667 0 642 25 667 b 81 661 65 667 73 665 b 106 667 88 665 97 667 b 161 611 136 667 161 642 b 106 556 161 581 136 556 b 81 562 97 556 88 558 b 56 556 73 558 65 556 b 0 611 25 556 0 581 m 400 750 b 456 806 400 781 425 806 b 481 800 465 806 473 803 b 506 806 488 803 497 806 b 561 750 536 806 561 781 b 506 694 561 719 536 694 b 481 700 497 694 488 697 b 456 694 473 697 465 694 b 400 750 425 694 400 719 m 0 750 b 56 806 0 781 25 806 b 81 800 65 806 73 803 b 106 806 88 803 97 806 b 161 750 136 806 161 781 b 106 694 161 719 136 694 b 81 700 97 694 88 697 b 56 694 73 697 65 694 b 0 750 25 694 0 719 m 400 889 b 456 944 400 919 425 944 b 481 938 465 944 473 942 b 506 944 488 942 497 944 b 561 889 536 944 561 919 b 506 833 561 858 536 833 b 481 839 497 833 488 835 b 456 833 473 835 465 833 b 400 889 425 833 400 858 m 0 889 b 56 944 0 919 25 944 b 81 938 65 944 73 942 b 106 944 88 942 97 944 b 161 889 136 944 161 919 b 106 833 161 858 136 833 b 81 839 97 833 88 835 b 56 833 73 835 65 833 b 0 889 25 833 0 858 "},"I":{"ha":600,"x_min":0,"x_max":0,"o":"m 100 56 b 156 111 100 86 125 111 b 181 105 165 111 173 109 b 206 111 188 109 197 111 b 231 105 215 111 223 109 b 256 111 238 109 247 111 b 281 105 265 111 273 109 b 306 111 288 109 297 111 b 331 105 315 111 323 109 b 356 111 338 109 347 111 b 381 105 365 111 373 109 b 406 111 388 109 397 111 b 461 56 436 111 461 86 b 406 0 461 25 436 0 b 381 6 397 0 388 2 b 356 0 373 2 365 0 b 331 6 347 0 338 2 b 306 0 323 2 315 0 b 281 6 297 0 288 2 b 256 0 273 2 265 0 b 231 6 247 0 238 2 b 206 0 223 2 215 0 b 181 6 197 0 188 2 b 156 0 173 2 165 0 b 100 56 125 0 100 25 m 200 194 b 256 250 200 225 225 250 b 281 244 265 250 273 248 b 306 250 288 248 297 250 b 361 194 336 250 361 225 b 306 139 361 164 336 139 b 281 145 297 139 288 141 b 256 139 273 141 265 139 b 200 194 225 139 200 164 m 200 333 b 256 389 200 364 225 389 b 281 383 265 389 273 387 b 306 389 288 387 297 389 b 361 333 336 389 361 364 b 306 278 361 303 336 278 b 281 284 297 278 288 280 b 256 278 273 280 265 278 b 200 333 225 278 200 303 m 200 472 b 256 528 200 503 225 528 b 281 522 265 528 273 526 b 306 528 288 526 297 528 b 361 472 336 528 361 503 b 306 417 361 442 336 417 b 281 423 297 417 288 419 b 256 417 273 419 265 417 b 200 472 225 417 200 442 m 200 611 b 256 667 200 642 225 667 b 281 661 265 667 273 665 b 306 667 288 665 297 667 b 361 611 336 667 361 642 b 306 556 361 581 336 556 b 281 562 297 556 288 558 b 256 556 273 558 265 556 b 200 611 225 556 200 581 m 200 750 b 256 806 200 781 225 806 b 281 800 265 806 273 803 b 306 806 288 803 297 806 b 361 750 336 806 361 781 b 306 694 361 719 336 694 b 281 700 297 694 288 697 b 256 694 273 697 265 694 b 200 750 225 694 200 719 m 100 889 b 156 944 100 919 125 944 b 181 938 165 944 173 942 b 206 944 188 942 197 944 b 231 938 215 944 223 942 b 256 944 238 942 247 944 b 281 938 265 944 273 942 b 306 944 288 942 297 944 b 331 938 315 944 323 942 b 356 944 338 942 347 944 b 381 938 365 944 373 942 b 406 944 388 942 397 944 b 461 889 436 944 461 919 b 406 833 461 858 436 833 b 381 839 397 833 388 835 b 356 833 373 835 365 833 b 331 839 347 833 338 835 b 306 833 323 835 315 833 b 281 839 297 833 288 835 b 256 833 273 835 265 833 b 231 839 247 833 238 835 b 206 833 223 835 215 833 b 181 839 197 833 188 835 b 156 833 173 835 165 833 b 100 889 125 833 100 858 "},"J":{"ha":600,"x_min":0,"x_max":0,"o":"m 50 56 b 106 111 50 86 75 111 b 131 105 115 111 123 109 b 156 111 138 109 147 111 b 181 105 165 111 173 109 b 206 111 188 109 197 111 b 231 105 215 111 223 109 b 256 111 238 109 247 111 b 281 105 265 111 273 109 b 306 111 288 109 297 111 b 331 105 315 111 323 109 b 356 111 338 109 347 111 b 411 56 386 111 411 86 b 356 0 411 25 386 0 b 331 6 347 0 338 2 b 306 0 323 2 315 0 b 281 6 297 0 288 2 b 256 0 273 2 265 0 b 231 6 247 0 238 2 b 206 0 223 2 215 0 b 181 6 197 0 188 2 b 156 0 173 2 165 0 b 131 6 147 0 138 2 b 106 0 123 2 115 0 b 50 56 75 0 50 25 m 300 194 b 356 250 300 225 325 250 b 381 244 365 250 373 248 b 406 250 388 248 397 250 b 461 194 436 250 461 225 b 406 139 461 164 436 139 b 381 145 397 139 388 141 b 356 139 373 141 365 139 b 300 194 325 139 300 164 m 0 194 b 56 250 0 225 25 250 b 81 244 65 250 73 248 b 106 250 88 248 97 250 b 161 194 136 250 161 225 b 106 139 161 164 136 139 b 81 145 97 139 88 141 b 56 139 73 141 65 139 b 0 194 25 139 0 164 m 300 333 b 356 389 300 364 325 389 b 381 383 365 389 373 387 b 406 389 388 387 397 389 b 461 333 436 389 461 364 b 406 278 461 303 436 278 b 381 284 397 278 388 280 b 356 278 373 280 365 278 b 300 333 325 278 300 303 m 0 333 b 56 389 0 364 25 389 b 81 383 65 389 73 387 b 106 389 88 387 97 389 b 161 333 136 389 161 364 b 106 278 161 303 136 278 b 81 284 97 278 88 280 b 56 278 73 280 65 278 b 0 333 25 278 0 303 m 300 472 b 356 528 300 503 325 528 b 381 522 365 528 373 526 b 406 528 388 526 397 528 b 461 472 436 528 461 503 b 406 417 461 442 436 417 b 381 423 397 417 388 419 b 356 417 373 419 365 417 b 300 472 325 417 300 442 m 300 611 b 356 667 300 642 325 667 b 381 661 365 667 373 665 b 406 667 388 665 397 667 b 461 611 436 667 461 642 b 406 556 461 581 436 556 b 381 562 397 556 388 558 b 356 556 373 558 365 556 b 300 611 325 556 300 581 m 300 750 b 356 806 300 781 325 806 b 381 800 365 806 373 803 b 406 806 388 803 397 806 b 461 750 436 806 461 781 b 406 694 461 719 436 694 b 381 700 397 694 388 697 b 356 694 373 697 365 694 b 300 750 325 694 300 719 m 150 889 b 206 944 150 919 175 944 b 231 938 215 944 223 942 b 256 944 238 942 247 944 b 281 938 265 944 273 942 b 306 944 288 942 297 944 b 331 938 315 944 323 942 b 356 944 338 942 347 944 b 381 938 365 944 373 942 b 406 944 388 942 397 944 b 431 938 415 944 423 942 b 456 944 438 942 447 944 b 511 889 486 944 511 919 b 456 833 511 858 486 833 b 431 839 447 833 438 835 b 406 833 423 835 415 833 b 381 839 397 833 388 835 b 356 833 373 835 365 833 b 331 839 347 833 338 835 b 306 833 323 835 315 833 b 281 839 297 833 288 835 b 256 833 273 835 265 833 b 231 839 247 833 238 835 b 206 833 223 835 215 833 b 150 889 175 833 150 858 "},"K":{"ha":600,"x_min":0,"x_max":0,"o":"m 400 56 b 456 111 400 86 425 111 b 481 105 465 111 473 109 b 506 111 488 109 497 111 b 561 56 536 111 561 86 b 506 0 561 25 536 0 b 481 6 497 0 488 2 b 456 0 473 2 465 0 b 400 56 425 0 400 25 m 0 56 b 56 111 0 86 25 111 b 81 105 65 111 73 109 b 106 111 88 109 97 111 b 161 56 136 111 161 86 b 106 0 161 25 136 0 b 81 6 97 0 88 2 b 56 0 73 2 65 0 b 0 56 25 0 0 25 m 300 194 b 356 250 300 225 325 250 b 381 244 365 250 373 248 b 406 250 388 248 397 250 b 461 194 436 250 461 225 b 406 139 461 164 436 139 b 381 145 397 139 388 141 b 356 139 373 141 365 139 b 300 194 325 139 300 164 m 0 194 b 56 250 0 225 25 250 b 81 244 65 250 73 248 b 106 250 88 248 97 250 b 161 194 136 250 161 225 b 106 139 161 164 136 139 b 81 145 97 139 88 141 b 56 139 73 141 65 139 b 0 194 25 139 0 164 m 200 333 b 256 389 200 364 225 389 b 281 383 265 389 273 387 b 306 389 288 387 297 389 b 361 333 336 389 361 364 b 306 278 361 303 336 278 b 281 284 297 278 288 280 b 256 278 273 280 265 278 b 200 333 225 278 200 303 m 0 333 b 56 389 0 364 25 389 b 81 383 65 389 73 387 b 106 389 88 387 97 389 b 161 333 136 389 161 364 b 106 278 161 303 136 278 b 81 284 97 278 88 280 b 56 278 73 280 65 278 b 0 333 25 278 0 303 m 0 472 b 56 528 0 503 25 528 b 81 522 65 528 73 526 b 106 528 88 526 97 528 b 131 522 115 528 123 526 b 156 528 138 526 147 528 b 181 522 165 528 173 526 b 206 528 188 526 197 528 b 261 472 236 528 261 503 b 206 417 261 442 236 417 b 181 423 197 417 188 419 b 156 417 173 419 165 417 b 131 423 147 417 138 419 b 106 417 123 419 115 417 b 81 423 97 417 88 419 b 56 417 73 419 65 417 b 0 472 25 417 0 442 m 200 611 b 256 667 200 642 225 667 b 281 661 265 667 273 665 b 306 667 288 665 297 667 b 361 611 336 667 361 642 b 306 556 361 581 336 556 b 281 562 297 556 288 558 b 256 556 273 558 265 556 b 200 611 225 556 200 581 m 0 611 b 56 667 0 642 25 667 b 81 661 65 667 73 665 b 106 667 88 665 97 667 b 161 611 136 667 161 642 b 106 556 161 581 136 556 b 81 562 97 556 88 558 b 56 556 73 558 65 556 b 0 611 25 556 0 581 m 300 750 b 356 806 300 781 325 806 b 381 800 365 806 373 803 b 406 806 388 803 397 806 b 461 750 436 806 461 781 b 406 694 461 719 436 694 b 381 700 397 694 388 697 b 356 694 373 697 365 694 b 300 750 325 694 300 719 m 0 750 b 56 806 0 781 25 806 b 81 800 65 806 73 803 b 106 806 88 803 97 806 b 161 750 136 806 161 781 b 106 694 161 719 136 694 b 81 700 97 694 88 697 b 56 694 73 697 65 694 b 0 750 25 694 0 719 m 400 889 b 456 944 400 919 425 944 b 481 938 465 944 473 942 b 506 944 488 942 497 944 b 561 889 536 944 561 919 b 506 833 561 858 536 833 b 481 839 497 833 488 835 b 456 833 473 835 465 833 b 400 889 425 833 400 858 m 0 889 b 56 944 0 919 25 944 b 81 938 65 944 73 942 b 106 944 88 942 97 944 b 161 889 136 944 161 919 b 106 833 161 858 136 833 b 81 839 97 833 88 835 b 56 833 73 835 65 833 b 0 889 25 833 0 858 "},"L":{"ha":600,"x_min":0,"x_max":0,"o":"m 0 56 b 56 111 0 86 25 111 b 81 105 65 111 73 109 b 106 111 88 109 97 111 b 131 105 115 111 123 109 b 156 111 138 109 147 111 b 181 105 165 111 173 109 b 206 111 188 109 197 111 b 231 105 215 111 223 109 b 256 111 238 109 247 111 b 281 105 265 111 273 109 b 306 111 288 109 297 111 b 331 105 315 111 323 109 b 356 111 338 109 347 111 b 381 105 365 111 373 109 b 406 111 388 109 397 111 b 431 105 415 111 423 109 b 456 111 438 109 447 111 b 481 105 465 111 473 109 b 506 111 488 109 497 111 b 561 56 536 111 561 86 b 506 0 561 25 536 0 b 481 6 497 0 488 2 b 456 0 473 2 465 0 b 431 6 447 0 438 2 b 406 0 423 2 415 0 b 381 6 397 0 388 2 b 356 0 373 2 365 0 b 331 6 347 0 338 2 b 306 0 323 2 315 0 b 281 6 297 0 288 2 b 256 0 273 2 265 0 b 231 6 247 0 238 2 b 206 0 223 2 215 0 b 181 6 197 0 188 2 b 156 0 173 2 165 0 b 131 6 147 0 138 2 b 106 0 123 2 115 0 b 81 6 97 0 88 2 b 56 0 73 2 65 0 b 0 56 25 0 0 25 m 0 194 b 56 250 0 225 25 250 b 81 244 65 250 73 248 b 106 250 88 248 97 250 b 161 194 136 250 161 225 b 106 139 161 164 136 139 b 81 145 97 139 88 141 b 56 139 73 141 65 139 b 0 194 25 139 0 164 m 0 333 b 56 389 0 364 25 389 b 81 383 65 389 73 387 b 106 389 88 387 97 389 b 161 333 136 389 161 364 b 106 278 161 303 136 278 b 81 284 97 278 88 280 b 56 278 73 280 65 278 b 0 333 25 278 0 303 m 0 472 b 56 528 0 503 25 528 b 81 522 65 528 73 526 b 106 528 88 526 97 528 b 161 472 136 528 161 503 b 106 417 161 442 136 417 b 81 423 97 417 88 419 b 56 417 73 419 65 417 b 0 472 25 417 0 442 m 0 611 b 56 667 0 642 25 667 b 81 661 65 667 73 665 b 106 667 88 665 97 667 b 161 611 136 667 161 642 b 106 556 161 581 136 556 b 81 562 97 556 88 558 b 56 556 73 558 65 556 b 0 611 25 556 0 581 m 0 750 b 56 806 0 781 25 806 b 81 800 65 806 73 803 b 106 806 88 803 97 806 b 161 750 136 806 161 781 b 106 694 161 719 136 694 b 81 700 97 694 88 697 b 56 694 73 697 65 694 b 0 750 25 694 0 719 m 0 889 b 56 944 0 919 25 944 b 81 938 65 944 73 942 b 106 944 88 942 97 944 b 161 889 136 944 161 919 b 106 833 161 858 136 833 b 81 839 97 833 88 835 b 56 833 73 835 65 833 b 0 889 25 833 0 858 "},"M":{"ha":600,"x_min":0,"x_max":0,"o":"m 400 56 b 456 111 400 86 425 111 b 481 105 465 111 473 109 b 506 111 488 109 497 111 b 561 56 536 111 561 86 b 506 0 561 25 536 0 b 481 6 497 0 488 2 b 456 0 473 2 465 0 b 400 56 425 0 400 25 m 0 56 b 56 111 0 86 25 111 b 81 105 65 111 73 109 b 106 111 88 109 97 111 b 161 56 136 111 161 86 b 106 0 161 25 136 0 b 81 6 97 0 88 2 b 56 0 73 2 65 0 b 0 56 25 0 0 25 m 400 194 b 456 250 400 225 425 250 b 481 244 465 250 473 248 b 506 250 488 248 497 250 b 561 194 536 250 561 225 b 506 139 561 164 536 139 b 481 145 497 139 488 141 b 456 139 473 141 465 139 b 400 194 425 139 400 164 m 0 194 b 56 250 0 225 25 250 b 81 244 65 250 73 248 b 106 250 88 248 97 250 b 161 194 136 250 161 225 b 106 139 161 164 136 139 b 81 145 97 139 88 141 b 56 139 73 141 65 139 b 0 194 25 139 0 164 m 400 333 b 456 389 400 364 425 389 b 481 383 465 389 473 387 b 506 389 488 387 497 389 b 561 333 536 389 561 364 b 506 278 561 303 536 278 b 481 284 497 278 488 280 b 456 278 473 280 465 278 b 400 333 425 278 400 303 m 0 333 b 56 389 0 364 25 389 b 81 383 65 389 73 387 b 106 389 88 387 97 389 b 161 333 136 389 161 364 b 106 278 161 303 136 278 b 81 284 97 278 88 280 b 56 278 73 280 65 278 b 0 333 25 278 0 303 m 400 472 b 456 528 400 503 425 528 b 481 522 465 528 473 526 b 506 528 488 526 497 528 b 561 472 536 528 561 503 b 506 417 561 442 536 417 b 481 423 497 417 488 419 b 456 417 473 419 465 417 b 400 472 425 417 400 442 m 200 472 b 256 528 200 503 225 528 b 281 522 265 528 273 526 b 306 528 288 526 297 528 b 361 472 336 528 361 503 b 306 417 361 442 336 417 b 281 423 297 417 288 419 b 256 417 273 419 265 417 b 200 472 225 417 200 442 m 0 472 b 56 528 0 503 25 528 b 81 522 65 528 73 526 b 106 528 88 526 97 528 b 161 472 136 528 161 503 b 106 417 161 442 136 417 b 81 423 97 417 88 419 b 56 417 73 419 65 417 b 0 472 25 417 0 442 m 0 611 b 56 667 0 642 25 667 b 81 661 65 667 73 665 b 106 667 88 665 97 667 b 156 635 127 667 147 654 b 206 667 165 654 184 667 b 231 661 215 667 223 665 b 256 667 238 665 247 667 b 281 661 265 667 273 665 b 306 667 288 665 297 667 b 331 661 315 667 323 665 b 356 667 338 665 347 667 b 406 635 377 667 397 654 b 456 667 415 654 434 667 b 481 661 465 667 473 665 b 506 667 488 665 497 667 b 561 611 536 667 561 642 b 506 556 561 581 536 556 b 481 562 497 556 488 558 b 456 556 473 558 465 556 b 406 587 434 556 415 568 b 356 556 397 568 377 556 b 331 562 347 556 338 558 b 306 556 323 558 315 556 b 281 562 297 556 288 558 b 256 556 273 558 265 556 b 231 562 247 556 238 558 b 206 556 223 558 215 556 b 156 587 184 556 165 568 b 106 556 147 568 127 556 b 81 562 97 556 88 558 b 56 556 73 558 65 556 b 0 611 25 556 0 581 m 300 750 b 356 806 300 781 325 806 b 381 800 365 806 373 803 b 406 806 388 803 397 806 b 431 800 415 806 423 803 b 456 806 438 803 447 806 b 481 800 465 806 473 803 b 506 806 488 803 497 806 b 561 750 536 806 561 781 b 506 694 561 719 536 694 b 481 700 497 694 488 697 b 456 694 473 697 465 694 b 431 700 447 694 438 697 b 406 694 423 697 415 694 b 381 700 397 694 388 697 b 356 694 373 697 365 694 b 300 750 325 694 300 719 m 0 750 b 56 806 0 781 25 806 b 81 800 65 806 73 803 b 106 806 88 803 97 806 b 131 800 115 806 123 803 b 156 806 138 803 147 806 b 181 800 165 806 173 803 b 206 806 188 803 197 806 b 261 750 236 806 261 781 b 206 694 261 719 236 694 b 181 700 197 694 188 697 b 156 694 173 697 165 694 b 131 700 147 694 138 697 b 106 694 123 697 115 694 b 81 700 97 694 88 697 b 56 694 73 697 65 694 b 0 750 25 694 0 719 m 400 889 b 456 944 400 919 425 944 b 481 938 465 944 473 942 b 506 944 488 942 497 944 b 561 889 536 944 561 919 b 506 833 561 858 536 833 b 481 839 497 833 488 835 b 456 833 473 835 465 833 b 400 889 425 833 400 858 m 0 889 b 56 944 0 919 25 944 b 81 938 65 944 73 942 b 106 944 88 942 97 944 b 161 889 136 944 161 919 b 106 833 161 858 136 833 b 81 839 97 833 88 835 b 56 833 73 835 65 833 b 0 889 25 833 0 858 "},"N":{"ha":600,"x_min":0,"x_max":0,"o":"m 400 56 b 456 111 400 86 425 111 b 481 105 465 111 473 109 b 506 111 488 109 497 111 b 561 56 536 111 561 86 b 506 0 561 25 536 0 b 481 6 497 0 488 2 b 456 0 473 2 465 0 b 400 56 425 0 400 25 m 0 56 b 56 111 0 86 25 111 b 81 105 65 111 73 109 b 106 111 88 109 97 111 b 161 56 136 111 161 86 b 106 0 161 25 136 0 b 81 6 97 0 88 2 b 56 0 73 2 65 0 b 0 56 25 0 0 25 m 300 194 b 356 250 300 225 325 250 b 381 244 365 250 373 248 b 406 250 388 248 397 250 b 431 244 415 250 423 248 b 456 250 438 248 447 250 b 481 244 465 250 473 248 b 506 250 488 248 497 250 b 561 194 536 250 561 225 b 506 139 561 164 536 139 b 481 145 497 139 488 141 b 456 139 473 141 465 139 b 431 145 447 139 438 141 b 406 139 423 141 415 139 b 381 145 397 139 388 141 b 356 139 373 141 365 139 b 300 194 325 139 300 164 m 0 194 b 56 250 0 225 25 250 b 81 244 65 250 73 248 b 106 250 88 248 97 250 b 161 194 136 250 161 225 b 106 139 161 164 136 139 b 81 145 97 139 88 141 b 56 139 73 141 65 139 b 0 194 25 139 0 164 m 250 333 b 306 389 250 364 275 389 b 331 383 315 389 323 387 b 356 389 338 387 347 389 b 406 357 377 389 397 376 b 456 389 415 376 434 389 b 481 383 465 389 473 387 b 506 389 488 387 497 389 b 561 333 536 389 561 364 b 506 278 561 303 536 278 b 481 284 497 278 488 280 b 456 278 473 280 465 278 b 406 309 434 278 415 291 b 356 278 397 291 377 278 b 331 284 347 278 338 280 b 306 278 323 280 315 278 b 250 333 275 278 250 303 m 0 333 b 56 389 0 364 25 389 b 81 383 65 389 73 387 b 106 389 88 387 97 389 b 161 333 136 389 161 364 b 106 278 161 303 136 278 b 81 284 97 278 88 280 b 56 278 73 280 65 278 b 0 333 25 278 0 303 m 400 472 b 456 528 400 503 425 528 b 481 522 465 528 473 526 b 506 528 488 526 497 528 b 561 472 536 528 561 503 b 506 417 561 442 536 417 b 481 423 497 417 488 419 b 456 417 473 419 465 417 b 400 472 425 417 400 442 m 200 472 b 256 528 200 503 225 528 b 281 522 265 528 273 526 b 306 528 288 526 297 528 b 361 472 336 528 361 503 b 306 417 361 442 336 417 b 281 423 297 417 288 419 b 256 417 273 419 265 417 b 200 472 225 417 200 442 m 0 472 b 56 528 0 503 25 528 b 81 522 65 528 73 526 b 106 528 88 526 97 528 b 161 472 136 528 161 503 b 106 417 161 442 136 417 b 81 423 97 417 88 419 b 56 417 73 419 65 417 b 0 472 25 417 0 442 m 400 611 b 456 667 400 642 425 667 b 481 661 465 667 473 665 b 506 667 488 665 497 667 b 561 611 536 667 561 642 b 506 556 561 581 536 556 b 481 562 497 556 488 558 b 456 556 473 558 465 556 b 400 611 425 556 400 581 m 0 611 b 56 667 0 642 25 667 b 81 661 65 667 73 665 b 106 667 88 665 97 667 b 156 635 127 667 147 654 b 206 667 165 654 184 667 b 231 661 215 667 223 665 b 256 667 238 665 247 667 b 311 611 286 667 311 642 b 256 556 311 581 286 556 b 231 562 247 556 238 558 b 206 556 223 558 215 556 b 156 587 184 556 165 568 b 106 556 147 568 127 556 b 81 562 97 556 88 558 b 56 556 73 558 65 556 b 0 611 25 556 0 581 m 400 750 b 456 806 400 781 425 806 b 481 800 465 806 473 803 b 506 806 488 803 497 806 b 561 750 536 806 561 781 b 506 694 561 719 536 694 b 481 700 497 694 488 697 b 456 694 473 697 465 694 b 400 750 425 694 400 719 m 0 750 b 56 806 0 781 25 806 b 81 800 65 806 73 803 b 106 806 88 803 97 806 b 131 800 115 806 123 803 b 156 806 138 803 147 806 b 181 800 165 806 173 803 b 206 806 188 803 197 806 b 261 750 236 806 261 781 b 206 694 261 719 236 694 b 181 700 197 694 188 697 b 156 694 173 697 165 694 b 131 700 147 694 138 697 b 106 694 123 697 115 694 b 81 700 97 694 88 697 b 56 694 73 697 65 694 b 0 750 25 694 0 719 m 400 889 b 456 944 400 919 425 944 b 481 938 465 944 473 942 b 506 944 488 942 497 944 b 561 889 536 944 561 919 b 506 833 561 858 536 833 b 481 839 497 833 488 835 b 456 833 473 835 465 833 b 400 889 425 833 400 858 m 0 889 b 56 944 0 919 25 944 b 81 938 65 944 73 942 b 106 944 88 942 97 944 b 161 889 136 944 161 919 b 106 833 161 858 136 833 b 81 839 97 833 88 835 b 56 833 73 835 65 833 b 0 889 25 833 0 858 "},"O":{"ha":600,"x_min":0,"x_max":0,"o":"m 50 56 b 106 111 50 86 75 111 b 131 105 115 111 123 109 b 156 111 138 109 147 111 b 181 105 165 111 173 109 b 206 111 188 109 197 111 b 231 105 215 111 223 109 b 256 111 238 109 247 111 b 281 105 265 111 273 109 b 306 111 288 109 297 111 b 331 105 315 111 323 109 b 356 111 338 109 347 111 b 381 105 365 111 373 109 b 406 111 388 109 397 111 b 431 105 415 111 423 109 b 456 111 438 109 447 111 b 511 56 486 111 511 86 b 456 0 511 25 486 0 b 431 6 447 0 438 2 b 406 0 423 2 415 0 b 381 6 397 0 388 2 b 356 0 373 2 365 0 b 331 6 347 0 338 2 b 306 0 323 2 315 0 b 281 6 297 0 288 2 b 256 0 273 2 265 0 b 231 6 247 0 238 2 b 206 0 223 2 215 0 b 181 6 197 0 188 2 b 156 0 173 2 165 0 b 131 6 147 0 138 2 b 106 0 123 2 115 0 b 50 56 75 0 50 25 m 400 194 b 456 250 400 225 425 250 b 481 244 465 250 473 248 b 506 250 488 248 497 250 b 561 194 536 250 561 225 b 506 139 561 164 536 139 b 481 145 497 139 488 141 b 456 139 473 141 465 139 b 400 194 425 139 400 164 m 0 194 b 56 250 0 225 25 250 b 81 244 65 250 73 248 b 106 250 88 248 97 250 b 161 194 136 250 161 225 b 106 139 161 164 136 139 b 81 145 97 139 88 141 b 56 139 73 141 65 139 b 0 194 25 139 0 164 m 400 333 b 456 389 400 364 425 389 b 481 383 465 389 473 387 b 506 389 488 387 497 389 b 561 333 536 389 561 364 b 506 278 561 303 536 278 b 481 284 497 278 488 280 b 456 278 473 280 465 278 b 400 333 425 278 400 303 m 0 333 b 56 389 0 364 25 389 b 81 383 65 389 73 387 b 106 389 88 387 97 389 b 161 333 136 389 161 364 b 106 278 161 303 136 278 b 81 284 97 278 88 280 b 56 278 73 280 65 278 b 0 333 25 278 0 303 m 400 472 b 456 528 400 503 425 528 b 481 522 465 528 473 526 b 506 528 488 526 497 528 b 561 472 536 528 561 503 b 506 417 561 442 536 417 b 481 423 497 417 488 419 b 456 417 473 419 465 417 b 400 472 425 417 400 442 m 0 472 b 56 528 0 503 25 528 b 81 522 65 528 73 526 b 106 528 88 526 97 528 b 161 472 136 528 161 503 b 106 417 161 442 136 417 b 81 423 97 417 88 419 b 56 417 73 419 65 417 b 0 472 25 417 0 442 m 400 611 b 456 667 400 642 425 667 b 481 661 465 667 473 665 b 506 667 488 665 497 667 b 561 611 536 667 561 642 b 506 556 561 581 536 556 b 481 562 497 556 488 558 b 456 556 473 558 465 556 b 400 611 425 556 400 581 m 0 611 b 56 667 0 642 25 667 b 81 661 65 667 73 665 b 106 667 88 665 97 667 b 161 611 136 667 161 642 b 106 556 161 581 136 556 b 81 562 97 556 88 558 b 56 556 73 558 65 556 b 0 611 25 556 0 581 m 400 750 b 456 806 400 781 425 806 b 481 800 465 806 473 803 b 506 806 488 803 497 806 b 561 750 536 806 561 781 b 506 694 561 719 536 694 b 481 700 497 694 488 697 b 456 694 473 697 465 694 b 400 750 425 694 400 719 m 0 750 b 56 806 0 781 25 806 b 81 800 65 806 73 803 b 106 806 88 803 97 806 b 161 750 136 806 161 781 b 106 694 161 719 136 694 b 81 700 97 694 88 697 b 56 694 73 697 65 694 b 0 750 25 694 0 719 m 50 889 b 106 944 50 919 75 944 b 131 938 115 944 123 942 b 156 944 138 942 147 944 b 181 938 165 944 173 942 b 206 944 188 942 197 944 b 231 938 215 944 223 942 b 256 944 238 942 247 944 b 281 938 265 944 273 942 b 306 944 288 942 297 944 b 331 938 315 944 323 942 b 356 944 338 942 347 944 b 381 938 365 944 373 942 b 406 944 388 942 397 944 b 431 938 415 944 423 942 b 456 944 438 942 447 944 b 511 889 486 944 511 919 b 456 833 511 858 486 833 b 431 839 447 833 438 835 b 406 833 423 835 415 833 b 381 839 397 833 388 835 b 356 833 373 835 365 833 b 331 839 347 833 338 835 b 306 833 323 835 315 833 b 281 839 297 833 288 835 b 256 833 273 835 265 833 b 231 839 247 833 238 835 b 206 833 223 835 215 833 b 181 839 197 833 188 835 b 156 833 173 835 165 833 b 131 839 147 833 138 835 b 106 833 123 835 115 833 b 50 889 75 833 50 858 "},"P":{"ha":600,"x_min":0,"x_max":0,"o":"m 0 56 b 56 111 0 86 25 111 b 81 105 65 111 73 109 b 106 111 88 109 97 111 b 161 56 136 111 161 86 b 106 0 161 25 136 0 b 81 6 97 0 88 2 b 56 0 73 2 65 0 b 0 56 25 0 0 25 m 0 194 b 56 250 0 225 25 250 b 81 244 65 250 73 248 b 106 250 88 248 97 250 b 161 194 136 250 161 225 b 106 139 161 164 136 139 b 81 145 97 139 88 141 b 56 139 73 141 65 139 b 0 194 25 139 0 164 m 0 333 b 56 389 0 364 25 389 b 81 383 65 389 73 387 b 106 389 88 387 97 389 b 161 333 136 389 161 364 b 106 278 161 303 136 278 b 81 284 97 278 88 280 b 56 278 73 280 65 278 b 0 333 25 278 0 303 m 0 472 b 56 528 0 503 25 528 b 81 522 65 528 73 526 b 106 528 88 526 97 528 b 131 522 115 528 123 526 b 156 528 138 526 147 528 b 181 522 165 528 173 526 b 206 528 188 526 197 528 b 231 522 215 528 223 526 b 256 528 238 526 247 528 b 281 522 265 528 273 526 b 306 528 288 526 297 528 b 331 522 315 528 323 526 b 356 528 338 526 347 528 b 381 522 365 528 373 526 b 406 528 388 526 397 528 b 461 472 436 528 461 503 b 406 417 461 442 436 417 b 381 423 397 417 388 419 b 356 417 373 419 365 417 b 331 423 347 417 338 419 b 306 417 323 419 315 417 b 281 423 297 417 288 419 b 256 417 273 419 265 417 b 231 423 247 417 238 419 b 206 417 223 419 215 417 b 181 423 197 417 188 419 b 156 417 173 419 165 417 b 131 423 147 417 138 419 b 106 417 123 419 115 417 b 81 423 97 417 88 419 b 56 417 73 419 65 417 b 0 472 25 417 0 442 m 400 611 b 456 667 400 642 425 667 b 481 661 465 667 473 665 b 506 667 488 665 497 667 b 561 611 536 667 561 642 b 506 556 561 581 536 556 b 481 562 497 556 488 558 b 456 556 473 558 465 556 b 400 611 425 556 400 581 m 0 611 b 56 667 0 642 25 667 b 81 661 65 667 73 665 b 106 667 88 665 97 667 b 161 611 136 667 161 642 b 106 556 161 581 136 556 b 81 562 97 556 88 558 b 56 556 73 558 65 556 b 0 611 25 556 0 581 m 400 750 b 456 806 400 781 425 806 b 481 800 465 806 473 803 b 506 806 488 803 497 806 b 561 750 536 806 561 781 b 506 694 561 719 536 694 b 481 700 497 694 488 697 b 456 694 473 697 465 694 b 400 750 425 694 400 719 m 0 750 b 56 806 0 781 25 806 b 81 800 65 806 73 803 b 106 806 88 803 97 806 b 161 750 136 806 161 781 b 106 694 161 719 136 694 b 81 700 97 694 88 697 b 56 694 73 697 65 694 b 0 750 25 694 0 719 m 0 889 b 56 944 0 919 25 944 b 81 938 65 944 73 942 b 106 944 88 942 97 944 b 131 938 115 944 123 942 b 156 944 138 942 147 944 b 181 938 165 944 173 942 b 206 944 188 942 197 944 b 231 938 215 944 223 942 b 256 944 238 942 247 944 b 281 938 265 944 273 942 b 306 944 288 942 297 944 b 331 938 315 944 323 942 b 356 944 338 942 347 944 b 381 938 365 944 373 942 b 406 944 388 942 397 944 b 461 889 436 944 461 919 b 406 833 461 858 436 833 b 381 839 397 833 388 835 b 356 833 373 835 365 833 b 331 839 347 833 338 835 b 306 833 323 835 315 833 b 281 839 297 833 288 835 b 256 833 273 835 265 833 b 231 839 247 833 238 835 b 206 833 223 835 215 833 b 181 839 197 833 188 835 b 156 833 173 835 165 833 b 131 839 147 833 138 835 b 106 833 123 835 115 833 b 81 839 97 833 88 835 b 56 833 73 835 65 833 b 0 889 25 833 0 858 "},"Q":{"ha":600,"x_min":0,"x_max":0,"o":"m 50 56 b 106 111 50 86 75 111 b 131 105 115 111 123 109 b 156 111 138 109 147 111 b 181 105 165 111 173 109 b 206 111 188 109 197 111 b 231 105 215 111 223 109 b 256 111 238 109 247 111 b 281 105 265 111 273 109 b 306 111 288 109 297 111 b 331 105 315 111 323 109 b 356 111 338 109 347 111 b 406 80 377 111 397 98 b 456 111 415 98 434 111 b 481 105 465 111 473 109 b 506 111 488 109 497 111 b 561 56 536 111 561 86 b 506 0 561 25 536 0 b 481 6 497 0 488 2 b 456 0 473 2 465 0 b 406 31 434 0 415 13 b 356 0 397 13 377 0 b 331 6 347 0 338 2 b 306 0 323 2 315 0 b 281 6 297 0 288 2 b 256 0 273 2 265 0 b 231 6 247 0 238 2 b 206 0 223 2 215 0 b 181 6 197 0 188 2 b 156 0 173 2 165 0 b 131 6 147 0 138 2 b 106 0 123 2 115 0 b 50 56 75 0 50 25 m 300 194 b 356 250 300 225 325 250 b 381 244 365 250 373 248 b 406 250 388 248 397 250 b 461 194 436 250 461 225 b 406 139 461 164 436 139 b 381 145 397 139 388 141 b 356 139 373 141 365 139 b 300 194 325 139 300 164 m 0 194 b 56 250 0 225 25 250 b 81 244 65 250 73 248 b 106 250 88 248 97 250 b 161 194 136 250 161 225 b 106 139 161 164 136 139 b 81 145 97 139 88 141 b 56 139 73 141 65 139 b 0 194 25 139 0 164 m 400 333 b 456 389 400 364 425 389 b 481 383 465 389 473 387 b 506 389 488 387 497 389 b 561 333 536 389 561 364 b 506 278 561 303 536 278 b 481 284 497 278 488 280 b 456 278 473 280 465 278 b 400 333 425 278 400 303 m 200 333 b 256 389 200 364 225 389 b 281 383 265 389 273 387 b 306 389 288 387 297 389 b 361 333 336 389 361 364 b 306 278 361 303 336 278 b 281 284 297 278 288 280 b 256 278 273 280 265 278 b 200 333 225 278 200 303 m 0 333 b 56 389 0 364 25 389 b 81 383 65 389 73 387 b 106 389 88 387 97 389 b 161 333 136 389 161 364 b 106 278 161 303 136 278 b 81 284 97 278 88 280 b 56 278 73 280 65 278 b 0 333 25 278 0 303 m 400 472 b 456 528 400 503 425 528 b 481 522 465 528 473 526 b 506 528 488 526 497 528 b 561 472 536 528 561 503 b 506 417 561 442 536 417 b 481 423 497 417 488 419 b 456 417 473 419 465 417 b 400 472 425 417 400 442 m 0 472 b 56 528 0 503 25 528 b 81 522 65 528 73 526 b 106 528 88 526 97 528 b 161 472 136 528 161 503 b 106 417 161 442 136 417 b 81 423 97 417 88 419 b 56 417 73 419 65 417 b 0 472 25 417 0 442 m 400 611 b 456 667 400 642 425 667 b 481 661 465 667 473 665 b 506 667 488 665 497 667 b 561 611 536 667 561 642 b 506 556 561 581 536 556 b 481 562 497 556 488 558 b 456 556 473 558 465 556 b 400 611 425 556 400 581 m 0 611 b 56 667 0 642 25 667 b 81 661 65 667 73 665 b 106 667 88 665 97 667 b 161 611 136 667 161 642 b 106 556 161 581 136 556 b 81 562 97 556 88 558 b 56 556 73 558 65 556 b 0 611 25 556 0 581 m 400 750 b 456 806 400 781 425 806 b 481 800 465 806 473 803 b 506 806 488 803 497 806 b 561 750 536 806 561 781 b 506 694 561 719 536 694 b 481 700 497 694 488 697 b 456 694 473 697 465 694 b 400 750 425 694 400 719 m 0 750 b 56 806 0 781 25 806 b 81 800 65 806 73 803 b 106 806 88 803 97 806 b 161 750 136 806 161 781 b 106 694 161 719 136 694 b 81 700 97 694 88 697 b 56 694 73 697 65 694 b 0 750 25 694 0 719 m 50 889 b 106 944 50 919 75 944 b 131 938 115 944 123 942 b 156 944 138 942 147 944 b 181 938 165 944 173 942 b 206 944 188 942 197 944 b 231 938 215 944 223 942 b 256 944 238 942 247 944 b 281 938 265 944 273 942 b 306 944 288 942 297 944 b 331 938 315 944 323 942 b 356 944 338 942 347 944 b 381 938 365 944 373 942 b 406 944 388 942 397 944 b 431 938 415 944 423 942 b 456 944 438 942 447 944 b 511 889 486 944 511 919 b 456 833 511 858 486 833 b 431 839 447 833 438 835 b 406 833 423 835 415 833 b 381 839 397 833 388 835 b 356 833 373 835 365 833 b 331 839 347 833 338 835 b 306 833 323 835 315 833 b 281 839 297 833 288 835 b 256 833 273 835 265 833 b 231 839 247 833 238 835 b 206 833 223 835 215 833 b 181 839 197 833 188 835 b 156 833 173 835 165 833 b 131 839 147 833 138 835 b 106 833 123 835 115 833 b 50 889 75 833 50 858 "},"R":{"ha":600,"x_min":0,"x_max":0,"o":"m 400 56 b 456 111 400 86 425 111 b 481 105 465 111 473 109 b 506 111 488 109 497 111 b 561 56 536 111 561 86 b 506 0 561 25 536 0 b 481 6 497 0 488 2 b 456 0 473 2 465 0 b 400 56 425 0 400 25 m 0 56 b 56 111 0 86 25 111 b 81 105 65 111 73 109 b 106 111 88 109 97 111 b 161 56 136 111 161 86 b 106 0 161 25 136 0 b 81 6 97 0 88 2 b 56 0 73 2 65 0 b 0 56 25 0 0 25 m 350 194 b 406 250 350 225 375 250 b 431 244 415 250 423 248 b 456 250 438 248 447 250 b 511 194 486 250 511 225 b 456 139 511 164 486 139 b 431 145 447 139 438 141 b 406 139 423 141 415 139 b 350 194 375 139 350 164 m 0 194 b 56 250 0 225 25 250 b 81 244 65 250 73 248 b 106 250 88 248 97 250 b 161 194 136 250 161 225 b 106 139 161 164 136 139 b 81 145 97 139 88 141 b 56 139 73 141 65 139 b 0 194 25 139 0 164 m 300 333 b 356 389 300 364 325 389 b 381 383 365 389 373 387 b 406 389 388 387 397 389 b 461 333 436 389 461 364 b 406 278 461 303 436 278 b 381 284 397 278 388 280 b 356 278 373 280 365 278 b 300 333 325 278 300 303 m 0 333 b 56 389 0 364 25 389 b 81 383 65 389 73 387 b 106 389 88 387 97 389 b 161 333 136 389 161 364 b 106 278 161 303 136 278 b 81 284 97 278 88 280 b 56 278 73 280 65 278 b 0 333 25 278 0 303 m 0 472 b 56 528 0 503 25 528 b 81 522 65 528 73 526 b 106 528 88 526 97 528 b 131 522 115 528 123 526 b 156 528 138 526 147 528 b 181 522 165 528 173 526 b 206 528 188 526 197 528 b 231 522 215 528 223 526 b 256 528 238 526 247 528 b 281 522 265 528 273 526 b 306 528 288 526 297 528 b 331 522 315 528 323 526 b 356 528 338 526 347 528 b 381 522 365 528 373 526 b 406 528 388 526 397 528 b 461 472 436 528 461 503 b 406 417 461 442 436 417 b 381 423 397 417 388 419 b 356 417 373 419 365 417 b 331 423 347 417 338 419 b 306 417 323 419 315 417 b 281 423 297 417 288 419 b 256 417 273 419 265 417 b 231 423 247 417 238 419 b 206 417 223 419 215 417 b 181 423 197 417 188 419 b 156 417 173 419 165 417 b 131 423 147 417 138 419 b 106 417 123 419 115 417 b 81 423 97 417 88 419 b 56 417 73 419 65 417 b 0 472 25 417 0 442 m 400 611 b 456 667 400 642 425 667 b 481 661 465 667 473 665 b 506 667 488 665 497 667 b 561 611 536 667 561 642 b 506 556 561 581 536 556 b 481 562 497 556 488 558 b 456 556 473 558 465 556 b 400 611 425 556 400 581 m 0 611 b 56 667 0 642 25 667 b 81 661 65 667 73 665 b 106 667 88 665 97 667 b 161 611 136 667 161 642 b 106 556 161 581 136 556 b 81 562 97 556 88 558 b 56 556 73 558 65 556 b 0 611 25 556 0 581 m 400 750 b 456 806 400 781 425 806 b 481 800 465 806 473 803 b 506 806 488 803 497 806 b 561 750 536 806 561 781 b 506 694 561 719 536 694 b 481 700 497 694 488 697 b 456 694 473 697 465 694 b 400 750 425 694 400 719 m 0 750 b 56 806 0 781 25 806 b 81 800 65 806 73 803 b 106 806 88 803 97 806 b 161 750 136 806 161 781 b 106 694 161 719 136 694 b 81 700 97 694 88 697 b 56 694 73 697 65 694 b 0 750 25 694 0 719 m 0 889 b 56 944 0 919 25 944 b 81 938 65 944 73 942 b 106 944 88 942 97 944 b 131 938 115 944 123 942 b 156 944 138 942 147 944 b 181 938 165 944 173 942 b 206 944 188 942 197 944 b 231 938 215 944 223 942 b 256 944 238 942 247 944 b 281 938 265 944 273 942 b 306 944 288 942 297 944 b 331 938 315 944 323 942 b 356 944 338 942 347 944 b 381 938 365 944 373 942 b 406 944 388 942 397 944 b 461 889 436 944 461 919 b 406 833 461 858 436 833 b 381 839 397 833 388 835 b 356 833 373 835 365 833 b 331 839 347 833 338 835 b 306 833 323 835 315 833 b 281 839 297 833 288 835 b 256 833 273 835 265 833 b 231 839 247 833 238 835 b 206 833 223 835 215 833 b 181 839 197 833 188 835 b 156 833 173 835 165 833 b 131 839 147 833 138 835 b 106 833 123 835 115 833 b 81 839 97 833 88 835 b 56 833 73 835 65 833 b 0 889 25 833 0 858 "},"S":{"ha":600,"x_min":0,"x_max":0,"o":"m 50 56 b 106 111 50 86 75 111 b 131 105 115 111 123 109 b 156 111 138 109 147 111 b 181 105 165 111 173 109 b 206 111 188 109 197 111 b 231 105 215 111 223 109 b 256 111 238 109 247 111 b 281 105 265 111 273 109 b 306 111 288 109 297 111 b 331 105 315 111 323 109 b 356 111 338 109 347 111 b 381 105 365 111 373 109 b 406 111 388 109 397 111 b 431 105 415 111 423 109 b 456 111 438 109 447 111 b 511 56 486 111 511 86 b 456 0 511 25 486 0 b 431 6 447 0 438 2 b 406 0 423 2 415 0 b 381 6 397 0 388 2 b 356 0 373 2 365 0 b 331 6 347 0 338 2 b 306 0 323 2 315 0 b 281 6 297 0 288 2 b 256 0 273 2 265 0 b 231 6 247 0 238 2 b 206 0 223 2 215 0 b 181 6 197 0 188 2 b 156 0 173 2 165 0 b 131 6 147 0 138 2 b 106 0 123 2 115 0 b 50 56 75 0 50 25 m 400 194 b 456 250 400 225 425 250 b 481 244 465 250 473 248 b 506 250 488 248 497 250 b 561 194 536 250 561 225 b 506 139 561 164 536 139 b 481 145 497 139 488 141 b 456 139 473 141 465 139 b 400 194 425 139 400 164 m 0 194 b 56 250 0 225 25 250 b 81 244 65 250 73 248 b 106 250 88 248 97 250 b 161 194 136 250 161 225 b 106 139 161 164 136 139 b 81 145 97 139 88 141 b 56 139 73 141 65 139 b 0 194 25 139 0 164 m 400 333 b 456 389 400 364 425 389 b 481 383 465 389 473 387 b 506 389 488 387 497 389 b 561 333 536 389 561 364 b 506 278 561 303 536 278 b 481 284 497 278 488 280 b 456 278 473 280 465 278 b 400 333 425 278 400 303 m 50 472 b 106 528 50 503 75 528 b 131 522 115 528 123 526 b 156 528 138 526 147 528 b 181 522 165 528 173 526 b 206 528 188 526 197 528 b 231 522 215 528 223 526 b 256 528 238 526 247 528 b 281 522 265 528 273 526 b 306 528 288 526 297 528 b 331 522 315 528 323 526 b 356 528 338 526 347 528 b 381 522 365 528 373 526 b 406 528 388 526 397 528 b 431 522 415 528 423 526 b 456 528 438 526 447 528 b 511 472 486 528 511 503 b 456 417 511 442 486 417 b 431 423 447 417 438 419 b 406 417 423 419 415 417 b 381 423 397 417 388 419 b 356 417 373 419 365 417 b 331 423 347 417 338 419 b 306 417 323 419 315 417 b 281 423 297 417 288 419 b 256 417 273 419 265 417 b 231 423 247 417 238 419 b 206 417 223 419 215 417 b 181 423 197 417 188 419 b 156 417 173 419 165 417 b 131 423 147 417 138 419 b 106 417 123 419 115 417 b 50 472 75 417 50 442 m 0 611 b 56 667 0 642 25 667 b 81 661 65 667 73 665 b 106 667 88 665 97 667 b 161 611 136 667 161 642 b 106 556 161 581 136 556 b 81 562 97 556 88 558 b 56 556 73 558 65 556 b 0 611 25 556 0 581 m 400 750 b 456 806 400 781 425 806 b 481 800 465 806 473 803 b 506 806 488 803 497 806 b 561 750 536 806 561 781 b 506 694 561 719 536 694 b 481 700 497 694 488 697 b 456 694 473 697 465 694 b 400 750 425 694 400 719 m 0 750 b 56 806 0 781 25 806 b 81 800 65 806 73 803 b 106 806 88 803 97 806 b 161 750 136 806 161 781 b 106 694 161 719 136 694 b 81 700 97 694 88 697 b 56 694 73 697 65 694 b 0 750 25 694 0 719 m 50 889 b 106 944 50 919 75 944 b 131 938 115 944 123 942 b 156 944 138 942 147 944 b 181 938 165 944 173 942 b 206 944 188 942 197 944 b 231 938 215 944 223 942 b 256 944 238 942 247 944 b 281 938 265 944 273 942 b 306 944 288 942 297 944 b 331 938 315 944 323 942 b 356 944 338 942 347 944 b 381 938 365 944 373 942 b 406 944 388 942 397 944 b 431 938 415 944 423 942 b 456 944 438 942 447 944 b 511 889 486 944 511 919 b 456 833 511 858 486 833 b 431 839 447 833 438 835 b 406 833 423 835 415 833 b 381 839 397 833 388 835 b 356 833 373 835 365 833 b 331 839 347 833 338 835 b 306 833 323 835 315 833 b 281 839 297 833 288 835 b 256 833 273 835 265 833 b 231 839 247 833 238 835 b 206 833 223 835 215 833 b 181 839 197 833 188 835 b 156 833 173 835 165 833 b 131 839 147 833 138 835 b 106 833 123 835 115 833 b 50 889 75 833 50 858 "},"T":{"ha":600,"x_min":0,"x_max":0,"o":"m 200 56 b 256 111 200 86 225 111 b 281 105 265 111 273 109 b 306 111 288 109 297 111 b 361 56 336 111 361 86 b 306 0 361 25 336 0 b 281 6 297 0 288 2 b 256 0 273 2 265 0 b 200 56 225 0 200 25 m 200 194 b 256 250 200 225 225 250 b 281 244 265 250 273 248 b 306 250 288 248 297 250 b 361 194 336 250 361 225 b 306 139 361 164 336 139 b 281 145 297 139 288 141 b 256 139 273 141 265 139 b 200 194 225 139 200 164 m 200 333 b 256 389 200 364 225 389 b 281 383 265 389 273 387 b 306 389 288 387 297 389 b 361 333 336 389 361 364 b 306 278 361 303 336 278 b 281 284 297 278 288 280 b 256 278 273 280 265 278 b 200 333 225 278 200 303 m 200 472 b 256 528 200 503 225 528 b 281 522 265 528 273 526 b 306 528 288 526 297 528 b 361 472 336 528 361 503 b 306 417 361 442 336 417 b 281 423 297 417 288 419 b 256 417 273 419 265 417 b 200 472 225 417 200 442 m 200 611 b 256 667 200 642 225 667 b 281 661 265 667 273 665 b 306 667 288 665 297 667 b 361 611 336 667 361 642 b 306 556 361 581 336 556 b 281 562 297 556 288 558 b 256 556 273 558 265 556 b 200 611 225 556 200 581 m 200 750 b 256 806 200 781 225 806 b 281 800 265 806 273 803 b 306 806 288 803 297 806 b 361 750 336 806 361 781 b 306 694 361 719 336 694 b 281 700 297 694 288 697 b 256 694 273 697 265 694 b 200 750 225 694 200 719 m 0 889 b 56 944 0 919 25 944 b 81 938 65 944 73 942 b 106 944 88 942 97 944 b 131 938 115 944 123 942 b 156 944 138 942 147 944 b 181 938 165 944 173 942 b 206 944 188 942 197 944 b 231 938 215 944 223 942 b 256 944 238 942 247 944 b 281 938 265 944 273 942 b 306 944 288 942 297 944 b 331 938 315 944 323 942 b 356 944 338 942 347 944 b 381 938 365 944 373 942 b 406 944 388 942 397 944 b 431 938 415 944 423 942 b 456 944 438 942 447 944 b 481 938 465 944 473 942 b 506 944 488 942 497 944 b 561 889 536 944 561 919 b 506 833 561 858 536 833 b 481 839 497 833 488 835 b 456 833 473 835 465 833 b 431 839 447 833 438 835 b 406 833 423 835 415 833 b 381 839 397 833 388 835 b 356 833 373 835 365 833 b 331 839 347 833 338 835 b 306 833 323 835 315 833 b 281 839 297 833 288 835 b 256 833 273 835 265 833 b 231 839 247 833 238 835 b 206 833 223 835 215 833 b 181 839 197 833 188 835 b 156 833 173 835 165 833 b 131 839 147 833 138 835 b 106 833 123 835 115 833 b 81 839 97 833 88 835 b 56 833 73 835 65 833 b 0 889 25 833 0 858 "},"U":{"ha":600,"x_min":0,"x_max":0,"o":"m 50 56 b 106 111 50 86 75 111 b 131 105 115 111 123 109 b 156 111 138 109 147 111 b 181 105 165 111 173 109 b 206 111 188 109 197 111 b 231 105 215 111 223 109 b 256 111 238 109 247 111 b 281 105 265 111 273 109 b 306 111 288 109 297 111 b 331 105 315 111 323 109 b 356 111 338 109 347 111 b 381 105 365 111 373 109 b 406 111 388 109 397 111 b 431 105 415 111 423 109 b 456 111 438 109 447 111 b 511 56 486 111 511 86 b 456 0 511 25 486 0 b 431 6 447 0 438 2 b 406 0 423 2 415 0 b 381 6 397 0 388 2 b 356 0 373 2 365 0 b 331 6 347 0 338 2 b 306 0 323 2 315 0 b 281 6 297 0 288 2 b 256 0 273 2 265 0 b 231 6 247 0 238 2 b 206 0 223 2 215 0 b 181 6 197 0 188 2 b 156 0 173 2 165 0 b 131 6 147 0 138 2 b 106 0 123 2 115 0 b 50 56 75 0 50 25 m 400 194 b 456 250 400 225 425 250 b 481 244 465 250 473 248 b 506 250 488 248 497 250 b 561 194 536 250 561 225 b 506 139 561 164 536 139 b 481 145 497 139 488 141 b 456 139 473 141 465 139 b 400 194 425 139 400 164 m 0 194 b 56 250 0 225 25 250 b 81 244 65 250 73 248 b 106 250 88 248 97 250 b 161 194 136 250 161 225 b 106 139 161 164 136 139 b 81 145 97 139 88 141 b 56 139 73 141 65 139 b 0 194 25 139 0 164 m 400 333 b 456 389 400 364 425 389 b 481 383 465 389 473 387 b 506 389 488 387 497 389 b 561 333 536 389 561 364 b 506 278 561 303 536 278 b 481 284 497 278 488 280 b 456 278 473 280 465 278 b 400 333 425 278 400 303 m 0 333 b 56 389 0 364 25 389 b 81 383 65 389 73 387 b 106 389 88 387 97 389 b 161 333 136 389 161 364 b 106 278 161 303 136 278 b 81 284 97 278 88 280 b 56 278 73 280 65 278 b 0 333 25 278 0 303 m 400 472 b 456 528 400 503 425 528 b 481 522 465 528 473 526 b 506 528 488 526 497 528 b 561 472 536 528 561 503 b 506 417 561 442 536 417 b 481 423 497 417 488 419 b 456 417 473 419 465 417 b 400 472 425 417 400 442 m 0 472 b 56 528 0 503 25 528 b 81 522 65 528 73 526 b 106 528 88 526 97 528 b 161 472 136 528 161 503 b 106 417 161 442 136 417 b 81 423 97 417 88 419 b 56 417 73 419 65 417 b 0 472 25 417 0 442 m 400 611 b 456 667 400 642 425 667 b 481 661 465 667 473 665 b 506 667 488 665 497 667 b 561 611 536 667 561 642 b 506 556 561 581 536 556 b 481 562 497 556 488 558 b 456 556 473 558 465 556 b 400 611 425 556 400 581 m 0 611 b 56 667 0 642 25 667 b 81 661 65 667 73 665 b 106 667 88 665 97 667 b 161 611 136 667 161 642 b 106 556 161 581 136 556 b 81 562 97 556 88 558 b 56 556 73 558 65 556 b 0 611 25 556 0 581 m 400 750 b 456 806 400 781 425 806 b 481 800 465 806 473 803 b 506 806 488 803 497 806 b 561 750 536 806 561 781 b 506 694 561 719 536 694 b 481 700 497 694 488 697 b 456 694 473 697 465 694 b 400 750 425 694 400 719 m 0 750 b 56 806 0 781 25 806 b 81 800 65 806 73 803 b 106 806 88 803 97 806 b 161 750 136 806 161 781 b 106 694 161 719 136 694 b 81 700 97 694 88 697 b 56 694 73 697 65 694 b 0 750 25 694 0 719 m 400 889 b 456 944 400 919 425 944 b 481 938 465 944 473 942 b 506 944 488 942 497 944 b 561 889 536 944 561 919 b 506 833 561 858 536 833 b 481 839 497 833 488 835 b 456 833 473 835 465 833 b 400 889 425 833 400 858 m 0 889 b 56 944 0 919 25 944 b 81 938 65 944 73 942 b 106 944 88 942 97 944 b 161 889 136 944 161 919 b 106 833 161 858 136 833 b 81 839 97 833 88 835 b 56 833 73 835 65 833 b 0 889 25 833 0 858 "},"V":{"ha":600,"x_min":0,"x_max":0,"o":"m 200 56 b 256 111 200 86 225 111 b 281 105 265 111 273 109 b 306 111 288 109 297 111 b 361 56 336 111 361 86 b 306 0 361 25 336 0 b 281 6 297 0 288 2 b 256 0 273 2 265 0 b 200 56 225 0 200 25 m 150 194 b 206 250 150 225 175 250 b 231 244 215 250 223 248 b 256 250 238 248 247 250 b 281 244 265 250 273 248 b 306 250 288 248 297 250 b 331 244 315 250 323 248 b 356 250 338 248 347 250 b 411 194 386 250 411 225 b 356 139 411 164 386 139 b 331 145 347 139 338 141 b 306 139 323 141 315 139 b 281 145 297 139 288 141 b 256 139 273 141 265 139 b 231 145 247 139 238 141 b 206 139 223 141 215 139 b 150 194 175 139 150 164 m 300 333 b 356 389 300 364 325 389 b 381 383 365 389 373 387 b 406 389 388 387 397 389 b 461 333 436 389 461 364 b 406 278 461 303 436 278 b 381 284 397 278 388 280 b 356 278 373 280 365 278 b 300 333 325 278 300 303 m 100 333 b 156 389 100 364 125 389 b 181 383 165 389 173 387 b 206 389 188 387 197 389 b 261 333 236 389 261 364 b 206 278 261 303 236 278 b 181 284 197 278 188 280 b 156 278 173 280 165 278 b 100 333 125 278 100 303 m 350 472 b 406 528 350 503 375 528 b 431 522 415 528 423 526 b 456 528 438 526 447 528 b 511 472 486 528 511 503 b 456 417 511 442 486 417 b 431 423 447 417 438 419 b 406 417 423 419 415 417 b 350 472 375 417 350 442 m 50 472 b 106 528 50 503 75 528 b 131 522 115 528 123 526 b 156 528 138 526 147 528 b 211 472 186 528 211 503 b 156 417 211 442 186 417 b 131 423 147 417 138 419 b 106 417 123 419 115 417 b 50 472 75 417 50 442 m 400 611 b 456 667 400 642 425 667 b 481 661 465 667 473 665 b 506 667 488 665 497 667 b 561 611 536 667 561 642 b 506 556 561 581 536 556 b 481 562 497 556 488 558 b 456 556 473 558 465 556 b 400 611 425 556 400 581 m 0 611 b 56 667 0 642 25 667 b 81 661 65 667 73 665 b 106 667 88 665 97 667 b 161 611 136 667 161 642 b 106 556 161 581 136 556 b 81 562 97 556 88 558 b 56 556 73 558 65 556 b 0 611 25 556 0 581 m 400 750 b 456 806 400 781 425 806 b 481 800 465 806 473 803 b 506 806 488 803 497 806 b 561 750 536 806 561 781 b 506 694 561 719 536 694 b 481 700 497 694 488 697 b 456 694 473 697 465 694 b 400 750 425 694 400 719 m 0 750 b 56 806 0 781 25 806 b 81 800 65 806 73 803 b 106 806 88 803 97 806 b 161 750 136 806 161 781 b 106 694 161 719 136 694 b 81 700 97 694 88 697 b 56 694 73 697 65 694 b 0 750 25 694 0 719 m 400 889 b 456 944 400 919 425 944 b 481 938 465 944 473 942 b 506 944 488 942 497 944 b 561 889 536 944 561 919 b 506 833 561 858 536 833 b 481 839 497 833 488 835 b 456 833 473 835 465 833 b 400 889 425 833 400 858 m 0 889 b 56 944 0 919 25 944 b 81 938 65 944 73 942 b 106 944 88 942 97 944 b 161 889 136 944 161 919 b 106 833 161 858 136 833 b 81 839 97 833 88 835 b 56 833 73 835 65 833 b 0 889 25 833 0 858 "},"W":{"ha":600,"x_min":0,"x_max":0,"o":"m 350 56 b 406 111 350 86 375 111 b 431 105 415 111 423 109 b 456 111 438 109 447 111 b 511 56 486 111 511 86 b 456 0 511 25 486 0 b 431 6 447 0 438 2 b 406 0 423 2 415 0 b 350 56 375 0 350 25 m 50 56 b 106 111 50 86 75 111 b 131 105 115 111 123 109 b 156 111 138 109 147 111 b 211 56 186 111 211 86 b 156 0 211 25 186 0 b 131 6 147 0 138 2 b 106 0 123 2 115 0 b 50 56 75 0 50 25 m 300 194 b 356 250 300 225 325 250 b 381 244 365 250 373 248 b 406 250 388 248 397 250 b 431 244 415 250 423 248 b 456 250 438 248 447 250 b 481 244 465 250 473 248 b 506 250 488 248 497 250 b 561 194 536 250 561 225 b 506 139 561 164 536 139 b 481 145 497 139 488 141 b 456 139 473 141 465 139 b 431 145 447 139 438 141 b 406 139 423 141 415 139 b 381 145 397 139 388 141 b 356 139 373 141 365 139 b 300 194 325 139 300 164 m 0 194 b 56 250 0 225 25 250 b 81 244 65 250 73 248 b 106 250 88 248 97 250 b 131 244 115 250 123 248 b 156 250 138 248 147 250 b 181 244 165 250 173 248 b 206 250 188 248 197 250 b 261 194 236 250 261 225 b 206 139 261 164 236 139 b 181 145 197 139 188 141 b 156 139 173 141 165 139 b 131 145 147 139 138 141 b 106 139 123 141 115 139 b 81 145 97 139 88 141 b 56 139 73 141 65 139 b 0 194 25 139 0 164 m 0 333 b 56 389 0 364 25 389 b 81 383 65 389 73 387 b 106 389 88 387 97 389 b 156 357 127 389 147 376 b 206 389 165 376 184 389 b 231 383 215 389 223 387 b 256 389 238 387 247 389 b 281 383 265 389 273 387 b 306 389 288 387 297 389 b 331 383 315 389 323 387 b 356 389 338 387 347 389 b 406 357 377 389 397 376 b 456 389 415 376 434 389 b 481 383 465 389 473 387 b 506 389 488 387 497 389 b 561 333 536 389 561 364 b 506 278 561 303 536 278 b 481 284 497 278 488 280 b 456 278 473 280 465 278 b 406 309 434 278 415 291 b 356 278 397 291 377 278 b 331 284 347 278 338 280 b 306 278 323 280 315 278 b 281 284 297 278 288 280 b 256 278 273 280 265 278 b 231 284 247 278 238 280 b 206 278 223 280 215 278 b 156 309 184 278 165 291 b 106 278 147 291 127 278 b 81 284 97 278 88 280 b 56 278 73 280 65 278 b 0 333 25 278 0 303 m 400 472 b 456 528 400 503 425 528 b 481 522 465 528 473 526 b 506 528 488 526 497 528 b 561 472 536 528 561 503 b 506 417 561 442 536 417 b 481 423 497 417 488 419 b 456 417 473 419 465 417 b 400 472 425 417 400 442 m 200 472 b 256 528 200 503 225 528 b 281 522 265 528 273 526 b 306 528 288 526 297 528 b 361 472 336 528 361 503 b 306 417 361 442 336 417 b 281 423 297 417 288 419 b 256 417 273 419 265 417 b 200 472 225 417 200 442 m 0 472 b 56 528 0 503 25 528 b 81 522 65 528 73 526 b 106 528 88 526 97 528 b 161 472 136 528 161 503 b 106 417 161 442 136 417 b 81 423 97 417 88 419 b 56 417 73 419 65 417 b 0 472 25 417 0 442 m 400 611 b 456 667 400 642 425 667 b 481 661 465 667 473 665 b 506 667 488 665 497 667 b 561 611 536 667 561 642 b 506 556 561 581 536 556 b 481 562 497 556 488 558 b 456 556 473 558 465 556 b 400 611 425 556 400 581 m 200 611 b 256 667 200 642 225 667 b 281 661 265 667 273 665 b 306 667 288 665 297 667 b 361 611 336 667 361 642 b 306 556 361 581 336 556 b 281 562 297 556 288 558 b 256 556 273 558 265 556 b 200 611 225 556 200 581 m 0 611 b 56 667 0 642 25 667 b 81 661 65 667 73 665 b 106 667 88 665 97 667 b 161 611 136 667 161 642 b 106 556 161 581 136 556 b 81 562 97 556 88 558 b 56 556 73 558 65 556 b 0 611 25 556 0 581 m 400 750 b 456 806 400 781 425 806 b 481 800 465 806 473 803 b 506 806 488 803 497 806 b 561 750 536 806 561 781 b 506 694 561 719 536 694 b 481 700 497 694 488 697 b 456 694 473 697 465 694 b 400 750 425 694 400 719 m 0 750 b 56 806 0 781 25 806 b 81 800 65 806 73 803 b 106 806 88 803 97 806 b 161 750 136 806 161 781 b 106 694 161 719 136 694 b 81 700 97 694 88 697 b 56 694 73 697 65 694 b 0 750 25 694 0 719 m 400 889 b 456 944 400 919 425 944 b 481 938 465 944 473 942 b 506 944 488 942 497 944 b 561 889 536 944 561 919 b 506 833 561 858 536 833 b 481 839 497 833 488 835 b 456 833 473 835 465 833 b 400 889 425 833 400 858 m 0 889 b 56 944 0 919 25 944 b 81 938 65 944 73 942 b 106 944 88 942 97 944 b 161 889 136 944 161 919 b 106 833 161 858 136 833 b 81 839 97 833 88 835 b 56 833 73 835 65 833 b 0 889 25 833 0 858 "},"X":{"ha":600,"x_min":0,"x_max":0,"o":"m 350 56 b 406 111 350 86 375 111 b 431 105 415 111 423 109 b 456 111 438 109 447 111 b 511 56 486 111 511 86 b 456 0 511 25 486 0 b 431 6 447 0 438 2 b 406 0 423 2 415 0 b 350 56 375 0 350 25 m 50 56 b 106 111 50 86 75 111 b 131 105 115 111 123 109 b 156 111 138 109 147 111 b 211 56 186 111 211 86 b 156 0 211 25 186 0 b 131 6 147 0 138 2 b 106 0 123 2 115 0 b 50 56 75 0 50 25 m 300 194 b 356 250 300 225 325 250 b 381 244 365 250 373 248 b 406 250 388 248 397 250 b 461 194 436 250 461 225 b 406 139 461 164 436 139 b 381 145 397 139 388 141 b 356 139 373 141 365 139 b 300 194 325 139 300 164 m 100 194 b 156 250 100 225 125 250 b 181 244 165 250 173 248 b 206 250 188 248 197 250 b 261 194 236 250 261 225 b 206 139 261 164 236 139 b 181 145 197 139 188 141 b 156 139 173 141 165 139 b 100 194 125 139 100 164 m 150 333 b 206 389 150 364 175 389 b 231 383 215 389 223 387 b 256 389 238 387 247 389 b 281 383 265 389 273 387 b 306 389 288 387 297 389 b 331 383 315 389 323 387 b 356 389 338 387 347 389 b 411 333 386 389 411 364 b 356 278 411 303 386 278 b 331 284 347 278 338 280 b 306 278 323 280 315 278 b 281 284 297 278 288 280 b 256 278 273 280 265 278 b 231 284 247 278 238 280 b 206 278 223 280 215 278 b 150 333 175 278 150 303 m 200 472 b 256 528 200 503 225 528 b 281 522 265 528 273 526 b 306 528 288 526 297 528 b 361 472 336 528 361 503 b 306 417 361 442 336 417 b 281 423 297 417 288 419 b 256 417 273 419 265 417 b 200 472 225 417 200 442 m 150 611 b 206 667 150 642 175 667 b 231 661 215 667 223 665 b 256 667 238 665 247 667 b 281 661 265 667 273 665 b 306 667 288 665 297 667 b 331 661 315 667 323 665 b 356 667 338 665 347 667 b 411 611 386 667 411 642 b 356 556 411 581 386 556 b 331 562 347 556 338 558 b 306 556 323 558 315 556 b 281 562 297 556 288 558 b 256 556 273 558 265 556 b 231 562 247 556 238 558 b 206 556 223 558 215 556 b 150 611 175 556 150 581 m 300 750 b 356 806 300 781 325 806 b 381 800 365 806 373 803 b 406 806 388 803 397 806 b 461 750 436 806 461 781 b 406 694 461 719 436 694 b 381 700 397 694 388 697 b 356 694 373 697 365 694 b 300 750 325 694 300 719 m 100 750 b 156 806 100 781 125 806 b 181 800 165 806 173 803 b 206 806 188 803 197 806 b 261 750 236 806 261 781 b 206 694 261 719 236 694 b 181 700 197 694 188 697 b 156 694 173 697 165 694 b 100 750 125 694 100 719 m 350 889 b 406 944 350 919 375 944 b 431 938 415 944 423 942 b 456 944 438 942 447 944 b 511 889 486 944 511 919 b 456 833 511 858 486 833 b 431 839 447 833 438 835 b 406 833 423 835 415 833 b 350 889 375 833 350 858 m 50 889 b 106 944 50 919 75 944 b 131 938 115 944 123 942 b 156 944 138 942 147 944 b 211 889 186 944 211 919 b 156 833 211 858 186 833 b 131 839 147 833 138 835 b 106 833 123 835 115 833 b 50 889 75 833 50 858 "},"Y":{"ha":600,"x_min":0,"x_max":0,"o":"m 200 56 b 256 111 200 86 225 111 b 281 105 265 111 273 109 b 306 111 288 109 297 111 b 361 56 336 111 361 86 b 306 0 361 25 336 0 b 281 6 297 0 288 2 b 256 0 273 2 265 0 b 200 56 225 0 200 25 m 200 194 b 256 250 200 225 225 250 b 281 244 265 250 273 248 b 306 250 288 248 297 250 b 361 194 336 250 361 225 b 306 139 361 164 336 139 b 281 145 297 139 288 141 b 256 139 273 141 265 139 b 200 194 225 139 200 164 m 200 333 b 256 389 200 364 225 389 b 281 383 265 389 273 387 b 306 389 288 387 297 389 b 361 333 336 389 361 364 b 306 278 361 303 336 278 b 281 284 297 278 288 280 b 256 278 273 280 265 278 b 200 333 225 278 200 303 m 150 472 b 206 528 150 503 175 528 b 231 522 215 528 223 526 b 256 528 238 526 247 528 b 281 522 265 528 273 526 b 306 528 288 526 297 528 b 331 522 315 528 323 526 b 356 528 338 526 347 528 b 411 472 386 528 411 503 b 356 417 411 442 386 417 b 331 423 347 417 338 419 b 306 417 323 419 315 417 b 281 423 297 417 288 419 b 256 417 273 419 265 417 b 231 423 247 417 238 419 b 206 417 223 419 215 417 b 150 472 175 417 150 442 m 300 611 b 356 667 300 642 325 667 b 381 661 365 667 373 665 b 406 667 388 665 397 667 b 461 611 436 667 461 642 b 406 556 461 581 436 556 b 381 562 397 556 388 558 b 356 556 373 558 365 556 b 300 611 325 556 300 581 m 100 611 b 156 667 100 642 125 667 b 181 661 165 667 173 665 b 206 667 188 665 197 667 b 261 611 236 667 261 642 b 206 556 261 581 236 556 b 181 562 197 556 188 558 b 156 556 173 558 165 556 b 100 611 125 556 100 581 m 350 750 b 406 806 350 781 375 806 b 431 800 415 806 423 803 b 456 806 438 803 447 806 b 511 750 486 806 511 781 b 456 694 511 719 486 694 b 431 700 447 694 438 697 b 406 694 423 697 415 694 b 350 750 375 694 350 719 m 50 750 b 106 806 50 781 75 806 b 131 800 115 806 123 803 b 156 806 138 803 147 806 b 211 750 186 806 211 781 b 156 694 211 719 186 694 b 131 700 147 694 138 697 b 106 694 123 697 115 694 b 50 750 75 694 50 719 m 400 889 b 456 944 400 919 425 944 b 481 938 465 944 473 942 b 506 944 488 942 497 944 b 561 889 536 944 561 919 b 506 833 561 858 536 833 b 481 839 497 833 488 835 b 456 833 473 835 465 833 b 400 889 425 833 400 858 m 0 889 b 56 944 0 919 25 944 b 81 938 65 944 73 942 b 106 944 88 942 97 944 b 161 889 136 944 161 919 b 106 833 161 858 136 833 b 81 839 97 833 88 835 b 56 833 73 835 65 833 b 0 889 25 833 0 858 "},"Z":{"ha":600,"x_min":0,"x_max":0,"o":"m 50 56 b 106 111 50 86 75 111 b 131 105 115 111 123 109 b 156 111 138 109 147 111 b 181 105 165 111 173 109 b 206 111 188 109 197 111 b 231 105 215 111 223 109 b 256 111 238 109 247 111 b 281 105 265 111 273 109 b 306 111 288 109 297 111 b 331 105 315 111 323 109 b 356 111 338 109 347 111 b 381 105 365 111 373 109 b 406 111 388 109 397 111 b 431 105 415 111 423 109 b 456 111 438 109 447 111 b 511 56 486 111 511 86 b 456 0 511 25 486 0 b 431 6 447 0 438 2 b 406 0 423 2 415 0 b 381 6 397 0 388 2 b 356 0 373 2 365 0 b 331 6 347 0 338 2 b 306 0 323 2 315 0 b 281 6 297 0 288 2 b 256 0 273 2 265 0 b 231 6 247 0 238 2 b 206 0 223 2 215 0 b 181 6 197 0 188 2 b 156 0 173 2 165 0 b 131 6 147 0 138 2 b 106 0 123 2 115 0 b 50 56 75 0 50 25 m 100 194 b 156 250 100 225 125 250 b 181 244 165 250 173 248 b 206 250 188 248 197 250 b 261 194 236 250 261 225 b 206 139 261 164 236 139 b 181 145 197 139 188 141 b 156 139 173 141 165 139 b 100 194 125 139 100 164 m 150 333 b 206 389 150 364 175 389 b 231 383 215 389 223 387 b 256 389 238 387 247 389 b 311 333 286 389 311 364 b 256 278 311 303 286 278 b 231 284 247 278 238 280 b 206 278 223 280 215 278 b 150 333 175 278 150 303 m 200 472 b 256 528 200 503 225 528 b 281 522 265 528 273 526 b 306 528 288 526 297 528 b 361 472 336 528 361 503 b 306 417 361 442 336 417 b 281 423 297 417 288 419 b 256 417 273 419 265 417 b 200 472 225 417 200 442 m 250 611 b 306 667 250 642 275 667 b 331 661 315 667 323 665 b 356 667 338 665 347 667 b 411 611 386 667 411 642 b 356 556 411 581 386 556 b 331 562 347 556 338 558 b 306 556 323 558 315 556 b 250 611 275 556 250 581 m 300 750 b 356 806 300 781 325 806 b 381 800 365 806 373 803 b 406 806 388 803 397 806 b 461 750 436 806 461 781 b 406 694 461 719 436 694 b 381 700 397 694 388 697 b 356 694 373 697 365 694 b 300 750 325 694 300 719 m 50 889 b 106 944 50 919 75 944 b 131 938 115 944 123 942 b 156 944 138 942 147 944 b 181 938 165 944 173 942 b 206 944 188 942 197 944 b 231 938 215 944 223 942 b 256 944 238 942 247 944 b 281 938 265 944 273 942 b 306 944 288 942 297 944 b 331 938 315 944 323 942 b 356 944 338 942 347 944 b 381 938 365 944 373 942 b 406 944 388 942 397 944 b 431 938 415 944 423 942 b 456 944 438 942 447 944 b 511 889 486 944 511 919 b 456 833 511 858 486 833 b 431 839 447 833 438 835 b 406 833 423 835 415 833 b 381 839 397 833 388 835 b 356 833 373 835 365 833 b 331 839 347 833 338 835 b 306 833 323 835 315 833 b 281 839 297 833 288 835 b 256 833 273 835 265 833 b 231 839 247 833 238 835 b 206 833 223 835 215 833 b 181 839 197 833 188 835 b 156 833 173 835 165 833 b 131 839 147 833 138 835 b 106 833 123 835 115 833 b 50 889 75 833 50 858 "},"[":{"ha":600,"x_min":0,"x_max":0,"o":"m 100 56 b 156 111 100 86 125 111 b 181 105 165 111 173 109 b 206 111 188 109 197 111 b 231 105 215 111 223 109 b 256 111 238 109 247 111 b 281 105 265 111 273 109 b 306 111 288 109 297 111 b 331 105 315 111 323 109 b 356 111 338 109 347 111 b 381 105 365 111 373 109 b 406 111 388 109 397 111 b 461 56 436 111 461 86 b 406 0 461 25 436 0 b 381 6 397 0 388 2 b 356 0 373 2 365 0 b 331 6 347 0 338 2 b 306 0 323 2 315 0 b 281 6 297 0 288 2 b 256 0 273 2 265 0 b 231 6 247 0 238 2 b 206 0 223 2 215 0 b 181 6 197 0 188 2 b 156 0 173 2 165 0 b 100 56 125 0 100 25 m 100 194 b 156 250 100 225 125 250 b 181 244 165 250 173 248 b 206 250 188 248 197 250 b 261 194 236 250 261 225 b 206 139 261 164 236 139 b 181 145 197 139 188 141 b 156 139 173 141 165 139 b 100 194 125 139 100 164 m 100 333 b 156 389 100 364 125 389 b 181 383 165 389 173 387 b 206 389 188 387 197 389 b 261 333 236 389 261 364 b 206 278 261 303 236 278 b 181 284 197 278 188 280 b 156 278 173 280 165 278 b 100 333 125 278 100 303 m 100 472 b 156 528 100 503 125 528 b 181 522 165 528 173 526 b 206 528 188 526 197 528 b 261 472 236 528 261 503 b 206 417 261 442 236 417 b 181 423 197 417 188 419 b 156 417 173 419 165 417 b 100 472 125 417 100 442 m 100 611 b 156 667 100 642 125 667 b 181 661 165 667 173 665 b 206 667 188 665 197 667 b 261 611 236 667 261 642 b 206 556 261 581 236 556 b 181 562 197 556 188 558 b 156 556 173 558 165 556 b 100 611 125 556 100 581 m 100 750 b 156 806 100 781 125 806 b 181 800 165 806 173 803 b 206 806 188 803 197 806 b 261 750 236 806 261 781 b 206 694 261 719 236 694 b 181 700 197 694 188 697 b 156 694 173 697 165 694 b 100 750 125 694 100 719 m 100 889 b 156 944 100 919 125 944 b 181 938 165 944 173 942 b 206 944 188 942 197 944 b 231 938 215 944 223 942 b 256 944 238 942 247 944 b 281 938 265 944 273 942 b 306 944 288 942 297 944 b 331 938 315 944 323 942 b 356 944 338 942 347 944 b 381 938 365 944 373 942 b 406 944 388 942 397 944 b 461 889 436 944 461 919 b 406 833 461 858 436 833 b 381 839 397 833 388 835 b 356 833 373 835 365 833 b 331 839 347 833 338 835 b 306 833 323 835 315 833 b 281 839 297 833 288 835 b 256 833 273 835 265 833 b 231 839 247 833 238 835 b 206 833 223 835 215 833 b 181 839 197 833 188 835 b 156 833 173 835 165 833 b 100 889 125 833 100 858 "},"\\":{"ha":600,"x_min":0,"x_max":0,"o":"m 350 56 b 406 111 350 86 375 111 b 431 105 415 111 423 109 b 456 111 438 109 447 111 b 511 56 486 111 511 86 b 456 0 511 25 486 0 b 431 6 447 0 438 2 b 406 0 423 2 415 0 b 350 56 375 0 350 25 m 300 194 b 356 250 300 225 325 250 b 381 244 365 250 373 248 b 406 250 388 248 397 250 b 461 194 436 250 461 225 b 406 139 461 164 436 139 b 381 145 397 139 388 141 b 356 139 373 141 365 139 b 300 194 325 139 300 164 m 250 333 b 306 389 250 364 275 389 b 331 383 315 389 323 387 b 356 389 338 387 347 389 b 411 333 386 389 411 364 b 356 278 411 303 386 278 b 331 284 347 278 338 280 b 306 278 323 280 315 278 b 250 333 275 278 250 303 m 200 472 b 256 528 200 503 225 528 b 281 522 265 528 273 526 b 306 528 288 526 297 528 b 361 472 336 528 361 503 b 306 417 361 442 336 417 b 281 423 297 417 288 419 b 256 417 273 419 265 417 b 200 472 225 417 200 442 m 150 611 b 206 667 150 642 175 667 b 231 661 215 667 223 665 b 256 667 238 665 247 667 b 311 611 286 667 311 642 b 256 556 311 581 286 556 b 231 562 247 556 238 558 b 206 556 223 558 215 556 b 150 611 175 556 150 581 m 100 750 b 156 806 100 781 125 806 b 181 800 165 806 173 803 b 206 806 188 803 197 806 b 261 750 236 806 261 781 b 206 694 261 719 236 694 b 181 700 197 694 188 697 b 156 694 173 697 165 694 b 100 750 125 694 100 719 m 50 889 b 106 944 50 919 75 944 b 131 938 115 944 123 942 b 156 944 138 942 147 944 b 211 889 186 944 211 919 b 156 833 211 858 186 833 b 131 839 147 833 138 835 b 106 833 123 835 115 833 b 50 889 75 833 50 858 "},"]":{"ha":600,"x_min":0,"x_max":0,"o":"m 100 56 b 156 111 100 86 125 111 b 181 105 165 111 173 109 b 206 111 188 109 197 111 b 231 105 215 111 223 109 b 256 111 238 109 247 111 b 281 105 265 111 273 109 b 306 111 288 109 297 111 b 331 105 315 111 323 109 b 356 111 338 109 347 111 b 381 105 365 111 373 109 b 406 111 388 109 397 111 b 461 56 436 111 461 86 b 406 0 461 25 436 0 b 381 6 397 0 388 2 b 356 0 373 2 365 0 b 331 6 347 0 338 2 b 306 0 323 2 315 0 b 281 6 297 0 288 2 b 256 0 273 2 265 0 b 231 6 247 0 238 2 b 206 0 223 2 215 0 b 181 6 197 0 188 2 b 156 0 173 2 165 0 b 100 56 125 0 100 25 m 300 194 b 356 250 300 225 325 250 b 381 244 365 250 373 248 b 406 250 388 248 397 250 b 461 194 436 250 461 225 b 406 139 461 164 436 139 b 381 145 397 139 388 141 b 356 139 373 141 365 139 b 300 194 325 139 300 164 m 300 333 b 356 389 300 364 325 389 b 381 383 365 389 373 387 b 406 389 388 387 397 389 b 461 333 436 389 461 364 b 406 278 461 303 436 278 b 381 284 397 278 388 280 b 356 278 373 280 365 278 b 300 333 325 278 300 303 m 300 472 b 356 528 300 503 325 528 b 381 522 365 528 373 526 b 406 528 388 526 397 528 b 461 472 436 528 461 503 b 406 417 461 442 436 417 b 381 423 397 417 388 419 b 356 417 373 419 365 417 b 300 472 325 417 300 442 m 300 611 b 356 667 300 642 325 667 b 381 661 365 667 373 665 b 406 667 388 665 397 667 b 461 611 436 667 461 642 b 406 556 461 581 436 556 b 381 562 397 556 388 558 b 356 556 373 558 365 556 b 300 611 325 556 300 581 m 300 750 b 356 806 300 781 325 806 b 381 800 365 806 373 803 b 406 806 388 803 397 806 b 461 750 436 806 461 781 b 406 694 461 719 436 694 b 381 700 397 694 388 697 b 356 694 373 697 365 694 b 300 750 325 694 300 719 m 100 889 b 156 944 100 919 125 944 b 181 938 165 944 173 942 b 206 944 188 942 197 944 b 231 938 215 944 223 942 b 256 944 238 942 247 944 b 281 938 265 944 273 942 b 306 944 288 942 297 944 b 331 938 315 944 323 942 b 356 944 338 942 347 944 b 381 938 365 944 373 942 b 406 944 388 942 397 944 b 461 889 436 944 461 919 b 406 833 461 858 436 833 b 381 839 397 833 388 835 b 356 833 373 835 365 833 b 331 839 347 833 338 835 b 306 833 323 835 315 833 b 281 839 297 833 288 835 b 256 833 273 835 265 833 b 231 839 247 833 238 835 b 206 833 223 835 215 833 b 181 839 197 833 188 835 b 156 833 173 835 165 833 b 100 889 125 833 100 858 "},"^":{"ha":600,"x_min":0,"x_max":0,"o":"m 400 611 b 456 667 400 642 425 667 b 481 661 465 667 473 665 b 506 667 488 665 497 667 b 561 611 536 667 561 642 b 506 556 561 581 536 556 b 481 562 497 556 488 558 b 456 556 473 558 465 556 b 400 611 425 556 400 581 m 0 611 b 56 667 0 642 25 667 b 81 661 65 667 73 665 b 106 667 88 665 97 667 b 161 611 136 667 161 642 b 106 556 161 581 136 556 b 81 562 97 556 88 558 b 56 556 73 558 65 556 b 0 611 25 556 0 581 m 300 750 b 356 806 300 781 325 806 b 381 800 365 806 373 803 b 406 806 388 803 397 806 b 461 750 436 806 461 781 b 406 694 461 719 436 694 b 381 700 397 694 388 697 b 356 694 373 697 365 694 b 300 750 325 694 300 719 m 100 750 b 156 806 100 781 125 806 b 181 800 165 806 173 803 b 206 806 188 803 197 806 b 261 750 236 806 261 781 b 206 694 261 719 236 694 b 181 700 197 694 188 697 b 156 694 173 697 165 694 b 100 750 125 694 100 719 m 200 889 b 256 944 200 919 225 944 b 281 938 265 944 273 942 b 306 944 288 942 297 944 b 361 889 336 944 361 919 b 306 833 361 858 336 833 b 281 839 297 833 288 835 b 256 833 273 835 265 833 b 200 889 225 833 200 858 "},"_":{"ha":600,"x_min":0,"x_max":0,"o":"m 0 -222 b 56 -167 0 -192 25 -167 b 81 -173 65 -167 73 -169 b 106 -167 88 -169 97 -167 b 131 -173 115 -167 123 -169 b 156 -167 138 -169 147 -167 b 181 -173 165 -167 173 -169 b 206 -167 188 -169 197 -167 b 231 -173 215 -167 223 -169 b 256 -167 238 -169 247 -167 b 281 -173 265 -167 273 -169 b 306 -167 288 -169 297 -167 b 331 -173 315 -167 323 -169 b 356 -167 338 -169 347 -167 b 381 -173 365 -167 373 -169 b 406 -167 388 -169 397 -167 b 431 -173 415 -167 423 -169 b 456 -167 438 -169 447 -167 b 481 -173 465 -167 473 -169 b 506 -167 488 -169 497 -167 b 561 -222 536 -167 561 -192 b 506 -278 561 -253 536 -278 b 481 -272 497 -278 488 -276 b 456 -278 473 -276 465 -278 b 431 -272 447 -278 438 -276 b 406 -278 423 -276 415 -278 b 381 -272 397 -278 388 -276 b 356 -278 373 -276 365 -278 b 331 -272 347 -278 338 -276 b 306 -278 323 -276 315 -278 b 281 -272 297 -278 288 -276 b 256 -278 273 -276 265 -278 b 231 -272 247 -278 238 -276 b 206 -278 223 -276 215 -278 b 181 -272 197 -278 188 -276 b 156 -278 173 -276 165 -278 b 131 -272 147 -278 138 -276 b 106 -278 123 -276 115 -278 b 81 -272 97 -278 88 -276 b 56 -278 73 -276 65 -278 b 0 -222 25 -278 0 -253 "},"`":{"ha":600,"x_min":0,"x_max":0,"o":"m 200 750 b 256 806 200 781 225 806 b 281 800 265 806 273 803 b 306 806 288 803 297 806 b 361 750 336 806 361 781 b 306 694 361 719 336 694 b 281 700 297 694 288 697 b 256 694 273 697 265 694 b 200 750 225 694 200 719 m 150 889 b 206 944 150 919 175 944 b 231 938 215 944 223 942 b 256 944 238 942 247 944 b 311 889 286 944 311 919 b 256 833 311 858 286 833 b 231 839 247 833 238 835 b 206 833 223 835 215 833 b 150 889 175 833 150 858 "},"a":{"ha":600,"x_min":0,"x_max":0,"o":"m 50 56 b 106 111 50 86 75 111 b 131 105 115 111 123 109 b 156 111 138 109 147 111 b 181 105 165 111 173 109 b 206 111 188 109 197 111 b 231 105 215 111 223 109 b 256 111 238 109 247 111 b 281 105 265 111 273 109 b 306 111 288 109 297 111 b 331 105 315 111 323 109 b 356 111 338 109 347 111 b 406 80 377 111 397 98 b 456 111 415 98 434 111 b 481 105 465 111 473 109 b 506 111 488 109 497 111 b 561 56 536 111 561 86 b 506 0 561 25 536 0 b 481 6 497 0 488 2 b 456 0 473 2 465 0 b 406 31 434 0 415 13 b 356 0 397 13 377 0 b 331 6 347 0 338 2 b 306 0 323 2 315 0 b 281 6 297 0 288 2 b 256 0 273 2 265 0 b 231 6 247 0 238 2 b 206 0 223 2 215 0 b 181 6 197 0 188 2 b 156 0 173 2 165 0 b 131 6 147 0 138 2 b 106 0 123 2 115 0 b 50 56 75 0 50 25 m 350 194 b 406 250 350 225 375 250 b 431 244 415 250 423 248 b 456 250 438 248 447 250 b 511 194 486 250 511 225 b 456 139 511 164 486 139 b 431 145 447 139 438 141 b 406 139 423 141 415 139 b 350 194 375 139 350 164 m 0 194 b 56 250 0 225 25 250 b 81 244 65 250 73 248 b 106 250 88 248 97 250 b 161 194 136 250 161 225 b 106 139 161 164 136 139 b 81 145 97 139 88 141 b 56 139 73 141 65 139 b 0 194 25 139 0 164 m 50 333 b 106 389 50 364 75 389 b 131 383 115 389 123 387 b 156 389 138 387 147 389 b 181 383 165 389 173 387 b 206 389 188 387 197 389 b 231 383 215 389 223 387 b 256 389 238 387 247 389 b 281 383 265 389 273 387 b 306 389 288 387 297 389 b 331 383 315 389 323 387 b 356 389 338 387 347 389 b 381 383 365 389 373 387 b 406 389 388 387 397 389 b 431 383 415 389 423 387 b 456 389 438 387 447 389 b 511 333 486 389 511 364 b 456 278 511 303 486 278 b 431 284 447 278 438 280 b 406 278 423 280 415 278 b 381 284 397 278 388 280 b 356 278 373 280 365 278 b 331 284 347 278 338 280 b 306 278 323 280 315 278 b 281 284 297 278 288 280 b 256 278 273 280 265 278 b 231 284 247 278 238 280 b 206 278 223 280 215 278 b 181 284 197 278 188 280 b 156 278 173 280 165 278 b 131 284 147 278 138 280 b 106 278 123 280 115 278 b 50 333 75 278 50 303 m 350 472 b 406 528 350 503 375 528 b 431 522 415 528 423 526 b 456 528 438 526 447 528 b 511 472 486 528 511 503 b 456 417 511 442 486 417 b 431 423 447 417 438 419 b 406 417 423 419 415 417 b 350 472 375 417 350 442 m 100 611 b 156 667 100 642 125 667 b 181 661 165 667 173 665 b 206 667 188 665 197 667 b 231 661 215 667 223 665 b 256 667 238 665 247 667 b 281 661 265 667 273 665 b 306 667 288 665 297 667 b 331 661 315 667 323 665 b 356 667 338 665 347 667 b 381 661 365 667 373 665 b 406 667 388 665 397 667 b 461 611 436 667 461 642 b 406 556 461 581 436 556 b 381 562 397 556 388 558 b 356 556 373 558 365 556 b 331 562 347 556 338 558 b 306 556 323 558 315 556 b 281 562 297 556 288 558 b 256 556 273 558 265 556 b 231 562 247 556 238 558 b 206 556 223 558 215 556 b 181 562 197 556 188 558 b 156 556 173 558 165 556 b 100 611 125 556 100 581 "},"b":{"ha":600,"x_min":0,"x_max":0,"o":"m 0 56 b 56 111 0 86 25 111 b 81 105 65 111 73 109 b 106 111 88 109 97 111 b 131 105 115 111 123 109 b 156 111 138 109 147 111 b 181 105 165 111 173 109 b 206 111 188 109 197 111 b 231 105 215 111 223 109 b 256 111 238 109 247 111 b 281 105 265 111 273 109 b 306 111 288 109 297 111 b 331 105 315 111 323 109 b 356 111 338 109 347 111 b 381 105 365 111 373 109 b 406 111 388 109 397 111 b 461 56 436 111 461 86 b 406 0 461 25 436 0 b 381 6 397 0 388 2 b 356 0 373 2 365 0 b 331 6 347 0 338 2 b 306 0 323 2 315 0 b 281 6 297 0 288 2 b 256 0 273 2 265 0 b 231 6 247 0 238 2 b 206 0 223 2 215 0 b 181 6 197 0 188 2 b 156 0 173 2 165 0 b 131 6 147 0 138 2 b 106 0 123 2 115 0 b 81 6 97 0 88 2 b 56 0 73 2 65 0 b 0 56 25 0 0 25 m 350 194 b 406 250 350 225 375 250 b 431 244 415 250 423 248 b 456 250 438 248 447 250 b 511 194 486 250 511 225 b 456 139 511 164 486 139 b 431 145 447 139 438 141 b 406 139 423 141 415 139 b 350 194 375 139 350 164 m 0 194 b 56 250 0 225 25 250 b 81 244 65 250 73 248 b 106 250 88 248 97 250 b 161 194 136 250 161 225 b 106 139 161 164 136 139 b 81 145 97 139 88 141 b 56 139 73 141 65 139 b 0 194 25 139 0 164 m 350 333 b 406 389 350 364 375 389 b 431 383 415 389 423 387 b 456 389 438 387 447 389 b 511 333 486 389 511 364 b 456 278 511 303 486 278 b 431 284 447 278 438 280 b 406 278 423 280 415 278 b 350 333 375 278 350 303 m 0 333 b 56 389 0 364 25 389 b 81 383 65 389 73 387 b 106 389 88 387 97 389 b 161 333 136 389 161 364 b 106 278 161 303 136 278 b 81 284 97 278 88 280 b 56 278 73 280 65 278 b 0 333 25 278 0 303 m 350 472 b 406 528 350 503 375 528 b 431 522 415 528 423 526 b 456 528 438 526 447 528 b 511 472 486 528 511 503 b 456 417 511 442 486 417 b 431 423 447 417 438 419 b 406 417 423 419 415 417 b 350 472 375 417 350 442 m 0 472 b 56 528 0 503 25 528 b 81 522 65 528 73 526 b 106 528 88 526 97 528 b 161 472 136 528 161 503 b 106 417 161 442 136 417 b 81 423 97 417 88 419 b 56 417 73 419 65 417 b 0 472 25 417 0 442 m 0 611 b 56 667 0 642 25 667 b 81 661 65 667 73 665 b 106 667 88 665 97 667 b 131 661 115 667 123 665 b 156 667 138 665 147 667 b 181 661 165 667 173 665 b 206 667 188 665 197 667 b 231 661 215 667 223 665 b 256 667 238 665 247 667 b 281 661 265 667 273 665 b 306 667 288 665 297 667 b 331 661 315 667 323 665 b 356 667 338 665 347 667 b 381 661 365 667 373 665 b 406 667 388 665 397 667 b 461 611 436 667 461 642 b 406 556 461 581 436 556 b 381 562 397 556 388 558 b 356 556 373 558 365 556 b 331 562 347 556 338 558 b 306 556 323 558 315 556 b 281 562 297 556 288 558 b 256 556 273 558 265 556 b 231 562 247 556 238 558 b 206 556 223 558 215 556 b 181 562 197 556 188 558 b 156 556 173 558 165 556 b 131 562 147 556 138 558 b 106 556 123 558 115 556 b 81 562 97 556 88 558 b 56 556 73 558 65 556 b 0 611 25 556 0 581 m 0 750 b 56 806 0 781 25 806 b 81 800 65 806 73 803 b 106 806 88 803 97 806 b 161 750 136 806 161 781 b 106 694 161 719 136 694 b 81 700 97 694 88 697 b 56 694 73 697 65 694 b 0 750 25 694 0 719 m 0 889 b 56 944 0 919 25 944 b 81 938 65 944 73 942 b 106 944 88 942 97 944 b 161 889 136 944 161 919 b 106 833 161 858 136 833 b 81 839 97 833 88 835 b 56 833 73 835 65 833 b 0 889 25 833 0 858 "},"c":{"ha":600,"x_min":0,"x_max":0,"o":"m 50 56 b 106 111 50 86 75 111 b 131 105 115 111 123 109 b 156 111 138 109 147 111 b 181 105 165 111 173 109 b 206 111 188 109 197 111 b 231 105 215 111 223 109 b 256 111 238 109 247 111 b 281 105 265 111 273 109 b 306 111 288 109 297 111 b 331 105 315 111 323 109 b 356 111 338 109 347 111 b 381 105 365 111 373 109 b 406 111 388 109 397 111 b 431 105 415 111 423 109 b 456 111 438 109 447 111 b 511 56 486 111 511 86 b 456 0 511 25 486 0 b 431 6 447 0 438 2 b 406 0 423 2 415 0 b 381 6 397 0 388 2 b 356 0 373 2 365 0 b 331 6 347 0 338 2 b 306 0 323 2 315 0 b 281 6 297 0 288 2 b 256 0 273 2 265 0 b 231 6 247 0 238 2 b 206 0 223 2 215 0 b 181 6 197 0 188 2 b 156 0 173 2 165 0 b 131 6 147 0 138 2 b 106 0 123 2 115 0 b 50 56 75 0 50 25 m 0 194 b 56 250 0 225 25 250 b 81 244 65 250 73 248 b 106 250 88 248 97 250 b 161 194 136 250 161 225 b 106 139 161 164 136 139 b 81 145 97 139 88 141 b 56 139 73 141 65 139 b 0 194 25 139 0 164 m 0 333 b 56 389 0 364 25 389 b 81 383 65 389 73 387 b 106 389 88 387 97 389 b 161 333 136 389 161 364 b 106 278 161 303 136 278 b 81 284 97 278 88 280 b 56 278 73 280 65 278 b 0 333 25 278 0 303 m 0 472 b 56 528 0 503 25 528 b 81 522 65 528 73 526 b 106 528 88 526 97 528 b 161 472 136 528 161 503 b 106 417 161 442 136 417 b 81 423 97 417 88 419 b 56 417 73 419 65 417 b 0 472 25 417 0 442 m 50 611 b 106 667 50 642 75 667 b 131 661 115 667 123 665 b 156 667 138 665 147 667 b 181 661 165 667 173 665 b 206 667 188 665 197 667 b 231 661 215 667 223 665 b 256 667 238 665 247 667 b 281 661 265 667 273 665 b 306 667 288 665 297 667 b 331 661 315 667 323 665 b 356 667 338 665 347 667 b 381 661 365 667 373 665 b 406 667 388 665 397 667 b 431 661 415 667 423 665 b 456 667 438 665 447 667 b 511 611 486 667 511 642 b 456 556 511 581 486 556 b 431 562 447 556 438 558 b 406 556 423 558 415 556 b 381 562 397 556 388 558 b 356 556 373 558 365 556 b 331 562 347 556 338 558 b 306 556 323 558 315 556 b 281 562 297 556 288 558 b 256 556 273 558 265 556 b 231 562 247 556 238 558 b 206 556 223 558 215 556 b 181 562 197 556 188 558 b 156 556 173 558 165 556 b 131 562 147 556 138 558 b 106 556 123 558 115 556 b 50 611 75 556 50 581 "},"d":{"ha":600,"x_min":0,"x_max":0,"o":"m 50 56 b 106 111 50 86 75 111 b 131 105 115 111 123 109 b 156 111 138 109 147 111 b 181 105 165 111 173 109 b 206 111 188 109 197 111 b 231 105 215 111 223 109 b 256 111 238 109 247 111 b 281 105 265 111 273 109 b 306 111 288 109 297 111 b 331 105 315 111 323 109 b 356 111 338 109 347 111 b 381 105 365 111 373 109 b 406 111 388 109 397 111 b 431 105 415 111 423 109 b 456 111 438 109 447 111 b 511 56 486 111 511 86 b 456 0 511 25 486 0 b 431 6 447 0 438 2 b 406 0 423 2 415 0 b 381 6 397 0 388 2 b 356 0 373 2 365 0 b 331 6 347 0 338 2 b 306 0 323 2 315 0 b 281 6 297 0 288 2 b 256 0 273 2 265 0 b 231 6 247 0 238 2 b 206 0 223 2 215 0 b 181 6 197 0 188 2 b 156 0 173 2 165 0 b 131 6 147 0 138 2 b 106 0 123 2 115 0 b 50 56 75 0 50 25 m 350 194 b 406 250 350 225 375 250 b 431 244 415 250 423 248 b 456 250 438 248 447 250 b 511 194 486 250 511 225 b 456 139 511 164 486 139 b 431 145 447 139 438 141 b 406 139 423 141 415 139 b 350 194 375 139 350 164 m 0 194 b 56 250 0 225 25 250 b 81 244 65 250 73 248 b 106 250 88 248 97 250 b 161 194 136 250 161 225 b 106 139 161 164 136 139 b 81 145 97 139 88 141 b 56 139 73 141 65 139 b 0 194 25 139 0 164 m 350 333 b 406 389 350 364 375 389 b 431 383 415 389 423 387 b 456 389 438 387 447 389 b 511 333 486 389 511 364 b 456 278 511 303 486 278 b 431 284 447 278 438 280 b 406 278 423 280 415 278 b 350 333 375 278 350 303 m 0 333 b 56 389 0 364 25 389 b 81 383 65 389 73 387 b 106 389 88 387 97 389 b 161 333 136 389 161 364 b 106 278 161 303 136 278 b 81 284 97 278 88 280 b 56 278 73 280 65 278 b 0 333 25 278 0 303 m 350 472 b 406 528 350 503 375 528 b 431 522 415 528 423 526 b 456 528 438 526 447 528 b 511 472 486 528 511 503 b 456 417 511 442 486 417 b 431 423 447 417 438 419 b 406 417 423 419 415 417 b 350 472 375 417 350 442 m 0 472 b 56 528 0 503 25 528 b 81 522 65 528 73 526 b 106 528 88 526 97 528 b 161 472 136 528 161 503 b 106 417 161 442 136 417 b 81 423 97 417 88 419 b 56 417 73 419 65 417 b 0 472 25 417 0 442 m 50 611 b 106 667 50 642 75 667 b 131 661 115 667 123 665 b 156 667 138 665 147 667 b 181 661 165 667 173 665 b 206 667 188 665 197 667 b 231 661 215 667 223 665 b 256 667 238 665 247 667 b 281 661 265 667 273 665 b 306 667 288 665 297 667 b 331 661 315 667 323 665 b 356 667 338 665 347 667 b 381 661 365 667 373 665 b 406 667 388 665 397 667 b 431 661 415 667 423 665 b 456 667 438 665 447 667 b 511 611 486 667 511 642 b 456 556 511 581 486 556 b 431 562 447 556 438 558 b 406 556 423 558 415 556 b 381 562 397 556 388 558 b 356 556 373 558 365 556 b 331 562 347 556 338 558 b 306 556 323 558 315 556 b 281 562 297 556 288 558 b 256 556 273 558 265 556 b 231 562 247 556 238 558 b 206 556 223 558 215 556 b 181 562 197 556 188 558 b 156 556 173 558 165 556 b 131 562 147 556 138 558 b 106 556 123 558 115 556 b 50 611 75 556 50 581 m 350 750 b 406 806 350 781 375 806 b 431 800 415 806 423 803 b 456 806 438 803 447 806 b 511 750 486 806 511 781 b 456 694 511 719 486 694 b 431 700 447 694 438 697 b 406 694 423 697 415 694 b 350 750 375 694 350 719 m 350 889 b 406 944 350 919 375 944 b 431 938 415 944 423 942 b 456 944 438 942 447 944 b 511 889 486 944 511 919 b 456 833 511 858 486 833 b 431 839 447 833 438 835 b 406 833 423 835 415 833 b 350 889 375 833 350 858 "},"e":{"ha":600,"x_min":0,"x_max":0,"o":"m 50 56 b 106 111 50 86 75 111 b 131 105 115 111 123 109 b 156 111 138 109 147 111 b 181 105 165 111 173 109 b 206 111 188 109 197 111 b 231 105 215 111 223 109 b 256 111 238 109 247 111 b 281 105 265 111 273 109 b 306 111 288 109 297 111 b 331 105 315 111 323 109 b 356 111 338 109 347 111 b 381 105 365 111 373 109 b 406 111 388 109 397 111 b 431 105 415 111 423 109 b 456 111 438 109 447 111 b 511 56 486 111 511 86 b 456 0 511 25 486 0 b 431 6 447 0 438 2 b 406 0 423 2 415 0 b 381 6 397 0 388 2 b 356 0 373 2 365 0 b 331 6 347 0 338 2 b 306 0 323 2 315 0 b 281 6 297 0 288 2 b 256 0 273 2 265 0 b 231 6 247 0 238 2 b 206 0 223 2 215 0 b 181 6 197 0 188 2 b 156 0 173 2 165 0 b 131 6 147 0 138 2 b 106 0 123 2 115 0 b 50 56 75 0 50 25 m 0 194 b 56 250 0 225 25 250 b 81 244 65 250 73 248 b 106 250 88 248 97 250 b 161 194 136 250 161 225 b 106 139 161 164 136 139 b 81 145 97 139 88 141 b 56 139 73 141 65 139 b 0 194 25 139 0 164 m 0 333 b 56 389 0 364 25 389 b 81 383 65 389 73 387 b 106 389 88 387 97 389 b 131 383 115 389 123 387 b 156 389 138 387 147 389 b 181 383 165 389 173 387 b 206 389 188 387 197 389 b 231 383 215 389 223 387 b 256 389 238 387 247 389 b 281 383 265 389 273 387 b 306 389 288 387 297 389 b 331 383 315 389 323 387 b 356 389 338 387 347 389 b 381 383 365 389 373 387 b 406 389 388 387 397 389 b 431 383 415 389 423 387 b 456 389 438 387 447 389 b 481 383 465 389 473 387 b 506 389 488 387 497 389 b 561 333 536 389 561 364 b 506 278 561 303 536 278 b 481 284 497 278 488 280 b 456 278 473 280 465 278 b 431 284 447 278 438 280 b 406 278 423 280 415 278 b 381 284 397 278 388 280 b 356 278 373 280 365 278 b 331 284 347 278 338 280 b 306 278 323 280 315 278 b 281 284 297 278 288 280 b 256 278 273 280 265 278 b 231 284 247 278 238 280 b 206 278 223 280 215 278 b 181 284 197 278 188 280 b 156 278 173 280 165 278 b 131 284 147 278 138 280 b 106 278 123 280 115 278 b 81 284 97 278 88 280 b 56 278 73 280 65 278 b 0 333 25 278 0 303 m 400 472 b 456 528 400 503 425 528 b 481 522 465 528 473 526 b 506 528 488 526 497 528 b 561 472 536 528 561 503 b 506 417 561 442 536 417 b 481 423 497 417 488 419 b 456 417 473 419 465 417 b 400 472 425 417 400 442 m 0 472 b 56 528 0 503 25 528 b 81 522 65 528 73 526 b 106 528 88 526 97 528 b 161 472 136 528 161 503 b 106 417 161 442 136 417 b 81 423 97 417 88 419 b 56 417 73 419 65 417 b 0 472 25 417 0 442 m 50 611 b 106 667 50 642 75 667 b 131 661 115 667 123 665 b 156 667 138 665 147 667 b 181 661 165 667 173 665 b 206 667 188 665 197 667 b 231 661 215 667 223 665 b 256 667 238 665 247 667 b 281 661 265 667 273 665 b 306 667 288 665 297 667 b 331 661 315 667 323 665 b 356 667 338 665 347 667 b 381 661 365 667 373 665 b 406 667 388 665 397 667 b 431 661 415 667 423 665 b 456 667 438 665 447 667 b 511 611 486 667 511 642 b 456 556 511 581 486 556 b 431 562 447 556 438 558 b 406 556 423 558 415 556 b 381 562 397 556 388 558 b 356 556 373 558 365 556 b 331 562 347 556 338 558 b 306 556 323 558 315 556 b 281 562 297 556 288 558 b 256 556 273 558 265 556 b 231 562 247 556 238 558 b 206 556 223 558 215 556 b 181 562 197 556 188 558 b 156 556 173 558 165 556 b 131 562 147 556 138 558 b 106 556 123 558 115 556 b 50 611 75 556 50 581 "},"f":{"ha":600,"x_min":0,"x_max":0,"o":"m 150 56 b 206 111 150 86 175 111 b 231 105 215 111 223 109 b 256 111 238 109 247 111 b 311 56 286 111 311 86 b 256 0 311 25 286 0 b 231 6 247 0 238 2 b 206 0 223 2 215 0 b 150 56 175 0 150 25 m 150 194 b 206 250 150 225 175 250 b 231 244 215 250 223 248 b 256 250 238 248 247 250 b 311 194 286 250 311 225 b 256 139 311 164 286 139 b 231 145 247 139 238 141 b 206 139 223 141 215 139 b 150 194 175 139 150 164 m 150 333 b 206 389 150 364 175 389 b 231 383 215 389 223 387 b 256 389 238 387 247 389 b 311 333 286 389 311 364 b 256 278 311 303 286 278 b 231 284 247 278 238 280 b 206 278 223 280 215 278 b 150 333 175 278 150 303 m 0 472 b 56 528 0 503 25 528 b 81 522 65 528 73 526 b 106 528 88 526 97 528 b 131 522 115 528 123 526 b 156 528 138 526 147 528 b 181 522 165 528 173 526 b 206 528 188 526 197 528 b 231 522 215 528 223 526 b 256 528 238 526 247 528 b 281 522 265 528 273 526 b 306 528 288 526 297 528 b 331 522 315 528 323 526 b 356 528 338 526 347 528 b 381 522 365 528 373 526 b 406 528 388 526 397 528 b 461 472 436 528 461 503 b 406 417 461 442 436 417 b 381 423 397 417 388 419 b 356 417 373 419 365 417 b 331 423 347 417 338 419 b 306 417 323 419 315 417 b 281 423 297 417 288 419 b 256 417 273 419 265 417 b 231 423 247 417 238 419 b 206 417 223 419 215 417 b 181 423 197 417 188 419 b 156 417 173 419 165 417 b 131 423 147 417 138 419 b 106 417 123 419 115 417 b 81 423 97 417 88 419 b 56 417 73 419 65 417 b 0 472 25 417 0 442 m 150 611 b 206 667 150 642 175 667 b 231 661 215 667 223 665 b 256 667 238 665 247 667 b 311 611 286 667 311 642 b 256 556 311 581 286 556 b 231 562 247 556 238 558 b 206 556 223 558 215 556 b 150 611 175 556 150 581 m 150 750 b 206 806 150 781 175 806 b 231 800 215 806 223 803 b 256 806 238 803 247 806 b 311 750 286 806 311 781 b 256 694 311 719 286 694 b 231 700 247 694 238 697 b 206 694 223 697 215 694 b 150 750 175 694 150 719 m 200 889 b 256 944 200 919 225 944 b 281 938 265 944 273 942 b 306 944 288 942 297 944 b 331 938 315 944 323 942 b 356 944 338 942 347 944 b 381 938 365 944 373 942 b 406 944 388 942 397 944 b 461 889 436 944 461 919 b 406 833 461 858 436 833 b 381 839 397 833 388 835 b 356 833 373 835 365 833 b 331 839 347 833 338 835 b 306 833 323 835 315 833 b 281 839 297 833 288 835 b 256 833 273 835 265 833 b 200 889 225 833 200 858 "},"g":{"ha":600,"x_min":0,"x_max":0,"o":"m 100 -222 b 156 -167 100 -192 125 -167 b 181 -173 165 -167 173 -169 b 206 -167 188 -169 197 -167 b 231 -173 215 -167 223 -169 b 256 -167 238 -169 247 -167 b 281 -173 265 -167 273 -169 b 306 -167 288 -169 297 -167 b 331 -173 315 -167 323 -169 b 356 -167 338 -169 347 -167 b 381 -173 365 -167 373 -169 b 406 -167 388 -169 397 -167 b 461 -222 436 -167 461 -192 b 406 -278 461 -253 436 -278 b 381 -272 397 -278 388 -276 b 356 -278 373 -276 365 -278 b 331 -272 347 -278 338 -276 b 306 -278 323 -276 315 -278 b 281 -272 297 -278 288 -276 b 256 -278 273 -276 265 -278 b 231 -272 247 -278 238 -276 b 206 -278 223 -276 215 -278 b 181 -272 197 -278 188 -276 b 156 -278 173 -276 165 -278 b 100 -222 125 -278 100 -253 m 400 -83 b 456 -28 400 -53 425 -28 b 481 -34 465 -28 473 -30 b 506 -28 488 -30 497 -28 b 561 -83 536 -28 561 -53 b 506 -139 561 -114 536 -139 b 481 -133 497 -139 488 -137 b 456 -139 473 -137 465 -139 b 400 -83 425 -139 400 -114 m 100 56 b 156 111 100 86 125 111 b 181 105 165 111 173 109 b 206 111 188 109 197 111 b 231 105 215 111 223 109 b 256 111 238 109 247 111 b 281 105 265 111 273 109 b 306 111 288 109 297 111 b 331 105 315 111 323 109 b 356 111 338 109 347 111 b 381 105 365 111 373 109 b 406 111 388 109 397 111 b 431 105 415 111 423 109 b 456 111 438 109 447 111 b 481 105 465 111 473 109 b 506 111 488 109 497 111 b 561 56 536 111 561 86 b 506 0 561 25 536 0 b 481 6 497 0 488 2 b 456 0 473 2 465 0 b 431 6 447 0 438 2 b 406 0 423 2 415 0 b 381 6 397 0 388 2 b 356 0 373 2 365 0 b 331 6 347 0 338 2 b 306 0 323 2 315 0 b 281 6 297 0 288 2 b 256 0 273 2 265 0 b 231 6 247 0 238 2 b 206 0 223 2 215 0 b 181 6 197 0 188 2 b 156 0 173 2 165 0 b 100 56 125 0 100 25 m 400 194 b 456 250 400 225 425 250 b 481 244 465 250 473 248 b 506 250 488 248 497 250 b 561 194 536 250 561 225 b 506 139 561 164 536 139 b 481 145 497 139 488 141 b 456 139 473 141 465 139 b 400 194 425 139 400 164 m 50 194 b 106 250 50 225 75 250 b 131 244 115 250 123 248 b 156 250 138 248 147 250 b 211 194 186 250 211 225 b 156 139 211 164 186 139 b 131 145 147 139 138 141 b 106 139 123 141 115 139 b 50 194 75 139 50 164 m 400 333 b 456 389 400 364 425 389 b 481 383 465 389 473 387 b 506 389 488 387 497 389 b 561 333 536 389 561 364 b 506 278 561 303 536 278 b 481 284 497 278 488 280 b 456 278 473 280 465 278 b 400 333 425 278 400 303 m 50 333 b 106 389 50 364 75 389 b 131 383 115 389 123 387 b 156 389 138 387 147 389 b 211 333 186 389 211 364 b 156 278 211 303 186 278 b 131 284 147 278 138 280 b 106 278 123 280 115 278 b 50 333 75 278 50 303 m 400 472 b 456 528 400 503 425 528 b 481 522 465 528 473 526 b 506 528 488 526 497 528 b 561 472 536 528 561 503 b 506 417 561 442 536 417 b 481 423 497 417 488 419 b 456 417 473 419 465 417 b 400 472 425 417 400 442 m 50 472 b 106 528 50 503 75 528 b 131 522 115 528 123 526 b 156 528 138 526 147 528 b 211 472 186 528 211 503 b 156 417 211 442 186 417 b 131 423 147 417 138 419 b 106 417 123 419 115 417 b 50 472 75 417 50 442 m 100 611 b 156 667 100 642 125 667 b 181 661 165 667 173 665 b 206 667 188 665 197 667 b 231 661 215 667 223 665 b 256 667 238 665 247 667 b 281 661 265 667 273 665 b 306 667 288 665 297 667 b 331 661 315 667 323 665 b 356 667 338 665 347 667 b 381 661 365 667 373 665 b 406 667 388 665 397 667 b 431 661 415 667 423 665 b 456 667 438 665 447 667 b 481 661 465 667 473 665 b 506 667 488 665 497 667 b 561 611 536 667 561 642 b 506 556 561 581 536 556 b 481 562 497 556 488 558 b 456 556 473 558 465 556 b 431 562 447 556 438 558 b 406 556 423 558 415 556 b 381 562 397 556 388 558 b 356 556 373 558 365 556 b 331 562 347 556 338 558 b 306 556 323 558 315 556 b 281 562 297 556 288 558 b 256 556 273 558 265 556 b 231 562 247 556 238 558 b 206 556 223 558 215 556 b 181 562 197 556 188 558 b 156 556 173 558 165 556 b 100 611 125 556 100 581 "},"h":{"ha":600,"x_min":0,"x_max":0,"o":"m 350 56 b 406 111 350 86 375 111 b 431 105 415 111 423 109 b 456 111 438 109 447 111 b 511 56 486 111 511 86 b 456 0 511 25 486 0 b 431 6 447 0 438 2 b 406 0 423 2 415 0 b 350 56 375 0 350 25 m 0 56 b 56 111 0 86 25 111 b 81 105 65 111 73 109 b 106 111 88 109 97 111 b 161 56 136 111 161 86 b 106 0 161 25 136 0 b 81 6 97 0 88 2 b 56 0 73 2 65 0 b 0 56 25 0 0 25 m 350 194 b 406 250 350 225 375 250 b 431 244 415 250 423 248 b 456 250 438 248 447 250 b 511 194 486 250 511 225 b 456 139 511 164 486 139 b 431 145 447 139 438 141 b 406 139 423 141 415 139 b 350 194 375 139 350 164 m 0 194 b 56 250 0 225 25 250 b 81 244 65 250 73 248 b 106 250 88 248 97 250 b 161 194 136 250 161 225 b 106 139 161 164 136 139 b 81 145 97 139 88 141 b 56 139 73 141 65 139 b 0 194 25 139 0 164 m 350 333 b 406 389 350 364 375 389 b 431 383 415 389 423 387 b 456 389 438 387 447 389 b 511 333 486 389 511 364 b 456 278 511 303 486 278 b 431 284 447 278 438 280 b 406 278 423 280 415 278 b 350 333 375 278 350 303 m 0 333 b 56 389 0 364 25 389 b 81 383 65 389 73 387 b 106 389 88 387 97 389 b 161 333 136 389 161 364 b 106 278 161 303 136 278 b 81 284 97 278 88 280 b 56 278 73 280 65 278 b 0 333 25 278 0 303 m 350 472 b 406 528 350 503 375 528 b 431 522 415 528 423 526 b 456 528 438 526 447 528 b 511 472 486 528 511 503 b 456 417 511 442 486 417 b 431 423 447 417 438 419 b 406 417 423 419 415 417 b 350 472 375 417 350 442 m 0 472 b 56 528 0 503 25 528 b 81 522 65 528 73 526 b 106 528 88 526 97 528 b 161 472 136 528 161 503 b 106 417 161 442 136 417 b 81 423 97 417 88 419 b 56 417 73 419 65 417 b 0 472 25 417 0 442 m 0 611 b 56 667 0 642 25 667 b 81 661 65 667 73 665 b 106 667 88 665 97 667 b 131 661 115 667 123 665 b 156 667 138 665 147 667 b 181 661 165 667 173 665 b 206 667 188 665 197 667 b 231 661 215 667 223 665 b 256 667 238 665 247 667 b 281 661 265 667 273 665 b 306 667 288 665 297 667 b 331 661 315 667 323 665 b 356 667 338 665 347 667 b 381 661 365 667 373 665 b 406 667 388 665 397 667 b 461 611 436 667 461 642 b 406 556 461 581 436 556 b 381 562 397 556 388 558 b 356 556 373 558 365 556 b 331 562 347 556 338 558 b 306 556 323 558 315 556 b 281 562 297 556 288 558 b 256 556 273 558 265 556 b 231 562 247 556 238 558 b 206 556 223 558 215 556 b 181 562 197 556 188 558 b 156 556 173 558 165 556 b 131 562 147 556 138 558 b 106 556 123 558 115 556 b 81 562 97 556 88 558 b 56 556 73 558 65 556 b 0 611 25 556 0 581 m 0 750 b 56 806 0 781 25 806 b 81 800 65 806 73 803 b 106 806 88 803 97 806 b 161 750 136 806 161 781 b 106 694 161 719 136 694 b 81 700 97 694 88 697 b 56 694 73 697 65 694 b 0 750 25 694 0 719 m 0 889 b 56 944 0 919 25 944 b 81 938 65 944 73 942 b 106 944 88 942 97 944 b 161 889 136 944 161 919 b 106 833 161 858 136 833 b 81 839 97 833 88 835 b 56 833 73 835 65 833 b 0 889 25 833 0 858 "},"i":{"ha":600,"x_min":0,"x_max":0,"o":"m 50 56 b 106 111 50 86 75 111 b 131 105 115 111 123 109 b 156 111 138 109 147 111 b 181 105 165 111 173 109 b 206 111 188 109 197 111 b 231 105 215 111 223 109 b 256 111 238 109 247 111 b 281 105 265 111 273 109 b 306 111 288 109 297 111 b 331 105 315 111 323 109 b 356 111 338 109 347 111 b 411 56 386 111 411 86 b 356 0 411 25 386 0 b 331 6 347 0 338 2 b 306 0 323 2 315 0 b 281 6 297 0 288 2 b 256 0 273 2 265 0 b 231 6 247 0 238 2 b 206 0 223 2 215 0 b 181 6 197 0 188 2 b 156 0 173 2 165 0 b 131 6 147 0 138 2 b 106 0 123 2 115 0 b 50 56 75 0 50 25 m 150 194 b 206 250 150 225 175 250 b 231 244 215 250 223 248 b 256 250 238 248 247 250 b 311 194 286 250 311 225 b 256 139 311 164 286 139 b 231 145 247 139 238 141 b 206 139 223 141 215 139 b 150 194 175 139 150 164 m 150 333 b 206 389 150 364 175 389 b 231 383 215 389 223 387 b 256 389 238 387 247 389 b 311 333 286 389 311 364 b 256 278 311 303 286 278 b 231 284 247 278 238 280 b 206 278 223 280 215 278 b 150 333 175 278 150 303 m 150 472 b 206 528 150 503 175 528 b 231 522 215 528 223 526 b 256 528 238 526 247 528 b 311 472 286 528 311 503 b 256 417 311 442 286 417 b 231 423 247 417 238 419 b 206 417 223 419 215 417 b 150 472 175 417 150 442 m 50 611 b 106 667 50 642 75 667 b 131 661 115 667 123 665 b 156 667 138 665 147 667 b 181 661 165 667 173 665 b 206 667 188 665 197 667 b 231 661 215 667 223 665 b 256 667 238 665 247 667 b 311 611 286 667 311 642 b 256 556 311 581 286 556 b 231 562 247 556 238 558 b 206 556 223 558 215 556 b 181 562 197 556 188 558 b 156 556 173 558 165 556 b 131 562 147 556 138 558 b 106 556 123 558 115 556 b 50 611 75 556 50 581 m 150 889 b 206 944 150 919 175 944 b 231 938 215 944 223 942 b 256 944 238 942 247 944 b 311 889 286 944 311 919 b 256 833 311 858 286 833 b 231 839 247 833 238 835 b 206 833 223 835 215 833 b 150 889 175 833 150 858 "},"j":{"ha":600,"x_min":0,"x_max":0,"o":"m 50 -222 b 106 -167 50 -192 75 -167 b 131 -173 115 -167 123 -169 b 156 -167 138 -169 147 -167 b 181 -173 165 -167 173 -169 b 206 -167 188 -169 197 -167 b 231 -173 215 -167 223 -169 b 256 -167 238 -169 247 -167 b 281 -173 265 -167 273 -169 b 306 -167 288 -169 297 -167 b 331 -173 315 -167 323 -169 b 356 -167 338 -169 347 -167 b 411 -222 386 -167 411 -192 b 356 -278 411 -253 386 -278 b 331 -272 347 -278 338 -276 b 306 -278 323 -276 315 -278 b 281 -272 297 -278 288 -276 b 256 -278 273 -276 265 -278 b 231 -272 247 -278 238 -276 b 206 -278 223 -276 215 -278 b 181 -272 197 -278 188 -276 b 156 -278 173 -276 165 -278 b 131 -272 147 -278 138 -276 b 106 -278 123 -276 115 -278 b 50 -222 75 -278 50 -253 m 300 -83 b 356 -28 300 -53 325 -28 b 381 -34 365 -28 373 -30 b 406 -28 388 -30 397 -28 b 461 -83 436 -28 461 -53 b 406 -139 461 -114 436 -139 b 381 -133 397 -139 388 -137 b 356 -139 373 -137 365 -139 b 300 -83 325 -139 300 -114 m 300 56 b 356 111 300 86 325 111 b 381 105 365 111 373 109 b 406 111 388 109 397 111 b 461 56 436 111 461 86 b 406 0 461 25 436 0 b 381 6 397 0 388 2 b 356 0 373 2 365 0 b 300 56 325 0 300 25 m 300 194 b 356 250 300 225 325 250 b 381 244 365 250 373 248 b 406 250 388 248 397 250 b 461 194 436 250 461 225 b 406 139 461 164 436 139 b 381 145 397 139 388 141 b 356 139 373 141 365 139 b 300 194 325 139 300 164 m 300 333 b 356 389 300 364 325 389 b 381 383 365 389 373 387 b 406 389 388 387 397 389 b 461 333 436 389 461 364 b 406 278 461 303 436 278 b 381 284 397 278 388 280 b 356 278 373 280 365 278 b 300 333 325 278 300 303 m 200 472 b 256 528 200 503 225 528 b 281 522 265 528 273 526 b 306 528 288 526 297 528 b 331 522 315 528 323 526 b 356 528 338 526 347 528 b 381 522 365 528 373 526 b 406 528 388 526 397 528 b 461 472 436 528 461 503 b 406 417 461 442 436 417 b 381 423 397 417 388 419 b 356 417 373 419 365 417 b 331 423 347 417 338 419 b 306 417 323 419 315 417 b 281 423 297 417 288 419 b 256 417 273 419 265 417 b 200 472 225 417 200 442 m 300 889 b 356 944 300 919 325 944 b 381 938 365 944 373 942 b 406 944 388 942 397 944 b 461 889 436 944 461 919 b 406 833 461 858 436 833 b 381 839 397 833 388 835 b 356 833 373 835 365 833 b 300 889 325 833 300 858 "}}}
